<?xml version="1.0" standalone="no"?>
<!DOCTYPE svg PUBLIC "-//W3C//DTD SVG 1.1//EN" "http://www.w3.org/Graphics/SVG/1.1/DTD/svg11.dtd" >
<svg xmlns="http://www.w3.org/2000/svg" xmlns:xlink="http://www.w3.org/1999/xlink" version="1.1">
<metadata>
Created by FontForge 20201107 at Sat Nov 13 16:27:47 2021
 By 
Japan wave(c) Seneka Grafika. 2021. All Rights Reserved
</metadata>
<defs>
<font id="JapanWave" horiz-adv-x="1609" >
  <font-face 
    font-family="Japan Wave"
    font-weight="400"
    font-stretch="normal"
    units-per-em="2048"
    panose-1="2 0 5 0 0 0 0 0 0 0"
    ascent="1638"
    descent="-410"
    x-height="1006"
    cap-height="1434"
    bbox="-153 -451 2279.39 1711"
    underline-thickness="150"
    underline-position="-292"
    unicode-range="U+001D-2265"
  />
<missing-glyph horiz-adv-x="30" 
 />
    <glyph glyph-name=".notdef" horiz-adv-x="30" 
 />
    <glyph glyph-name=".null" horiz-adv-x="30" 
 />
    <glyph glyph-name=".null" horiz-adv-x="30" 
 />
    <glyph glyph-name="nonmarkingreturn" horiz-adv-x="30" 
 />
    <glyph glyph-name="space" unicode=" " horiz-adv-x="541" 
 />
    <glyph glyph-name="space" unicode="&#xa0;" horiz-adv-x="541" 
 />
    <glyph glyph-name="exclam" unicode="!" horiz-adv-x="357" 
d="M77 243v0l-1 -1q-2 49 -6 98q-21 163 15 323l1 -1t2 -2.5t1 -2.5q7 -238 13 -475q0 -23 9 -42.5t42 -34.5q3 6 5 9q4 5 4 8q-47 177 6 355q12 35 14 71q1 9 2 17q42 390 156 775q4 11 5 26q0 8 2 18q-49 -3 -94 -5q-14 -1 -31 -2q-9 -19 -20 -37q-21 -38 -37 -75
q-83 -215 -114 -435q-41 -214 -20 -430q8 -54 30 -108q8 -25 16 -49zM103 785v0q-1 -7 -1 -13h-3h-2q1 6 1 12v1h5zM118 890v0l-3 -2v3zM192 -152v0v0h-0.5h-0.5q4 3 9 6q4 3 9 6v0h-0.5h-0.5q4 7 9 14q12 16 16 33q1 1 1 3q8 25 3 49t-46 39q-42 -6 -51.5 -23t-8.5 -37
q0 -18 -6 -33q-2 -2 -5 -4q-5 -6 -13 -12q-19 -11 -39 -23q-7 -4 -15 -9q24 -27 40.5 -32.5t47.5 4.5q19 6 35 13zM208 -140v0h0.5h0.5v0q-5 -3 -9 -6q-5 -3 -9 -6h0.5h0.5v0q12 -7 25 -14q5 2 10 6q-7 7 -14 15q-3 2 -5 5zM76 242v0v0l0.5 0.5l0.5 0.5q1 -5 3 -10
q-2 4 -4 9z" />
    <glyph glyph-name="quotedbl" unicode="&#x22;" horiz-adv-x="365" 
d="M104 1173v0v-1q8 7 16 13q20 12 36 29q27 30 52 64q7 8 14 18q8 11 15 22q4 5 7 10l-5 5q-3 2 -5 4q-16 -16 -34 -31q-25 -24 -51 -47h-1q-1 2 -2 3q19 33 37 66q21 39 43 78v-1q-54 -33 -104.5 -94t-81 -122t-24.5 -95l50 44q20 18 38 35zM202 1147v0v0l-0.5 0.5
l-0.5 0.5q5 1 11 3q4 0 8 2q-1 -22 -5 -26t-23 1v0q-18 -18 -25.5 -39t8.5 -49q34 17 55 45q4 4 7 8q12 13 24 28q13 16 27 30q1 3 2 4q18 18 25.5 27.5t10.5 17.5t6 21q-17 -17 -32 -31q-18 -19 -35 -36q15 41 47 69q26 26 43 58q-5 3 -10 7q-22 -27 -38 -48q-7 -2 -15 -2
q-19 -3 -39 -5l-20 -34q-15 -26 -31 -52zM144 1373v0l-1 -1q-72 -42 -102 -118q5 -4 9 -8q16 22 31 42q32 43 63 85zM226 1405v0v0.5v0.5v0v0q15 15 31 30q0 -1 0.5 -1h0.5v0zM79 1367v0h-0.5t-0.5 0.5v0.5v0q9 11 19 22l1 -1q-10 -11 -19 -22zM60 1343v0v0v0v0v0
q9 13 18 25v0v-0.5t0.5 -0.5h0.5q-10 -12 -19 -24zM42 1318v0l-1 1q10 12 19 24v0v0v0v0v-1zM192 1128v0v0q4 10 9 20l0.5 -0.5l0.5 -0.5v0l-8 -16q-1 -2 -2 -3zM41 1319v0l0.5 -0.5l0.5 -0.5v0v0l-0.5 -0.5l-0.5 -0.5l-0.5 -0.5l-0.5 -0.5zM258 1435v0v0h-0.5t-0.5 0.5v0.5
v0.5t0.5 0.5t1 0.5l0.5 0.5zM143 1372v0v0l0.5 0.5l0.5 0.5v0v0.5v0.5l0.5 0.5l0.5 0.5zM98 1389v0l-0.5 0.5l-0.5 0.5v0v0l0.5 -0.5zM104 1172v0v0v0.5v0.5v-0.5v-0.5v0z" />
    <glyph glyph-name="numbersign" unicode="#" horiz-adv-x="1069" 
d="M937 372v0v0q55 9 122 21q-20 17 -41.5 20.5t-41.5 0.5q-27 -2 -52 6q-45 14 -94 12l-40 2q-8 32 -9 94t3.5 121t11.5 82q57 17 117 34l14 4q0 4 -1 6q0 3 -0.5 5t-1.5 5q23 0 45 4t43 21q-7 2 -12 5q-9 4 -15 4q-84 5 -167 8q-31 -2 -49 28q1 13 2 25l4 62q1 25 1 49
q-1 21 0 42q1 29 3 60q1 14 1 28q-5 -2 -8 -3q-5 -1 -5 -2q-22 -69 -21 -141q-1 -62 -16 -123v213q-4 1 -8 1q-1 -10 -2 -21q-9 -108 -20 -221q-68 -8 -133 -19q-114 -18 -231 -27v324q10 14 20 30l-2 2q-1 3 -3 6q-5 -2 -11 -3q-5 -1 -10 -3t-8 -5q-16 -19 -23 -43
q-27 -96 -24 -195q-1 -22 -1 -43q0 -32 -1 -66q-1 -6 -7 -12q-2 -3 -3 -6h-2l-8 2q2 58 3 115q2 59 4 117h-8l-4 -54q-8 -91 -14 -185q-47 -11 -92 -21q-41 -11 -80 -20q-5 -13 -10 -23q-9 -18 -17 -38q5 -11 14 -28q40 -5 81 4q49 13 101 1q1 -11 2 -23q2 -22 3 -44
q2 -52 4 -105q0 -154 25 -307q8 -43 25 -81q-4 47 -9 94q-30 221 -17 443q6 -4 6 -8v-20q1 -8 1 -16q2 -40 3 -80q2 -196 35 -389q11 -48 25 -95q5 -15 15 -28q4 -7 7 -13q5 2 11 4q-2 23 -3 46l-4 104q-2 26 -5 51q-10 49 -1 98q131 21 260 41q21 4 44 7q10 -24 15 -37
q3 12 11 35q0 2 2 4q22 -61 19 -111v-1q8 -116 82 -205q1 -1 6 0h8q1 10 2 19q2 21 1 42l-8 88q-6 52 -11 104q-1 27 3 54q1 12 2 25q15 3 30 7q30 9 58 14q13 3 23 10q8 7 16.5 10t19.5 1zM677 696v0q2 -5 5 -11q8 -12 9 -23q2 -91 1 -179v-57q-176 -25 -343 -49
q-10 26 -13.5 84t-1 115t11.5 82q24 5 48 9q56 9 113 18q64 12 128 19q14 0 29 -5q7 -2 13 -3v0zM713 461v0v31v100q0 4 2 10l2 8q18 -49 -4 -149zM760 472v0v56v54h1h2v-110h-3zM306 614v0v-58h-1h-2v57h1v0v1h2zM680 347v0q0 5 -1 9q0 5 -1 10h2h1h1h1q1 -4 1 -8
q2 -5 3 -10q-3 -1 -4 -1h-3zM723 681v0q0 7 1 14h4q0 -3 1 -7v-7h-3h-3zM727 262v0q-1 -2 -2 -5v0v1q-1 1 0 3l0.5 0.5l0.5 0.5h1zM324 1062v0q0 2 -0.5 2.5t0 0.5t0.5 -1v-2q0 1 -0.5 1.5l-0.5 0.5v0zM216 346v0q-3 0 -6 -1q-89 -6 -183 -30q11 -8 18 -13l8 -6
q-8 -4 -14 -6q-10 -4 -18.5 -10.5t-10.5 -23.5q82 -22 164 -7q22 2 43 4q20 48 -1 93zM80 262v0q7 0 15 1q-1 -1 -2 -3q-2 -3 -4 -5h-2.5t-2.5 1q-1 0 -3 1q0 2 -1 5zM682 214v0h-1v-1v-3v-4h1v0v8zM937 372v0v0v0v0q3 -1 5 -1q-2 0 -5 1zM674 634v0l-2 1v-4zM677 696v0v0v0
v0v0v0v0z" />
    <glyph glyph-name="dollar" unicode="$" horiz-adv-x="864" 
d="M630 79v0h1v12l-1 -1q9 6 17 12v0h-1v-2v0q8 12 16 23q20 25 31 51q40 88 23.5 134t-121.5 105q-22 13 -43 25l-16 10q-3 57 15.5 169.5t44.5 217.5t48 139q10 1 19.5 1.5t12.5 0.5q29 -18 55 -37q30 -18 62 -40q-10 -123 -88 -240l-30 -56q41 10 60 29q119 126 92 275
q-18 80 -126 114q-19 8 -43 14q-11 3 -24 8q3 15 8 29q8 31 13 61q1 33 -28 67q-10 13 -21 30q-12 -13 -21 -24q-20 -18 -26 -34q-3 -9 -6 -17q-36 -109 -60 -218q-21 -113 -38 -226q-9 -68 -20 -135q-5 -29 -13 -58q-10 -36 -15 -73q-8 -72 -11 -145q-2 -26 -3 -51l-4 -62
q-8 -90 -11 -178q-2 -75 37 -154q12 37 23 70q14 43 28 83q45 19 85 38q40 17 79 33zM506 68v0v1h-0.5t-1 -0.5l-0.5 -0.5l-0.5 -0.5l-0.5 -0.5zM684 276v0q-21 -115 -176 -177q-5 8 -11 14q-11 12 -12 22q3 25 5 51q5 95 38 198q35 -10 57.5 -27t41.5 -36q23 -26 57 -45z
M350 955v0v2q9 -10 7.5 -15t-7 -7.5t-13.5 -4.5l-15 -5h1l-15 -15q-16 -16 -33 -32q-21 -19 -43 -39q-47 -39 -84 -82q-138 -171 106 -272q31 -13 64 -26q16 -6 33 -13q-6 -161 -13 -321q53 525 170 1045q-29 -92 -56 -174q-44 -18 -78 -31zM430 873v0q-6 -31 -11 -60
q-26 -150 -54 -304q-113 9 -179 63q-38 32 -14 70l10 14q37 59 87 112q43 41 97 78q23 16 44 33q6 -2 10 -3q5 -1 10 -3zM346 50v0q1 3 1 5q1 4 1 7q-51 -11 -97.5 -4t-92.5 20q-20 5 -41 11q22 -50 93.5 -73t141.5 -3q-21 4 -42 5q-29 2 -57 8t-53 24h146zM300 925v0v-0.5
t1 -0.5h1h-1t-1.5 -0.5t-1 -0.5h-0.5zM350 957v0v-1v-1v0v0v1v1zM323 925v0v0h-0.5h-0.5v0h-11q-5 -1 -9 -1v0l-2 1v0v0h22h1zM117 784v0l-1 1zM116 785v0v0l0.5 -0.5l0.5 -0.5l-0.5 0.5l-0.5 0.5v0zM664 100v0h-1h1zM663 100v0v0h0.5h0.5v0h-18v1t0.5 1h0.5v0v-12v0.5v0.5
v0q4 2 8 5zM647 91v0v0v-0.5v-0.5h-17l0.5 0.5l0.5 0.5v0v0v-12v0h-0.5h-0.5q5 4 11 7q3 3 6 5zM616 208v0h-1h1zM615 208v0h0.5h0.5v0v0h-0.5h-0.5z" />
    <glyph glyph-name="percent" unicode="%" horiz-adv-x="844" 
d="M72 276v0q8 20 16 41q16 40 32 82q33 92 73 180q74 152 152 301q21 41 42 81q11 18 24 33q6 8 12 15q1 2 3 5q3 4 6 9q4 6 9 13q4 6 9 11q4 8 8 15v0v0v0q-9 -13 -18 -25q-5 -8 -9 -14q-4 -7 -9 -13l-6 -18q-7 -20 -14 -36q-140 -291 -280 -581q-11 -20 -23 -40
q-6 -8 -11 -18q-8 -21 -16 -41q-12 -46 -25 -90q-31 -84 -37 -181q21 25 38 52q8 11 15 22q107 151 195 322q187 378 377 755q20 40 44 75q15 24 29 46q30 50 57 105q8 12 8 28t-17 35q-34 -25 -69 -49q-14 -11 -27 -20h-0.5h-0.5v0q0 -1 1 -2q1 -4 3 -7q0 -1 -0.5 -1.5
t-1.5 -2.5q-1 0 -1 -1v0l0.5 0.5l0.5 0.5v0q-3 -3 -5 -6q-2 -4 -5 -8l1 1h-8v0h-1v0h-3l1 -1q-108 -106 -190 -246q-179 -289 -319 -616q-37 -87 -67 -179q-14 -41 -29 -83v1zM729 21v0q33 10 47.5 36.5t23.5 57.5q5 14 9 29q25 71 -28 129q-55 58 -108 27q-30 -18 -40 -65
t0.5 -96t44.5 -73q18 -13 36 -31q8 -7 15 -14zM177 1103v0v0v-0.5v-0.5q20 -12 37 -21q0 -1 1 -1q63 53 34 142q-9 29 -25 52t-41 30q-67 10 -95 -64q7 -92 74 -156q7 9 15 19zM36 226v0v-1v0v0l-6 -24v-3l-1 1q3 13 7 27zM650 1363v0v0h11v0l-0.5 -0.5l-0.5 -0.5v0
q-1 8 -1 14v0h0.5h0.5q-5 -6 -10 -13zM641 1349v0v0h-0.5t-0.5 0.5v0.5h12l-0.5 -0.5l-0.5 -0.5v0v0q0 8 -1 14v0v0v0v0q-2 -5 -5 -9q-2 -2 -4 -5zM29 199v0v-0.5t0.5 -0.5h0.5v0l-0.5 0.5z" />
    <glyph glyph-name="ampersand" unicode="&#x26;" horiz-adv-x="1159" 
d="M648 667v0v0v0v0v0v0q-52 44 -87 101l4 4q2 2 4 3q2 2 5 4q7 4 13 9q97 48 160 137q86 104 114 234q15 62 10 122t-54 112q-34 36 -83 35q-151 -12 -251 -129q-60 -67 -103 -147q-61 -115 -10 -234q14 -31 30 -61q7 -16 15 -32l-8 -8q-6 -10 -17 -19q-23 -19 -48 -40
q-36 -27 -70 -55q-76 -70 -135 -155q-43 -53 -72 -117q-55 -131 22 -250q27 -38 66 -64q3 -4 8 -7q5 -7 11 -15q7 -10 16 -19q60 -59 141 -74q84 -11 164 12q116 29 222 82q26 13 52 23q9 5 18 8q11 4 21 8q19 8 37 17t35 21q5 3 9 6q7 4 15 10q22 14 42 31q21 19 40 40
q11 11 20 21q52 52 84.5 113.5t36.5 136.5q0 8 1 16q0 3 1 6h3q2 -9 3 -18q1 -3 1 -6q15 27 5 73t-31.5 88.5t-43.5 58.5l-40 -2q5 -11 8 -20q8 -23 15 -45q5 -15 6.5 -30.5t-6.5 -32.5v46q-3 -1 -4 -2l-3 -3q-2 -6 -3 -10q-23 -85 -83 -149q-36 -38 -68 -80q-26 -40 -50 0
q-16 22 -30 43l-26 36q-8 13 -16 24q-8 12 -16 25q-1 1 -2 3q-14 20 -29 38q-23 28 -48 54q-10 11 -21 23zM437 690v0q1 3 3 4q1 2 3 3v0.5t0.5 0.5h0.5v0h-1q-4 -3 -6 -8v0v0v0v0zM469 1248v0v0v0v0v0v0q-4 -2 -6 -4v0q-6 -12 -13 -23q-13 -24 -27 -48q-61 -99 -36 -213
q0 -2 -0.5 -4.5t-2.5 -4.5q-1 2 -3 5q-3 7 -5 14q-15 58 -2.5 110t41.5 101q15 24 32 47l11 11q3 2 5 5zM455 707v0v-1q3 1 8 2v0l-0.5 -0.5l-0.5 -0.5h-7zM817 145v0v-1v1q5 0 10 1v0v0.5t-0.5 0.5h-0.5l1 -1q-5 0 -10 -1zM99 479v0h1v-1v0h-0.5t-0.5 1v0h2v1q-1 0 -2 -1z
M722 1367v0l-1 -1v1h4h-3zM103 360v0v4v6v0v0v-10v-48h-4h-4zM745 1180v0q-3 -3 -6 -7q-6 -5 -8 -12q-19 -57 -61 -97q-1 -3 -3 -4q-73 -77 -160 -137q-14 -9 -27 -21q-6 -5 -14 -11q-3 4 -5 9q-6 9 -9 17q-38 103 22 193q45 71 102 132q57 64 137 94q30 14 68 -3v-15
q0 -19 -5 -37q-10 -36 -22 -72q-5 -15 -11 -30q2 0 3 -1v0h-1h1l-0.5 0.5t-0.5 1.5zM625 547v0v0.5t-0.5 0.5t-0.5 0.5v0.5l1 -1q5 -9 11 -17q14 -17 25 -35q50 -74 98 -147q4 -6 7 -13q2 -3 5 -8q-4 -2 -6 -4q-6 -6 -11 -9l-34 -18q-47 -28 -95 -52q-91 -45 -184 -82
q-52 -20 -106 -28q-64 -6 -114 36t-59 105q-1 12 1 22v2q11 43 26 85q8 20 18 41q4 8 8 15l3 3q12 4 21 8q0 5 -1 10q0 5 -1 10q57 68 120.5 131.5t140.5 115.5q11 -14 21 -28q23 -28 45 -57q21 -30 43 -60q9 -14 18 -27zM102 215v0q-44 47 -42.5 127t39.5 119
q-54 -128 3 -246zM341 32v0h95v-2h-95v1v1zM763 1226v0q3 7 5 15q3 8 5 16l6 -2l-10 -32q-3 1 -6 3zM389 69v0q8 1 17 2q8 2 17 3v-3v-1q-8 -1 -14 -2q-11 -2 -20 -3v4zM745 1371v0q2 2 3 2h3q0 -2 2 -4h-4h-3q-1 1 -1 2zM734 1138v0q0 -1 -1 -1l-1 1h2zM895 166v0
q52 -85 101 -166q10 18 5.5 57t-18 81t-32.5 65l-40 -26q-8 -5 -16 -11zM396 832v0v0q1 0 1 0.5v0.5v0.5t-1 0.5v0v-2z" />
    <glyph glyph-name="quotesingle" unicode="'" horiz-adv-x="235" 
d="M18 1202v0l1 2v-0.5t-0.5 -0.5t-0.5 -0.5v-0.5q-4 -16 -7 -32q-1 0 -1 -1q3 0 6 -2q7 7 15 13q2 -15 -2 -31q-6 -19 0 -40q5 8 10 13q7 12 15 22l23 23q14 15 28 32q43 50 83 103q4 5 9 11q21 22 28 49q-6 9 -11 17l-6 10q-15 1 -22.5 0.5t-13 -3t-14.5 -7.5q-2 -1 -3 -2
q-39 -19 -64 -50l-5 -5q-32 -40 -61 -82q-6 -8 -9 -18t2 -20zM53 1260v0v0h0.5h0.5v0v0.5v0.5zM29 1222v0h1v0v0v0.5t0.5 0.5h0.5z" />
    <glyph glyph-name="parenleft" unicode="(" horiz-adv-x="483" 
d="M90 1171v0v0h-6h-7v0q-3 -15 -7 -29l-14 -44v0v0v0q18 -8 18.5 -17t-4.5 -16q-1 -5 -3 -9q-31 -152 -29 -314q0 -184 72 -374q39 -107 122 -200q101 -114 239 -114v0l-0.5 -0.5l-0.5 -0.5q-5 2 -8 4q-11 5 -20 9q-137 48 -202 170q-10 18 -17 37q-12 35 -35 65
q-29 37 -31 73l-8 60q-4 40 -10 80q-57 343 70 624q29 59 66 114q16 25 31 51v-1l2 2q3 5 7 10v0v0q43 49 120 62l-1 1q-10 7 -19 12t-17 5q-16 -2 -31 -3q-55 -2 -99 -19q-112 -52 -156 -164l-1 1l2 -4q1 -4 2 -9l1 2l-10 -12h1q0 -4 -2 -8q-1 -6 -3 -12v0v0l-4 -6t-4 -5v0
v0q-2 -11 -4 -21zM134 369v0q-3 12 -6 23h2q3 -11 6 -23h-1h-1zM19 920v0h-1q4 18 7 36t7 35h0.5h0.5v0q-8 -36 -14 -71zM20 590v0v0q2 -25 4 -49q3 -1 5 -1q-5 25 -9 50zM19 886v0v0l0.5 -0.5l0.5 -0.5q-4 -25 -8 -51v0v0.5v0.5q3 25 7 51zM43 1032v0v0q-5 -21 -10 -41v0v0
h-1v0q5 21 11 41zM20 590v0v0v0v0v0q-1 12 -1 24h-3h-2q2 -6 3 -12q2 -6 3 -12zM11 695v0v-1q-1 -3 -1 -5v-1v0v0t0.5 3t0.5 4zM11 694v0v0.5v0.5v0v0q-1 2 -1 3.5v2.5t0 0.5v-1.5q0 2 0 1.5v-2.5t1 -5zM18 920v0v0v0h0.5h0.5q0 -18 1 -35l-0.5 0.5l-0.5 0.5v0v0
q-1 17 -1 34zM421 2v0v0v0h0.5h0.5v0l1 -0.5t1 -1v-0.5zM394 12v0h1q1 0 3 -1q12 -4 24 -9h-0.5h-0.5v0v0q-13 5 -25 9q-1 1 -2 1zM470 53v0l0.5 0.5l0.5 0.5v0h0.5t1 -0.5l0.5 -0.5v0h-3zM43 1032v0v0v0v0v0v0.5v1t-0.5 1l-0.5 0.5zM47 1086v0v0v0h0.5h0.5l-0.5 -0.5l-1 -1
t-1 -0.5h-0.5zM315 1351v0v0l2 -6q0 -3 1 -6v1q-1 2 -1 5zM318 1340v0v-1h-6h-6v0.5v0.5h12zM103 1235v0v0v0h13l-0.5 -0.5l-0.5 -0.5v-0.5v-0.5q-2 7 -4 13l0.5 -0.5l0.5 -0.5v0q-5 -5 -9 -10zM107 1223v0h-1q-1 6 -3 12v0v0q3 -6 4 -12zM90 1203v0v0h12v0v0h-12zM94 1192
v0v0v0q-2 5 -4 11v0v0q2 -6 4 -11zM77 1171v0v0v0v0h13v0v0v0h-13zM56 1098v0v0v0v0q-1 -3 -3 -5q-3 -4 -5 -7h-0.5h-0.5v0v0q4 6 9 12zM12 835v0v-0.5v-0.5v0v0v0.5v0.5zM395 12v0v0h-0.5h-0.5h0.5h0.5v0z" />
    <glyph glyph-name="parenright" unicode=")" horiz-adv-x="483" 
d="M393 1171q-2 10 -4 21v0v0l-5 5l-4 6v0v0l-2 12q-2 4 -3 8h1q-4 6 -9 12v-2q2 5 3 9q1 2 1 4v-1q-44 112 -156 164q-44 17 -99 19q-15 1 -31 3q-8 0 -17 -5t-19 -12l-1 -1q77 -13 120 -62v0v0q4 -5 7 -10q1 -1 1 -2l1 1q15 -26 31 -51q37 -55 66 -114q127 -281 70 -624
q-6 -40 -10 -80l-8 -60q-2 -36 -31 -73q-23 -30 -35 -65q-7 -19 -17 -37q-65 -122 -202 -170q-9 -4 -20 -9l-8 -4l-0.5 0.5l-0.5 0.5v0q138 0 239 114q83 93 122 200q71 190 72 374q2 162 -29 314q-2 4 -3 9q-5 7 -4.5 16t18.5 17v0v0v0l-14 44q-4 14 -7 29v0h-7h-6v0v0z
M348 369h-1h-1q4 12 7 23h2q-3 -11 -7 -23v0zM464 920q-7 35 -14 71v0h0.5h0.5q4 -17 7 -35t7 -36h-1v0zM463 590q-4 -25 -9 -50q2 0 5 1q2 24 4 49v0v0zM464 886q4 -26 7 -51v-0.5v-0.5v0q-4 26 -8 51l0.5 0.5l0.5 0.5v0v0zM440 1032q6 -20 11 -41v0h-1v0v0q-5 20 -10 41v0
v0zM463 590q1 6 3 12l2 12h-2h-3q1 -12 0 -24v0v0v0v0v0zM472 695q0 -2 0.5 -4t0 -3t0.5 0v0v1q0 2 -2 5l1 1v0zM471 694q1 3 1.5 5t0.5 2.5t-1 -1.5q1 1 1 1.5t0 -0.5q-1 -1 -1 -2.5v-3.5v0v0l-0.5 -0.5l-0.5 -0.5v0zM465 920q0 -17 -1 -34v0v0l-0.5 -0.5l-0.5 -0.5
q0 17 1 35h0.5h0.5v0v0v0zM61 2l-2 -2v0.5t0.5 1l0.5 0.5v0h0.5h0.5v0v0v0zM88 12q-1 0 -1 -1q-12 -4 -26 -9v0v0h-0.5h-0.5q13 5 25 9q1 1 2 1h1v0zM13 53h-3v0l0.5 0.5t1 0.5h0.5v0l0.5 -0.5l0.5 -0.5v0zM440 1032l1 3l-0.5 -0.5t-0.5 -1v-1v-0.5v0v0v0v0v0zM436 1086
l1 -2h-0.5t-0.5 0.5t-0.5 1l-0.5 0.5h0.5h0.5v0v0v0zM168 1351l-2 -6t-1 -5l-1 -1l2 6l2 6v0v0zM165 1340h12l-0.5 -0.5l-0.5 -0.5h-6h-6l1 1v0zM380 1235q-5 5 -9 10v0v0.5v0.5q-2 -6 -4 -13l0.5 0.5l0.5 0.5l-0.5 0.5l-0.5 0.5h13v0v0v0zM375 1223q2 6 5 12v0v0l-4 -12h-1
v0zM392 1203h-12v0v0h12v0v0zM389 1192q1 5 3 11v0v0q-2 -6 -3 -11v0v0v0zM406 1171h-13v0v0v0h13v0v0v0v0zM427 1098q5 -6 9 -12v0v0h-0.5h-0.5q-2 3 -5 7q-2 2 -3 5v0v0v0v0zM471 835v-0.5v-0.5v0v0v0.5v0.5v0zM87 12v0h0.5h0.5h-0.5h-0.5v0v0z" />
    <glyph glyph-name="asterisk" unicode="*" horiz-adv-x="435" 
d="M367 1395v0v0h0.5h0.5q-7 -5 -14 -9q-15 -9 -29 -20q-32 -27 -63 -55q-14 -12 -29 -25q-4 -4 -8 -7q-3 -2 -5 -4q-1 2 -3 2q-1 0 -1 1q2 33 5 65q3 38 5 76q-5 5 -12 9q-3 3 -6 5q-1 -2 -3 -5q-1 -3 -2 -7q-1 -7 -2 -15q-5 -25 -7 -51q-3 -32 -5 -65q-1 -20 -3 -41
q0 -4 -2 -7l-2 -4q-1 1 -2 1h-2h-1v0l6 70q3 34 6 69q-2 0 -4 1q-5 -37 -9 -75q-4 -29 -7 -59q-4 2 -7 4l-7 7q-7 8 -14 18q-9 11 -19 23q-23 26 -46 51q-4 4 -9 5.5t-11 -3.5l2 -4q2 -5 4 -8q20 -27 39 -52t37 -50q5 -6 9 -13l4 -6q3 -4 6 -7l1 -1v0v0v0q-5 1 -11 1v1
q3 3 4 6q-46 0 -90 -11q3 -1 8 -2q-12 -4 -25 -5q-9 0 -17.5 -2t-16.5 -8q1 -3 1 -5q59 4 119 9v-2v-3q-4 0 -9 -1q-38 -3 -80 -8h15h28q7 -1 14 1q6 2 12 2t13 -3q-7 -16 -19 -27q-6 -5 -10 -10l-44 -56q-9 -12 -18 -23v0v0v0l2 2q2 2 4 3h1q1 1 1 2v0v0h1v0l2 2q4 3 9 6
v0.5t-0.5 0.5h-0.5v0q-1 -3 -3 -6q-3 -7 -6 -13t-4.5 -12t0.5 -13q2 0 3 1q2 0 3 1q8 9 17 18q14 16 29 31q29 28 58 55q2 1 4 3q3 3 9 5q3 1 6 3q1 -5 1 -9q1 -7 1 -13q-1 -24 -1 -48v-53v-11q1 -2 1 -5q4 10 4 19v1v25v77v2q0 6 1.5 12.5t8.5 14.5v-11q1 -10 1 -18
q-1 -32 -1 -64l-2 -84q0 -9 1 -19q1 -4 1 -9h3q1 1 2 1q1 14 2 29q2 34 3 68t1 68v29q6 -55 2 -110q-2 -44 0 -89q5 10 7 20q4 31 5 61q2 25 3 49q0 20 1 40q0 6 3 14q0 4 1 10q24 -19 46 -38q53 -47 112 -83q0 1 1 2q0 2 -1 3q-4 5 -8 9q-30 39 -67 71q-27 22 -51 46
q-4 4 -9 8q-7 7 -12 14.5t-6 18.5q79 7 158 6q23 0 46 1q-29 8 -59 12q-19 2 -37 3q-11 1 -21 2q-11 1 -22 0q-20 -1 -42 4q25 30 52 55q17 16 33 33q28 30 55 61q13 13 25 27v1h-1q-12 -5 -25 -10v0q-1 -3 -4 -4h1h-5v0q-2 1 -4 1q-2 1 -4 3zM319 1217v0h-78q2 0 2 1
q2 2 4 2h58h14v-2v-1zM116 1206v0h-10v2q3 1 5 1h5v-3z" />
    <glyph glyph-name="plus" unicode="+" horiz-adv-x="940" 
d="M444 1168v0q-20 -9 -24.5 -22t-3.5 -27q0 -4 -1 -7l-14 -498q0 -18 2 -36q2 -28 5 -57q6 -60 8 -120q0 -80 15.5 -156t71.5 -144q17 279 7 555q-7 226 0 452q1 17 -3 35q-2 7 -3 13q0 2 -1.5 3t-3.5 2q-1 0 -2 0.5t-3 0.5q-3 0 -7 1q-20 -46 -19 -100q1 -52 -17 -108
q-7 55 -1 104q8 56 -6 109zM464 871v0q-4 -90 -9 -179q-5 0 -11 1v179q10 -1 20 -1zM456 366v0v132h2t3 1v-135q-3 1 -5 2zM929 748v0l-18 -8t-17 -8l-5 -1l1 0.5t2 0.5h2h1q10 4 19 8q8 4 16 7q-6 21 -22.5 24t-34.5 0h-6q-146 -11 -291 -27q-41 -6 -80 -16q-18 -4 -34 -8
q-33 -69 13 -124q235 21 434 120q5 3 8.5 8.5t5.5 11.5zM483 702v0q-69 14 -212.5 -3.5t-260.5 -54.5q30 -10 55 -19q31 -11 59 -21q-7 -6 -16 -13q-8 -7 -18 -15q68 -17 193.5 -6t199.5 40v92zM183 576v0v0v0v-1q4 2 7 4q1 0 0.5 0t-3.5 -2h-1q4 0 5 0.5t0 0t-3.5 -0.5
t-4.5 -1z" />
    <glyph glyph-name="comma" unicode="," horiz-adv-x="263" 
d="M115 -159v0v0h-0.5h-0.5v0q-7 -7 -15 -14v0h-0.5h-0.5q14 3 27 7.5t19 15.5q10 16 25 29l8 6q54 46 71 109q5 36 -22.5 59.5t-71.5 19.5q-31 -4 -35 -35h3q13 -5 25 -10h3q12 3 23.5 2.5t23.5 -7.5q0 -3 -1 -7q-1 -8 -4 -16q-10 -19 -24 -34q-47 -46 -95 -89l-6 -6
q-9 -6 -15 -13.5t-6 -18.5q-19 -7 -36 -13q9 -8 16 -7l58 12q11 3 21 7q5 2 10 3zM120 -100v0v0v0v0q3 3 6 5q3 3 6 4q2 3 5 5l6 4q2 3 5 5v0v0v0v0l-6 -4l-2 -2l-3 -3t-2 -1q-2 -2 -4 -3q-3 -2 -5 -5q-2 -2 -4 -3zM158 -63v0v0h0.5h0.5q2 2 5 4v1q3 1 6 4q5 6 11 14
q5 6 11 13q6 16 13 34q2 3 3 7q3 -13 0 -21t-17 -20q-2 -3 -5 -7l-6 -6q-2 -4 -5 -7t-5 -7q-2 -1 -3 -2q-1 -2 -3 -2l-3 -3q-1 -1 -3 -2zM173 46v0h5q2 -1 4 -1v-1q0 -1 1 -1q-5 -1 -10 -1v4zM86 -177v0v0v0v0v0v0l-0.5 -0.5l-0.5 -0.5v0zM98 -173v0h0.5h0.5v0q-7 -2 -13 -4
v0v0v0v0q6 3 12 4z" />
    <glyph glyph-name="hyphen" unicode="-" horiz-adv-x="1034" 
d="M496 430v0h1q-71 0 -143 1q-4 1 -9 1q171 16 340 23q129 6 257 17v11q-119 5 -240 9q103 6 204 10q37 1 76 2q11 1 25 6q7 3 17 6q-254 60 -505 64.5t-500 -15.5q-2 0 -6 -5q-1 -1 -3 -4l26 -14q8 -5 16 -9q-7 -7 -13.5 -13t-15.5 -13q-2 -3 -7 -7q46 -14 81 -26
q-12 -5 -24 -10.5t-29 -14.5q22 -7 38 -12q16 -4 29 -8q-1 -4 -1 -8q-2 -6 -2 -12q10 -1 20 -1q22 -4 41 -3q102 5 202 14q44 3 86 8q20 1 39 3zM266 431v0q-5 -2 -8 -3l1 1q0 1 0.5 1.5t0.5 1.5q1 0 4 -1h2zM653 434v0h-1v1q-10 1 -21 1q0 -1 1 -2q11 -1 21 0zM497 430v0
h-0.5h-0.5v0q21 0 44 -1h2q-1 3 0 6q-23 -3 -45 -5z" />
    <glyph glyph-name="hyphen" unicode="&#xad;" horiz-adv-x="1034" 
d="M496 430v0h1q-71 0 -143 1q-4 1 -9 1q171 16 340 23q129 6 257 17v11q-119 5 -240 9q103 6 204 10q37 1 76 2q11 1 25 6q7 3 17 6q-254 60 -505 64.5t-500 -15.5q-2 0 -6 -5q-1 -1 -3 -4l26 -14q8 -5 16 -9q-7 -7 -13.5 -13t-15.5 -13q-2 -3 -7 -7q46 -14 81 -26
q-12 -5 -24 -10.5t-29 -14.5q22 -7 38 -12q16 -4 29 -8q-1 -4 -1 -8q-2 -6 -2 -12q10 -1 20 -1q22 -4 41 -3q102 5 202 14q44 3 86 8q20 1 39 3zM266 431v0q-5 -2 -8 -3l1 1q0 1 0.5 1.5t0.5 1.5q1 0 4 -1h2zM653 434v0h-1v1q-10 1 -21 1q0 -1 1 -2q11 -1 21 0zM497 430v0
h-0.5h-0.5v0q21 0 44 -1h2q-1 3 0 6q-23 -3 -45 -5z" />
    <glyph glyph-name="period" unicode="." horiz-adv-x="211" 
d="M101 -10v0q1 8 4 11t6.5 3t6.5 -1q4 -2 8 -2v-4q1 -2 1 -4l-26 -2q28 -8 51 5t34 41q15 48 -13 82.5t-81 33.5q-37 -3 -59.5 -31.5t-14.5 -65.5q2 -9 9 -18t15 -15q20 -13 42 -23q9 -5 17 -10zM116 132v0q3 -5 7 -10l6 -10q-21 2 -37 4q-4 0 -8 1q3 6 6 9t8.5 4t17.5 2z
M153 100v0q-2 -10 -4 -17q-1 -5 -2 -9q-2 1 -4 1q-3 1 -4 2q-1 7 1 12.5t13 10.5z" />
    <glyph glyph-name="slash" unicode="/" horiz-adv-x="817" 
d="M147 391v0v0l18 10q6 6 10 13v0v0v0q-6 -6 -10 -12v0q-7 -16 -14 -31q0 -2 -1 -3v1q-5 -11 -10 -21q-3 -7 -7 -14l1 1l-10 -12l1 1q-7 -18 -13 -35q-14 -39 -30 -77q-17 -39 -35 -78q-15 -34 -30 -70q-7 -13 -6 -28t21 -31q4 7 7 14q9 15 19 29l64 88q22 29 43 58
q9 12 18 25q25 32 46 66l48 82q103 171 200 347q70 133 135 270q31 64 63 128l91 182q20 41 41 83q-8 19 -17 38q-1 3 -3 6q-69 -5 -100 -66q-16 -27 -33 -54q-99 -165 -195 -332q-132 -228 -260 -460q-20 -38 -36 -80q-8 -20 -16 -38zM430 877v0q-4 -6 -9 -13v0h0.5h0.5v0
q4 6 9 12v0.5t-0.5 0.5h-0.5v0zM446 910v0h1q4 5 9 11q4 11 7 21q4 7 9 13q5 5 9 11q1 3 0 5q1 1 0.5 1t0.5 -3v0q1 1 0 2h1h-1q1 -1 0 -2l-2 -2q-4 -6 -9 -11q-4 -7 -10 -13q-3 -10 -5 -20v-1zM688 1316v0l1 -1q4 4 7 9q1 1 2 3v0v0v0v0l-5 -5q-1 -2 -2 -3q0 -1 -1 -1z
M190 448v0v-0.5v-0.5v0q6 6 10 12v0h-0.5h-0.5v0q-4 -6 -9 -11zM405 832v0l1 -1v0l-0.5 0.5z" />
    <glyph glyph-name="zero" unicode="0" horiz-adv-x="1010" 
d="M482 62v0q14 4 26 7q27 6 51 15q76 34 136.5 92.5t113.5 125.5q61 77 102 171q62 140 79 293q10 136 -21 271q-36 168 -155 269q-120 98 -261 56q-157 -48 -271 -181q-87 -97 -150 -212t-91 -252q-3 -17 -7 -36q-24 -90 -16 -184q21 -159 60 -315q18 -61 53 -116
q9 -17 19 -34q28 -48 80 -46h27q69 0 139 3q23 3 44 10q9 3 18 5q5 11 9 21q8 19 15 37zM394 113v0q-98 13 -164 78q-34 33 -51 74q-64 180 -20 367q4 20 9 39q10 44 22 88q82 271 296 429q84 59 183 64q49 1 90.5 -35t56.5 -77q50 -136 44 -281q-8 -190 -93 -355
q-66 -128 -158 -231q-96 -100 -215 -160z" />
    <glyph glyph-name="one" unicode="1" horiz-adv-x="658" 
d="M10 881v0q6 -22 20 -30t32 -10q52 -9 95 20q47 34 93 71q25 20 52 40q6 4 17 10q6 4 15 9q-80 -382 -25 -764h-19h-30h-37h-76q-63 -2 -108 -48q23 -48 71 -61q52 -17 104 -32q20 -7 40 -13q23 7 48 14q127 44 257 60q49 1 89 31q-49 26 -101 34t-105 11q-14 1 -27 2
q-1 6 -3 10q-2 8 -2 12q-2 48 -4 97q-10 195 6 389q11 111 41 217q25 77 61 150q15 33 30 65q4 10 8 21q23 70 -37 112q-4 2 -6 5q-23 14 -42 31q-42 38 -102 23q-3 -11 -8 -22q-10 -26 -21 -53q-1 -6 -4 -13q-6 -17 -14 -34q-59 -103 -138 -186q-27 -31 -53 -61
q-38 -55 -101 -77q-5 -9 -9 -17q-4 -7 -7 -13z" />
    <glyph glyph-name="two" unicode="2" horiz-adv-x="1216" 
d="M330 297v0q7 9 12 15q11 14 21 24q168 178 308 384q89 127 134 281q25 87 6 175q-15 56 -44.5 97t-82.5 58q-109 33 -213 -14q-103 -49 -180 -142q-107 -125 -120 -294q-3 -61 36.5 -97t93.5 -25q0 1 1 1q7 23 10 36t2.5 26t-4.5 34q-25 132 61 226q98 103 228 132
q13 2 26 1q2 0 4 -1q103 -13 100 -127q-1 -30 -14 -55l-6 -12q-34 -66 -75 -127q-157 -216 -335 -409q-82 -94 -179 -169q-64 -39 -110 -110q19 -43 39 -86l8 -6q9 -5 16 -9q44 -36 92 -3q13 8 28 16q13 6 25 14q54 34 108 30t105 -32q78 -42 153 -92q29 -18 57 -36
q73 -53 162 -51q141 10 278 48q82 23 125 106q0 1 -1 2q-7 12 -11.5 18t-13 7.5t-25.5 1.5q-60 1 -119 1q-90 0 -181 2q-77 1 -153 13.5t-148 44.5l-112 52q-31 13 -62 27q-15 6 -32 15q-9 4 -18 9z" />
    <glyph glyph-name="three" unicode="3" horiz-adv-x="978" 
d="M337 924v0v22q1 23 0 44q-2 54 14 99.5t66 74.5q103 64 219 105q5 2 11 4q39 17 83 12q-5 -24 -18.5 -40.5t-30.5 -29.5q-6 -5 -12 -11q-40 -35 -81 -70q-44 -38 -88 -78q-66 -59 -104 -140q-27 -65 21 -114q23 -23 52 -37q47 -20 95 -35q7 -3 13 -5q92 -30 171 -88
q71 -57 59 -145q-12 -82 -79 -130q-165 -119 -369 -121q-56 0 -106 26q-133 72 -33 191q21 26 40 54q8 12 16 25l-7 7q-77 -25 -145.5 -61t-113.5 -104q6 -17 9 -31q10 -27 17 -52q12 -56 60 -89q5 -3 9 -4q38 -23 72 -47q64 -43 138 -62q84 -24 168 -1q161 41 291 142l2 2
q7 7 17 11q63 27 89 89q19 39 37 79q49 137 -62 240q-57 51 -124 84t-136 61q-10 4 -19 8q-49 17 -91 62q1 2 3 4q42 57 91 108q18 19 37 37q93 88 171 190q46 56 8 130q-14 3 -29 7q-34 11 -69 14q-253 4 -452 -154q-63 -50 -76.5 -138t43.5 -151q23 -7 47 -16
q14 -4 28 -10q9 6 19 13q13 9 29 19z" />
    <glyph glyph-name="four" unicode="4" horiz-adv-x="825" 
d="M147 427v0q35 16 70 30q76 34 153 63q109 43 232 72q-17 -267 26 -522q14 -2 27 -4q10 -2 22 -3q2 6 6 11q7 11 7 20q1 46 9 90l8 54q8 86 12 172q5 88 13 174q11 100 29 199q3 19 6 37q16 95 34 188l14 80q-7 9 -12 17q-6 9 -11 15q-17 4 -32 3.5t-27 -12.5
q-52 -56 -99 -116q-6 -9 -8.5 -21.5t-2.5 -24.5q0 -20 3 -39q2 -19 2 -37q0 -55 -1 -108q-1 -22 -2 -43q-223 -76 -449 -123q11 35 30 62q82 114 168 226q43 54 92 104l1 2q18 18 37 35q21 20 41 41q4 5 8 9q18 21 37 36.5t45 19.5q23 67 11 125t-64 89q-34 -14 -50 -23.5
t-25.5 -25.5t-20.5 -49q-7 -21 -19 -40l-30 -48q-32 -58 -76 -109q-69 -76 -135 -155q-38 -45 -76 -89q-87 -96 -140 -205q18 -59 50 -104t87 -73z" />
    <glyph glyph-name="five" unicode="5" horiz-adv-x="1031" 
d="M246 522v0q-7 1 -11 2q-6 1 -10 0q-123 -33 -169 -137t-2 -217q13 -36 51 -50l38 -12q48 -17 98 -25q140 -15 265 24t238 122q109 80 167 207q59 124 29 254q-21 85 -93 129q-132 75 -281 42q-30 -6 -62 -17q-16 -6 -34 -11l4 28q3 26 6 51q11 83 57.5 140t117.5 94
q106 54 213 104l108 50q14 8 29 18q7 6 16 11q-6 3 -9 6q-6 5 -11 6q-1 0 -2 1q-37 11 -73.5 15.5t-74.5 -10.5q-29 -10 -58 -16q-218 -46 -425 -130l-12 -4q-32 -10 -59 -35q34 -28 74 -44q41 -17 72 -45q-49 -95 -77.5 -207t-22.5 -183q39 -36 86 -79q10 5 19 10
q19 9 34 22q31 29 57 63q20 25 50 39q51 23 102 20t102 -20q90 -27 71 -117q-1 -5 -2 -8t-1 -5q-38 -144 -149 -240q-132 -122 -312 -138q-82 -13 -161 12q-33 11 -45.5 28t-9.5 51q4 89 47 167q6 10 10 21q2 6 5 13z" />
    <glyph glyph-name="six" unicode="6" horiz-adv-x="898" 
d="M359 371v0q4 1 7 3q4 2 5 4q4 8 6 17q2 5 3 9q30 85 90.5 135t146.5 71q52 11 81 -15t31 -71q1 -27 -5 -54q-24 -102 -96 -179q-71 -84 -181 -110q-63 -12 -136.5 10.5t-108.5 81.5q-40 74 -44 156q-7 102 25 199q1 3 3 6q18 56 43.5 108.5t71.5 92.5q34 31 64 67
q1 2 3 3q82 90 193 143q68 34 145 32q46 105 59 219q-8 9 -16 20q-7 8 -15 19q-13 -3 -27 -5q-29 -4 -57 -12q-108 -38 -194 -110q-124 -103 -219 -233q-131 -176 -185 -389q-42 -168 46 -318q48 -73 119 -124q2 0 4 -2q107 -85 241 -62q188 33 308 181q53 63 85.5 134.5
t29.5 156.5q2 78 -47 139q-72 78 -179 95q-106 14 -194 -45t-119 -158q-16 -72 3 -138q8 -38 10 -77z" />
    <glyph glyph-name="seven" unicode="7" horiz-adv-x="1140" 
d="M853 1135v0q-4 -9 -6 -14q-4 -11 -9 -18q-11 -20 -24 -41q-36 -64 -75 -125q-51 -83 -104 -163l-52 -82q-11 -17 -22 -36q-13 -19 -26 -39q-43 -73 -74 -151q-13 -32 -27 -63q-45 -99 -65 -204q-12 -63 -3 -133q4 4 8 5q4 3 7 6q28 42 56 83q85 125 169 252
q67 101 127 205q99 183 234 339q65 73 133 142q30 29 29 68q-4 47 -14 93q-5 22 -20 37q-69 73 -169 37q-221 -92 -455 -148q-127 -30 -255 -56q-65 -13 -130 -28q-5 -1 -12 -1q-17 -3 -34 -10.5t-30 -30.5q4 -4 7 -10q8 -12 19 -23q92 -72 208 -85q47 -9 93 11l38 20
q111 57 227 106q73 27 151 44q25 6 50 13q13 2 31 1q9 -1 19 -1z" />
    <glyph glyph-name="eight" unicode="8" horiz-adv-x="820" 
d="M539 820v0q10 12 18 23q16 21 32 40q25 31 50 61q57 66 109 134q62 76 57 174q-5 62 -64 78q-47 11 -96 12q-103 -1 -189 -57q-57 -34 -102 -79t-70 -107q-24 -66 -39 -133q-5 -14 -8 -28q-8 -33 19 -54q35 -26 74 -47q23 -13 48 -23q12 -5 24 -11q-19 -19 -38 -39
q-39 -40 -75 -80q-50 -53 -98 -108q-11 -12 -21 -23q-104 -113 -143 -260q-17 -84 36 -145q83 -97 211 -62q213 70 365 234q62 62 99 141q31 79 8 159.5t-94 128.5q-35 23 -73 47zM498 775v0q97 -58 129 -159q30 -95 -28 -178q-94 -137 -254 -187q-1 -1 -2 -1q-11 -3 -21 -5
q-77 -9 -114 37t-14 120q39 97 111 172q61 67 125 132l52 54q3 4 9 9q3 2 7 6zM445 859v0q-11 12 -21 22q-21 22 -41 42q-73 66 -21 146q51 69 116 127q65 59 154 75q18 2 38 1q9 -1 19 -1q22 -36 18.5 -71t-21.5 -66q-43 -73 -99 -136t-116 -122q-7 -6 -15 -10
q-6 -3 -11 -7z" />
    <glyph glyph-name="nine" unicode="9" horiz-adv-x="945" 
d="M126 535v0q-65 -42 -90 -100.5t-26 -127.5q0 -18 9 -32q3 -4 5 -8q25 -39 55 -74q61 -64 139 -91t161 -38q48 -4 94 19q104 49 205 107q44 25 80.5 57.5t57.5 80.5q3 6 4 11q16 37 29 75q86 233 51 481q-25 148 -162 206q-46 -12 -81.5 -35t-51.5 -73q-11 -32 -28 -61
l-15 -30q-46 -90 -124 -153q-8 -6 -18 -11q-6 -3 -13 -6q-12 64 10 118q47 142 138 259q42 56 96.5 91.5t128.5 32.5q26 19 39.5 41t7.5 54q-60 39 -126 14q-184 -63 -297 -221q-77 -110 -116 -238q-47 -109 28 -203q49 -56 117 -71q11 -3 23.5 0.5t23.5 8.5q1 1 3 2
q42 20 69 58l26 30q81 78 120 184q8 22 22 45q6 13 13 27q5 -10 8 -17q8 -14 11 -23q50 -144 20 -292q-19 -99 -65 -179.5t-144 -126.5l-36 -16q-85 -45 -180 -66q-77 -13 -141 25q-55 32 -81 71t-13 120q5 26 9 51q3 13 5 24z" />
    <glyph glyph-name="colon" unicode=":" horiz-adv-x="234" 
d="M69 840v0v1q0 -1 1 -2l2 -6l-0.5 -0.5l-1.5 -1.5l-1 -1v0v0v0.5v0.5q-19 -37 -28.5 -75.5t8.5 -81.5q20 -12 36 -31q11 -13 24.5 -23.5t32.5 -14.5q47 33 58.5 99t-5.5 105q-21 41 -65 42q-21 0 -42 -7q-9 -2 -19 -4zM156 734v0v0v0v0v0zM90 741v0q4 6 7 12q3 -2 6 -3
q-1 -3 -3 -7l-4 -6q-1 1 -3 2q-1 1 -3 2zM193 225v0q3 7 6 13q15 29 20 57t-20 56q-49 48 -115 28q-31 -11 -41.5 -34t-12.5 -50q-3 -15 -6 -29q42 -64 116 -68q14 7 29 14q12 7 24 13zM10 744v0q3 1 5 1h5q0 3 -1 6l-2 10q-4 0 -7 -1v-16zM23 699v0q-1 1 -3 1l-2 2v-2v-1
t1 -1h2t2 1zM50 831v0v0h19v-0.5v-0.5v0v0v11v-0.5v-0.5v0v0q-9 -5 -19 -9zM50 831v0v0v0v0v0v0v0z" />
    <glyph glyph-name="semicolon" unicode=";" horiz-adv-x="246" 
d="M187 835v0q-5 0 -10 1q-10 1 -19 2q-148 1 -123 -151q13 -52 48 -65t72 3q57 27 67 93t-35 117zM193 762v0v0.5v0.5v0q-1 -2 -1 -4v-1v0.5v2.5q-1 -2 -1 -2.5v0v1.5zM149 807v0l3 -1l-3 -2v3zM164 107v0l-1 -1q12 20 26 40q22 28 34.5 58t-3.5 63q-151 36 -210 -27h84
l3 1h-0.5h-1.5h-1.5h-0.5q-5 -4 -11 -8q-15 -12 -29 -24q-2 -3 -1 -9q1 -3 1 -6v0q22 -1 50 -2l2 -18q2 -20 2 -39q-2 -10 -7 -19q-6 -9 -7.5 -18.5t6.5 -19.5q8 3 14 6q27 12 51 23zM163 106v0l0.5 0.5l0.5 0.5v0q0 -10 -1 -19v0v0v0v16v2zM122 29v0v0l0.5 -0.5l0.5 -0.5v0
h-0.5t-1 -0.5l-0.5 -0.5v0zM136 48v0v0h0.5h0.5l-14 -20v0l-1 1v0v0q7 9 13 18q0 1 1 1zM150 67v0v0v-1q-7 -9 -13 -18h-0.5h-0.5v0v0q7 10 14 19zM150 67v0v0v0v0v0q6 11 13 21v0v0v0v0q-6 -10 -12 -21h-1z" />
    <glyph glyph-name="semicolon" unicode="&#x37e;" horiz-adv-x="246" 
d="M187 835v0q-5 0 -10 1q-10 1 -19 2q-148 1 -123 -151q13 -52 48 -65t72 3q57 27 67 93t-35 117zM193 762v0v0.5v0.5v0q-1 -2 -1 -4v-1v0.5v2.5q-1 -2 -1 -2.5v0v1.5zM149 807v0l3 -1l-3 -2v3zM164 107v0l-1 -1q12 20 26 40q22 28 34.5 58t-3.5 63q-151 36 -210 -27h84
l3 1h-0.5h-1.5h-1.5h-0.5q-5 -4 -11 -8q-15 -12 -29 -24q-2 -3 -1 -9q1 -3 1 -6v0q22 -1 50 -2l2 -18q2 -20 2 -39q-2 -10 -7 -19q-6 -9 -7.5 -18.5t6.5 -19.5q8 3 14 6q27 12 51 23zM163 106v0l0.5 0.5l0.5 0.5v0q0 -10 -1 -19v0v0v0v16v2zM122 29v0v0l0.5 -0.5l0.5 -0.5v0
h-0.5t-1 -0.5l-0.5 -0.5v0zM136 48v0v0h0.5h0.5l-14 -20v0l-1 1v0v0q7 9 13 18q0 1 1 1zM150 67v0v0v-1q-7 -9 -13 -18h-0.5h-0.5v0v0q7 10 14 19zM150 67v0v0v0v0v0q6 11 13 21v0v0v0v0q-6 -10 -12 -21h-1z" />
    <glyph glyph-name="less" unicode="&#x3c;" horiz-adv-x="516" 
d="M487 824v0v0v0v0q9 10 19 22q-12 -1 -23 -2h-10q2 14 3 27q2 15 3 30q-20 2 -42 4q-10 -8 -20 -15q-20 -17 -40 -33q-73 -57 -147 -113q-42 -33 -85 -65q-7 -6 -14 -13q-14 -12 -31 -23q-61 -36 -90 -84q3 -3 5 -6l10 -14l6 -6q7 -6 8 -13q2 -24 23 -45q3 -2 5 -5l70 -82
q38 -44 75 -87q19 -24 37 -47l28 -36q3 -3 5 -6q8 -11 20 -21.5t35 -15.5q2 -4 3 -7q4 -9 9 -20q3 2 5 3q11 4 19 7h-0.5h-0.5v0v0q-1 0 -2 1q-5 3 -8 6t1 6q38 -8 70 -14v0v0v0q-8 11 -17 21q-14 17 -27 34q6 9 11 16q-3 5 -7 9q-6 10 -15 19q-10 11 -19 20q-49 50 -99 98
q-80 78 -131 162q-14 20 11 36l32 22q11 7 21 15l288 194q15 10 6 21zM471 807v0h1v0h-0.5h-0.5v0z" />
    <glyph glyph-name="equal" unicode="=" horiz-adv-x="591" 
d="M536 702v0q4 0 11 2q15 2 34 6q-12 18 -25 19l-32 4q-52 8 -104 9q-113 -2 -226 -8q-7 -1 -15 -1q-51 -6 -95 -30q-24 -11 -48 -20q-2 -1 -4 -6q-1 -2 -3 -5q13 -9 25 -17q-1 -6 -1 -12q-1 -6 -1 -12q51 5 100 9q129 11 255 24q46 5 91 15q6 2 13 3q6 1 13 9q5 5 12 11z
M42 307v0q43 -4 145.5 8t201 30.5t128.5 33.5q-9 2 -17 4q-7 1 -16 3q19 4 37 9q15 3 33 8q-59 17 -172 15t-221 -20.5t-151 -48.5q19 -6 36 -11q5 -2 10 -3l-8 -16zM401 375v0q3 1 5 2q-2 -1 -5 -2z" />
    <glyph glyph-name="greater" unicode="&#x3e;" horiz-adv-x="516" 
d="M29 824q-9 -11 6 -21l288 -194q10 -8 21 -15l32 -22q25 -16 11 -36q-51 -84 -131 -162q-50 -48 -99 -98q-9 -9 -19 -20q-9 -9 -15 -19q-4 -4 -7 -9q5 -7 11 -16q-13 -17 -27 -34q-9 -10 -17 -21v0v0v0q32 6 70 14q4 -3 1 -6t-8 -6q-1 -1 -2 -1v0v0h-0.5h-0.5q8 -3 19 -7
q2 -1 5 -3q5 11 9 20q1 3 3 7q23 5 35 15.5t20 21.5q2 3 5 6l28 36q18 23 37 47q37 43 75 87l70 82q2 3 5 5q21 21 23 45q1 7 8 13l6 6l10 14q2 3 5 6q-29 48 -90 84q-17 11 -31 23q-7 7 -14 13q-43 32 -85 65q-74 56 -147 113q-20 16 -40 33q-10 7 -20 15q-22 -2 -42 -4
q1 -15 3 -30q1 -13 3 -27h-10q-11 1 -23 2q10 -12 19 -22v0v0v0v0zM45 807v0h-0.5h-0.5v0h1v0z" />
    <glyph glyph-name="question" unicode="?" horiz-adv-x="788" 
d="M367 62v0l-1 -1q-31 75 -1 155q72 231 178 442q22 44 44 87q73 144 143 291q20 44 33 94q6 23 13 45v0v25q0 27 1 54q1 57 -24 100.5t-70 54.5q-102 31 -207 8q-190 -56 -339 -206q-73 -69 -95 -177q-32 -133 61 -219q22 -22 36 -53q26 -48 72.5 -62.5t89.5 11.5
q-44 12 -90 24l-3 1h0.5t1 -0.5t1 -0.5h0.5q19 2 39 0q37 -6 75 14q-14 17 -25 29q-10 11 -19 21q-8 2 -16 2q-16 1 -33 3q-86 19 -67 122q16 94 76 151q155 151 349 211q18 4 42 4q12 0 27 2q-3 -21 -5 -37q-3 -36 -12 -61q-32 -80 -68 -156q-7 -18 -15 -35
q-23 -50 -46 -98q-10 -22 -20 -43h-0.5h-0.5v0.5v0.5q7 9 15 20q17 22 30 47q45 94 89 190q21 47 43 93q3 6 7 11l4 4q5 -20 -1 -34q-9 -19 -17 -39q-28 -69 -59 -135q-47 -98 -94 -195q-58 -118 -114 -237q-67 -132 -99 -281q-9 -43 -8.5 -85.5t21.5 -82.5q-16 77 9 151
q0 58 30 104v3v0l-0.5 -0.5t-0.5 -1v-0.5l-18 -64q-6 -21 -11 -41l-4 -60l-6 -90l4 -10q9 -22 21 -41t34 -29zM387 500v0q2 6 4 14q2 7 4 13q5 10 10 21v1l-10 -20v-1q-3 -8 -6 -18q-2 -5 -3 -8l-10 -24v-0.5t-0.5 -0.5t-0.5 -1v-1l2 2q2 6 5 12q2 5 5 11zM113 1141v0v-1
l26 42q1 2 3 4l-1 2q-14 -24 -28 -47zM93 1105v0v2q-2 -11 -4 -21q-25 -92 -13 -190q-54 95 17 209zM632 1328v0h-11h-1q-1 3 -1 5q6 2 12 3q1 -3 1 -8zM246 780v0h13v-3q1 -1 1 -3l-14 -4v10zM399 -154v0v0q26 42 8 88q-2 -8 -5 -16q-2 -6 -5 -12v-0.5v-1v-1v-0.5v0v0
l0.5 0.5t0.5 1v0.5q4 11 7 21q2 4 3 8v19v-1q-5 0 -11 -1h-15q1 5 3 10q4 24 9 43q-73 11 -96 -32q-19 -46 30 -89q14 -10 30 -17l12 -6l20 -10q5 -2 9 -4zM347 -58v0v-8q-1 -1 -3 -1v0q-1 2 -1 4t-1 4q1 1 3 1h2zM425 723v0v0q14 29 29 57q15 29 29 59l1 -2
q-46 -45 -59 -114zM346 562v0v0l-0.5 1l-0.5 1q2 0 2.5 0.5l1 1t0 0l-1.5 -1.5q1 2 1 2.5v0t-0.5 -1.5zM268 330v0l-1 1l12 42h1q-4 -13 -7 -25q-3 -8 -5 -18zM345 564v0l0.5 -1l0.5 -1v0v0q-4 -17 -8 -35v0h-0.5h-0.5l4 18t4 19zM267 331v0l0.5 -0.5l0.5 -0.5v0v0zM280 373
v0h-0.5h-0.5v0v0v0.5v1t0.5 1.5l0.5 1v-4zM395 665v0l1 -1l-2 -2zM776 1175v0v0v0v0v0v0.5v1t0.5 1l0.5 0.5zM318 490v0v0v-0.5v-0.5v0v0l-0.5 -1l-0.5 -1v0zM326 514v0h0.5t0.5 -1v-1q-1 -1 -2 -3q-3 -11 -7 -20v0v0v1v0q4 10 8 22v2zM484 837v0v0l-0.5 1l-0.5 1q5 13 9 26
v-0.5v-0.5h1v0q-5 -13 -9 -27v0zM425 723v0v0v0v0v0v0v0zM396 664v0q0 1 -0.5 1h-0.5v0v0h0.5t0.5 -1zM337 527v0h0.5h0.5v0q0 -2 -1 -2q-5 -5 -10 -13v1v1h-1v0q6 7 11 13zM366 61v0v0v0l0.5 0.5l0.5 0.5l-0.5 -0.5l-0.5 -0.5v0v0zM408 -48v0v0v0.5v0.5v-0.5v-0.5v0z
M399 -154v0v0v0v0v0q0 -1 -1 -2l-9 -9v1q5 5 9 10h1zM389 -164v0v0v-0.5v-0.5v0.5v0.5v0z" />
    <glyph glyph-name="at" unicode="@" horiz-adv-x="1384" 
d="M764 958v0v0h0.5h0.5v0q28 18 59 38q7 4 15 9q-101 15 -173 -48q-112 -99 -114 -241q0 -28 16 -53q16 -24 40 -51q11 -11 21 -26q57 2 98 28.5t79 62.5q25 24 53 45q6 -9 8 -17q8 -16 16 -27q5 -6 9 -12q20 -30 44 -54t62 -37q43 -10 76.5 5t58.5 41q119 109 175.5 239
t27.5 287q-49 241 -282 293q-119 23 -242 14q-166 -13 -298.5 -83.5t-240.5 -180.5q-12 -12 -24 -23q-32 -29 -57 -62.5t-21 -79.5q-66 -57 -78 -133v0q4 0 8 -1h4v0v0.5v0.5q-6 -17 -12 -33v-1v0v0v0.5v0.5q-5 -23 -12 -46q-12 -149 20 -295q-83 143 -18 295q-2 23 -3 46
l1 -1q-71 -160 -15 -324q62 -173 219 -286q86 -72 201 -85q72 -8 143 -10q38 -1 76 -4q33 -2 67 -6q15 -1 31 -2q-190 -25 -386 14q-32 5 -66 10q100 -72 205 -82l-2 -1q-1 4 -4 8q-2 4 -7 11q5 1 9 2q5 1 8 1q270 -25 533 29q130 21 245 81q9 6 20 16q5 6 16 14
q-30 -10 -54 -17q-52 -17 -99 -29q-53 -15 -108 -20q-113 -8 -225 -14q-21 -1 -41 -3q-113 -8 -221.5 1.5t-211.5 62.5q-142 74 -223 199q-106 194 -18 397q118 301 432 451q147 74 313 80q88 5 168 -24q84 -32 138.5 -100.5t36.5 -163.5q-40 -167 -140 -310
q-35 -43 -87 -68q-15 -8 -30 -17q-13 -7 -35 -6q-10 0 -21 -1q-3 12 -7 23q-6 21 -8 40q-4 56 -4 112q-1 27 -1 54q-2 21 -3 40v12q-66 50 -132 21q-9 -4 -20 -5q-5 0 -9 -1zM471 1234v0h1q6 6 12 11q19 11 37 22q24 11 48 23q5 3 12 5q7 3 14 5q114 80 255 91q43 7 66 8
t40.5 -2.5t45.5 -13.5q4 -1 9 -3q-25 -1 -50 -1q-49 -1 -95 -6q-118 -11 -226 -58q-15 -6 -31 -10q-8 -2 -14 -4q-14 -6 -27 -11q-23 -11 -47 -22l-8 -4q-3 -2 -4 -3q-7 -4 -13 -7q-6 -4 -12 -7q-6 -7 -13 -13zM679 627v0q-7 -5 -13 -10q0 1 -2 4q0 1 -1 2q3 0 5 1q6 1 11 3
q11 6 20 12q8 3 16 8v2zM607 801v0v3v-2q-10 -50 -18 -100q-17 54 18 99zM643 698v0q0 87 62.5 165.5t140.5 93.5q13 -64 -49.5 -144t-153.5 -115zM119 602v0v45q3 0 4 2h5q0 -11 2 -22q1 -11 2 -24h-5q-4 0 -8 -1zM908 779v0v-37h-7v37h3h4zM681 69v0v-1v-2h40v3h-40z
M554 82v0l1 0.5l1 0.5v0v0q13 -3 26 -7v1q0 3 2 4q-15 1 -30 1zM81 858v0l-1 1h7h6v-0.5v-0.5v0v0v17v17v0v0v0q-5 -17 -12 -34z" />
    <glyph glyph-name="A" unicode="A" 
d="M690 1324v0v1l-6 -6l-6 -6l2 1q-3 0 -6 1h-7l1 -2q-2 -4 -4 -9t-4 -9h-2v-6v-6l1 1l-11 -11l1 1h-12v-2q-49 -116 -165 -164q12 -33 24 -41.5t42 -4.5q18 2 35 6q15 4 29 6q12 1 26 0h15q-1 -8 -1 -14q-1 -12 -4 -20q-4 -9 -7 -18q-37 -83 -77 -165q-51 -104 -107 -206
q-2 -4 -4 -7q-58 -110 -121 -218q-70 -114 -146 -224q-34 -50 -81 -89q-46 -32 -80 -90q12 -12 25 -24q3 -4 6 -7q17 2 33 4q31 5 59 5q50 0 86.5 24t67.5 58q2 1 3 3q8 7 14 16l44 64q64 90 124 182q29 50 79 74q52 23 104 47q88 40 177 79q18 7 39 12q9 2 19 4q2 -7 4 -13
q3 -11 5 -21l16 -84q15 -87 32 -173q11 -57 33 -111q14 -39 38 -69t68 -44q21 -9 38 -31q8 -9 16 -17q60 -34 190.5 -52t244.5 -10q4 7 7 14l7 14q-212 92 -334 256.5t-185 378.5q33 16 71 17q26 3 50.5 9.5t45.5 27.5q-32 21 -65 25.5t-66 3.5q-39 -1 -76 7
q-78 196 -154 387q10 25 28 40.5t38 27.5q23 13 40 30q15 68 -25 118q-18 26 -33 53q-11 19 -23 37q-13 19 -26 36q-7 8 -13 16q-51 0 -90 -17.5t-62 -65.5q-6 -11 -17 -21q-4 -4 -8 -9zM616 594v0q31 69 59 136q54 139 135 272q31 -102 47 -197q11 -63 26 -126
q-23 -7 -47 -14q-104 -34 -220 -71zM505 1097v0q3 0 4 0.5t0.5 0t-4.5 -0.5q4 -1 4.5 -1t-1 0.5t-3.5 0.5zM679 1325v0h-1v0h12v-0.5v-0.5v0v0q-5 0 -10 1h-1zM668 1313v0l-0.5 0.5l-0.5 0.5v0.5v0.5q7 0 13 -1h-0.5h-0.5l-0.5 -0.5l-0.5 -0.5v12v0h0.5h0.5v0q-5 -6 -11 -12
zM649 1284v0l-1 1q5 -1 11 -1v0v-0.5t-0.5 -0.5h-0.5v12h0.5h0.5h0.5h0.5zM637 1272v0v2h12v-0.5t-0.5 -0.5h-0.5v0v12v-0.5t0.5 -0.5h0.5v0z" />
    <glyph glyph-name="B" unicode="B" horiz-adv-x="1181" 
d="M254 252v0q14 24 27 46q29 45 50 89q13 24 34 44q16 16 29.5 35t17.5 47q-35 -7 -68 -13l-60 -12q20 84 50 163.5t48 99.5l2 -6q20 -47 48 -87.5t82 -59.5q8 5 17 10q18 12 37 23q20 11 39 23q69 43 145 72q101 33 201 12q72 -15 124 -75q-4 -65 -22.5 -123.5
t-73.5 -100.5q-74 -56 -155 -98q-85 -42 -176 -70q-193 -69 -398 -85q-80 -5 -162 -17q-37 -5 -75 -9q2 -6 3 -11q2 -10 7 -14q11 -10 22 -21q41 -47 102 -68q11 -3 23 -7q26 -8 52 -12q18 -2 37 -4q82 -12 161 -7t151 60q6 5 12 7q3 1 5 2q37 18 74 35q84 40 167 81
q1 1 3 2q94 42 171 112q108 103 145 248q16 77 -21.5 159.5t-134.5 111.5l-16 4q-62 19 -127 19q-5 0 -11 -1q-12 -2 -25.5 -0.5t-27.5 11.5q12 18 25 34q27 37 52 74q4 7 8 13q35 50 58 105q31 73 19 153q-10 57 -66 76q-89 33 -174 -10q-18 -9 -38 -18q-11 -5 -23 -10
q-10 68 -44.5 114t-109.5 60q-48 -10 -72 -71q-23 -61 -58 -117q-41 -70 -90.5 -133.5t-113.5 -112.5q23 -21 44 -41l24 -22q24 8 48 15q24 8 48 15q-46 -131 -91 -259q-57 -163 -112 -318q7 -121 98 -177l14 6q13 6 21 9zM861 1237v0q2 -31 -9 -52.5t-26 -39.5q-4 -4 -7 -8
q-122 -153 -284 -261q-54 -40 -129 -54q4 44 23 82q7 17 14 36q13 -12 24 -22l4 -4q50 131 157 213q52 39 108 70.5t125 39.5z" />
    <glyph glyph-name="C" unicode="C" horiz-adv-x="1118" 
d="M66 720v0h-1l7.5 2.5t11.5 4.5h2q-4 -14 -8 -27q-7 -23 -13 -44h-4q-2 1 -4 1q0 6 -1 11q0 6 -1 11l1 -2q-41 -140 -10 -282q16 -96 60 -175t129 -132q47 -26 98 -45q6 -3 13 -6q42 -18 87 -28q186 -31 345 72q18 11 32 25q96 101 160 224q57 111 31 232q-3 17 -10 35
t-25 30q-13 -14 -17.5 -30t-6.5 -32q-1 -13 -4 -26q-32 -147 -147 -243q-100 -82 -229 -102q-111 -20 -216 14q-127 42 -166 167q-21 77 -19 156q3 88 33.5 167t76.5 152q77 120 174 226q139 153 336 200q38 11 77.5 11.5t79.5 -19.5q2 -9 3 -18q5 -19 3 -37
q-15 -105 -71 -195q-33 -48 -69 -95l-54 -74q-4 -5 -8 -11q-10 -12 -17 -25.5t-3 -32.5q14 -10 27 -20q6 -5 11 -9q6 -1 10 -2q10 -2 18 -1q120 16 228 68q79 37 85 124q2 64 -4 128q-8 104 -46 194.5t-142 152.5q-124 27 -260 -20q-157 -63 -278 -184q-173 -170 -273 -390
q-14 -33 -22 -69zM56 677v0l-1 2q5 20 10 41h0.5h0.5v0v0q-5 -22 -10 -43z" />
    <glyph glyph-name="D" unicode="D" horiz-adv-x="1267" 
d="M217 580v0v0q-68 64 -54 154q14 132 68.5 243t163.5 191q86 62 186 96q139 38 285 24q109 -10 165 -80t62 -152q10 -191 -81 -357q-46 -90 -105 -171q-115 -160 -268 -285q-24 -21 -48 -44q-23 -23 -48 -44q-117 -88 -262 -108h-5q-10 -1 -19.5 -5.5t-16.5 -19.5
q11 -2 21 -5q20 -5 39 -7q42 -1 84 0q23 1 46 1q98 -4 188 43q69 37 133.5 79.5t118.5 100.5q18 20 38 40q47 47 85 99q79 120 147 246q112 205 108 440q1 126 -77 223q-99 118 -252 145q-283 46 -529 -95q-236 -133 -337 -386q-38 -85 -32.5 -172t92.5 -172q45 -48 104 -22
zM217 580v0v0q-22 -125 28 -241q40 -80 104 -142q8 -9 16 -17q13 -15 31 -20.5t43 5.5q1 7 3 15q6 18 8 38l8 146q6 115 14 230q2 19 3 38q3 65 13.5 128t42.5 120q-22 120 -88 212q-19 5 -36 10l-26 8l-10 -4q-19 -8 -43 -17q5 -45 12 -90q23 -112 13 -226q-6 -52 -8 -104
q-3 -108 -33 -215q-80 42 -95 126z" />
    <glyph glyph-name="E" unicode="E" horiz-adv-x="1340" 
d="M231 1054v0h-1h29q1 -8 2 -15q2 -16 3 -31q0 -171 -9.5 -341t-40.5 -339q-17 -73 8 -142q27 -69 74.5 -118t125.5 -67q14 6 28 13q32 17 67 31q142 56 294 65h37q41 0 82 3q71 7 143 16q22 2 45 5q1 0 2.5 1t2.5 2l2 2v38q-117 54 -245 65q-139 9 -276 -20
q-71 -18 -143 -3q-45 11 -62 55q-27 87 -16 173q2 26 2 51q113 94 241.5 148.5t261.5 94.5q43 14 85 28q-2 7 -4 13q-5 13 -9 25q-191 40 -376 -21q-57 -19 -119 -36q-29 -8 -61 -17q9 107 17 210q8 91 15 181q31 37 78 47q35 9 70 16q61 12 120 29q159 43 324 47
q99 6 197 12q44 2 87 5q13 69 -30 97q-3 1 -5 2q-35 21 -72.5 37.5t-80.5 17.5q-20 0 -41 1q-26 1 -51 1q-281 -10 -553 -82q-9 -3 -19 -5q-123 -38 -253 -43q-54 -2 -107 -14q-5 -1 -11 -1q-21 -4 -40 -10t-31 -19q-1 -21 -1 -38l-2 -36q16 -14 33 -28q33 -32 70 -58
t85 -36q10 -2 19 -8q5 -2 9 -4zM230 1054v0h0.5h0.5v0v0v0l-0.5 0.5t-0.5 1t-0.5 1l-0.5 0.5z" />
    <glyph glyph-name="F" unicode="F" horiz-adv-x="1238" 
d="M337 1120v0q215 66 434 124q138 32 278 34q87 4 174 14q-10 58 -59 79q-54 25 -110.5 42.5t-117.5 15.5q-30 -2 -60 -3q-92 -2 -181 -16q-175 -34 -349 -78q-22 -6 -45 -11q-143 -34 -275 -93q-11 -28 -7.5 -41.5t26.5 -26.5q71 -52 168 -67l2 -32q5 -34 3 -68
q-19 -183 -41 -366q-2 -12 -3 -25q-3 -21 -5 -42q-5 -67 -19 -133q-24 -101 -9 -197.5t51 -190.5q11 -8 22 -17l32 -24q5 -1 9 -1q10 -1 21 -2q9 0 21 2q7 0 17 1q-14 105 -10.5 209t12.5 207q7 79 11 158q4 3 9 6q89 52 180.5 93.5t195.5 49.5q14 2 30 12q7 4 16 8
q11 -3 27 -8q6 -1 12 -3q1 17 -7 28t-17 19q-11 8 -17 19q-112 35 -215.5 12.5t-207.5 -65.5q-2 -1 -5 -2q-7 82 2 153q3 20 6 41q7 43 9 86t-13 87l0.5 1l1.5 3q1 3 3 8z" />
    <glyph glyph-name="G" unicode="G" horiz-adv-x="1040" 
d="M757 371v0q-5 -5 -12 -11q-15 -14 -32 -28q-40 -32 -87 -45t-96 -20q-132 -25 -252 37q-85 43 -96 139q-7 105 25 204q27 96 71.5 182.5t117.5 157.5q11 10 21 21q17 17 35 33q133 116 307 149q69 11 141 19l68 8q7 9 15 19q17 21 36 44q-25 64 -66 105t-111 49
q-82 8 -150 -38q-46 -30 -94 -57q-42 -24 -82 -49l-28 -18q-79 -48 -150 -104q-173 -144 -254 -356q-42 -109 -55.5 -219.5t21.5 -226.5q35 -108 115.5 -174t190.5 -80q146 -19 283 32q32 12 65 23q15 5 30 11q15 -50 18 -100q2 -50 17 -97q43 11 50 47q1 3 2 7q6 22 13 43
l48 136q46 132 91 263q1 4 3 8q6 20 14.5 37.5t27.5 27.5q7 67 -26.5 126t-89.5 80q-10 0 -20 -1q-22 -1 -43 -3l-56 -4q-72 -5 -145 -10q-35 -4 -60.5 -21t-48.5 -39q-16 -14 -32 -27q4 -14 7 -25q3 -10 5 -20q19 -8 37 -17q11 4 22 7q24 6 44 15q42 19 79.5 11t72.5 -25
q20 -9 41 -16q-10 -44 -20 -86q-13 -62 -28 -124z" />
    <glyph glyph-name="H" unicode="H" horiz-adv-x="1186" 
d="M989 1386v0q-43 -35 -55 -77.5t-6 -85.5q13 -139 9 -277q0 -17 -1 -33q0 -25 -5 -50l-4 -24q-279 -49 -541 -140q-6 -2 -15 -1h-11q15 113 52.5 218.5t88.5 215.5q-1 8 -1 19q2 32 -7 69q-26 96 -88 176q-23 26 -51 29t-47 -23l-20 -30q-38 -45 -55 -104
q-23 -100 -80 -178t-137 -141q12 -33 29 -40.5t53 5.5q87 25 166 88v-15q1 -10 0 -17q-22 -126 -45 -251q-1 -7 -2 -13q-3 -27 -13 -50q-32 -70 -31 -146v-9q-3 -35 -11 -69q-8 -36 -16 -71l-18 -80q-2 -15 2 -30q2 -5 3 -11q15 -58 34 -113.5t53 -105.5q16 -4 33 -12
q22 -12 46 -12.5t51 33.5q-2 31 -5 63q-5 79 -11 162q-2 29 -4 57q-6 76 -10 153q-1 19 2 38.5t18 35.5q2 1 5 2q6 2 10 1q27 -8 51 -1.5t48 19.5q92 45 187 78t198 41q23 1 46 3q11 1 23 2q1 -11 2 -20q2 -17 1 -31q-11 -82 -23 -165q-9 -63 -17 -127l-6 -36
q-11 -49 -8 -97q9 -64 28 -127q6 -21 12 -43q5 -18 13 -34l6 -14q34 -4 47 3.5t17 34.5q10 49 18 99q5 36 12 73q4 22 9 44q8 32 12 64q15 124 -1 249q-4 45 -2 93q1 22 1 46q70 40 143 82q-4 24 -21 32.5t-39 11.5q-9 1 -18 1q-14 1 -28 5t-26 18q0 5 1 10q1 13 5 26
q12 45 26 91q19 67 38 135q1 2 1 5q5 14 7.5 29.5t-0.5 28.5q-20 72 -44 143q-8 24 -16 47q-1 3 -5 6l-4 4q-19 5 -41 10q-9 2 -18 5z" />
    <glyph glyph-name="I" unicode="I" horiz-adv-x="947" 
d="M15 68v0q18 -18 35 -38q22 -26 48 -47.5t65 -25.5q5 4 11 8q47 40 96.5 69t112.5 29q4 0 7 1q2 1 3 1q21 7 41 13q57 17 113 35q25 8 51 17q12 4 23 9l2 18q1 11 3 27q-57 7 -112 14q-79 10 -157 21q-25 74 -7 146q24 96 47 192q62 255 128 509q20 71 52 140q14 32 27 64
q149 12 280 22q9 6 16 12q17 12 32 23q-5 13 -9 25q-5 12 -9 23q-4 2 -7 4q-7 3 -13 6q-9 5 -19 8q-148 49 -304 41q-157 -14 -314 -26l-72 -6q-52 -2 -101 -40q3 -7 5 -14q3 -18 13 -30q21 -21 41 -44q33 -38 70 -70t87 -49q49 57 112 71l-2 -16q0 -16 -3 -31
q-43 -175 -88 -350q-4 -14 -8 -29q-56 -199 -90 -404q-12 -68 -28 -132q-7 -28 -14 -55q-30 -13 -60 -22q-60 -13 -104 -54v-65zM307 688v0q-6 48 14 92q6 15 11 31q24 124 59 245q3 9 5 18q6 -1 12 -3l-14 -54q-23 -90 -47 -180q-3 -9 -10 -17l-7 -7q6 -49 -14 -92
q-6 -16 -10 -32q-29 -138 -59 -275q-3 83 22 162q12 39 26 77q6 17 12 35zM419 1176v0q4 23 9 46q2 0 5 -1q3 0 5 -1q-5 -23 -9 -46zM412 1126v0l1 3l1 -2z" />
    <glyph glyph-name="J" unicode="J" horiz-adv-x="1180" 
d="M287 553v0l-1 -1v3q-2 3 -2 5q0 1 0.5 1.5t0.5 1.5l1 1v0q42 64 84 126q-45 1 -73.5 -10.5t-60.5 -45.5q-130 -138 -198 -317q-23 -62 -1 -142.5t89 -125.5l20 -12q20 -15 43 -24q15 -6 32.5 -10.5t31.5 -0.5q29 9 58 16q49 12 95.5 28.5t87.5 46.5q101 71 162 177
q91 169 121 359q11 72 22 143q12 89 27 177q16 85 39 169q19 67 77.5 102t133.5 10q4 -1 8 -3q10 -4 20 -7q17 -4 32.5 0t26.5 24q2 39 -16 69.5t-46 53.5q-3 3 -7 5q-51 47 -84.5 56t-101.5 -23q-40 -18 -83 -27q-170 -36 -331 -102q-58 -23 -118.5 -39.5t-129.5 -14.5
q5 -11 9 -21q7 -20 18 -33q36 -41 75 -80l18 -18q55 -61 132 -29q55 60 120.5 103t153.5 49q-1 -4 -1 -7q-1 -7 -2 -13q-12 -51 -25 -103q-30 -112 -51 -225q-46 -268 -190 -497q-47 -73 -113.5 -110t-149.5 -49q-10 -1 -22 2q-5 1 -11 2q-23 48 -13 95l2 8q25 120 76 230
h-4h0.5t1 0.5t1 0.5h0.5z" />
    <glyph glyph-name="K" unicode="K" horiz-adv-x="1139" 
d="M377 767v0v-2l-1 -1q1 1 3 2q5 74 46 139q55 83 95 173q36 93 -11 183q-26 49 -57 97q-8 13 -16 27q-11 17 -23 32q-5 7 -9 13h-66q-2 -7 -3 -14q-4 -13 -7 -26q-6 -31 -11 -62q-10 -65 -26 -128q-29 -113 -88 -201.5t-188 -121.5l10 -8q9 -10 18 -13q33 -9 66 -15
q13 -2 26 -5l-12 -14q21 -5 40 1t38 15q28 17 61 21l-2 -20q-1 -19 -5 -36q-4 -19 -9 -39q-17 -70 -40 -138q-12 -36 -24 -73q-18 -60 -41 -118t-62 -110q-20 -26 -30 -57q-5 -13 -7.5 -28.5t0.5 -28.5q22 -73 52 -143q7 -21 19 -40t35 -30q11 4 23 10q10 4 23 9
q-3 116 22 227t59 222q17 56 33 113q28 -2 53 -4q6 0 13 -1q7 -11 13 -23q15 -25 29 -50q17 -35 34 -71q31 -66 66 -128q92 -157 191 -309q34 -57 107 -61q67 -1 134 -6l60 -4q33 -2 63 6t53 37q-11 28 -33.5 42t-48.5 22q-113 38 -201 118q-48 46 -95 94l-24 26
q-57 58 -109 121q-54 66 -105 135q-26 35 -53 70q-10 13 -21 24q-5 5 -9 10q81 70 175 91.5t195 17.5q5 9 10 17q10 17 21 30q50 56 66.5 121.5t12.5 137.5q0 15 -5.5 28t-23.5 19q-11 -5 -23 -10q-26 -11 -50 -27q-22 -16 -41 -35q-10 -11 -22 -21q-7 -6 -16 -11l-8 -6
q-34 -22 -67 -44q-80 -54 -161 -107q-37 -23 -76 -43q-17 -9 -35 -18zM15 105v0v0v-13h0.5t0.5 0.5v0.5v0q0 6 -1 12z" />
    <glyph glyph-name="L" unicode="L" horiz-adv-x="1112" 
d="M149 7v0q6 5 13 10q16 11 34 23q58 46 121 4q21 -15 45 -28q16 -9 32 -20q148 -104 324 -147q63 -15 125 -7q192 28 248 214q0 2 1 4q5 13 4.5 27t-15.5 27h-6q-8 1 -16 -1q-16 -5 -31 -11q-77 -26 -153 -56q-88 -38 -181 -39q-107 5 -202 59q-33 17 -64 37
q-44 28 -90.5 50.5t-101.5 27.5q1 8 1 16q0 14 2 27q40 212 118 412q62 157 178 279l18 20q28 28 52 60q52 68 42 152q-29 147 -128 260q-15 18 -34 25.5t-47 -4.5q-5 -10 -11 -20q-17 -25 -24 -53q-15 -67 -50 -125q-12 -23 -24 -45q-36 -78 -79 -153q-17 -31 -45 -53
q-41 -31 -82 -59q-17 -12 -33 -23q11 -18 23 -39q3 -5 6 -11q39 -2 76 15q32 15 69 17q-8 -25 -17 -48q-17 -51 -34 -98q-41 -113 -66.5 -229t-46.5 -234q-4 -18 -8 -37q-7 -39 -14 -73q-3 -14 -6 -27l-14 -10q-25 -20 -43 -34q50 -72 134 -82z" />
    <glyph glyph-name="M" unicode="M" horiz-adv-x="1305" 
d="M298 1054v0q-11 -25 -19 -47q-19 -45 -34 -85q-69 -184 -114 -375l-26 -100q-26 -92 -90 -173q8 -44 14 -89q7 -67 23 -132t58 -123l16 -8q15 -8 30 -15q1 1 3 2q16 14 28 29.5t14 37.5l4 48l6 74q4 29 6 59q7 83 22 165q66 315 180 617q16 41 37 80q4 8 15 15q5 5 11 10
q5 -15 10 -29q10 -27 15 -51q39 -196 40 -395q0 -20 -1 -39q-7 -59 10 -116q45 -109 152 -157q52 44 52 106q-1 29 6 58q28 182 126 338q47 78 122 145q1 -7 2 -11q2 -8 1 -13q-3 -27 -7 -55l-8 -56q-30 -242 -5 -485q10 -79 48 -142.5t85 -121.5q3 -3 6 -7
q9 -12 20.5 -18.5t25.5 -1.5q-5 15 -11 29q-14 32 -23 64q-9 36 -12 73q-1 10 -2 19q-21 196 -20 392q-1 114 30.5 215.5t106.5 187.5q11 14 15 31q24 76 17 155q-3 27 -20 44.5t-44 18.5q-38 0 -71 -16q-157 -81 -269 -217q-57 -71 -109 -147q-20 -30 -41 -59
q-10 -14 -22 -33q-6 -11 -14 -24q-9 40 -16 76q-15 79 -36 150q-25 72 -59 145q-15 33 -30 68q9 9 19 21q14 17 33 38q0 7 -1 15q-2 20 -6 42q-19 79 -67 145q-20 31 -42.5 40.5t-63.5 1.5q-1 -3 -4 -5q-5 -6 -9 -14q-20 -38 -40 -77q-25 -48 -51 -96q-2 -4 -4 -9
q-10 -21 -24 -36q-16 -15 -31 -30q-32 -34 -68 -60.5t-85 -31.5q21 -26 49 -61q53 -16 141 6z" />
    <glyph glyph-name="N" unicode="N" horiz-adv-x="1267" 
d="M202 -15v0q18 25 25.5 39.5t9.5 28t3 35.5v11l2 38q3 138 17 274q40 301 148 585q5 12 14 28l10 20q9 -18 16 -33q15 -31 25 -58q10 -29 19 -59q9 -33 21 -65q30 -83 61 -165q49 -128 95 -256q18 -55 31 -111q8 -35 17 -69q7 -32 25 -58q76 -91 188 -160q27 17 55 35
q3 22 7 42q8 44 10 86q-1 94 20 185q18 75 44.5 146.5t76.5 133.5q107 133 109 303q1 77 -6 155q-4 41 -6 81q-4 64 -27 120.5t-55 110.5q-12 22 -29.5 42.5t-49.5 30.5l-2 -26q-2 -27 -1 -52q1 -40 8 -80q14 -139 -11 -276q-14 -79 -37 -156q-10 -34 -19 -68q0 -3 -1 -5
q-19 -43 -37 -86q-48 -110 -97 -219q-17 -36 -41 -75q-11 -20 -24 -43q-154 383 -303 752q19 24 41 50v4q-1 46 -10 90t-44 78q-8 7 -16 16q-15 17 -32 29.5t-40 7.5q-58 -44 -80 -103l-10 -18q-30 -62 -73 -114q-46 -50 -98 -96q-23 -21 -46 -43q-14 -13 -28 -28
q-7 -8 -15 -16q45 -29 87.5 -24.5t85.5 20.5q10 3 21 6q-10 -38 -20 -75q-20 -78 -39 -151q-12 -51 -24 -101q-22 -95 -49 -188.5t-70 -182.5q-1 0 -1 -1l-2 -4q-36 -104 22 -197q24 -36 49 -72l24 -34q26 -7 54 -15h2z" />
    <glyph glyph-name="O" unicode="O" horiz-adv-x="1257" 
d="M560 20v0q9 -2 17 -4q49 -19 95 -11q173 42 289 174q171 191 221 444q60 300 -84 565q-61 112 -157 177t-228 70q-183 1 -345 -97t-243 -268q-43 -94 -70 -193q-26 -97 -36 -197q-4 -49 0 -99q2 -26 3 -52q-2 -225 116 -414q28 -45 65.5 -83t89.5 -57q54 -16 112 -23
q27 -3 53 -8q38 97 -14 170q-52 80 -128 141q-44 35 -72 86q-20 38 -34 80q-6 18 -13 36q-31 89 -16 183q5 41 14 83l4 24q30 205 175 356q149 148 354 157q77 4 142.5 -24t111.5 -97q86 -136 77 -296q-15 -281 -188 -502q-60 -74 -130 -139q-29 -28 -57 -57
q-38 -38 -80 -81q-21 -20 -44 -44z" />
    <glyph glyph-name="P" unicode="P" horiz-adv-x="1188" 
d="M287 1045v0q5 -12 9 -24q10 -26 24 -50q65 -111 47 -238q-6 -51 -14 -103q-9 -50 -14 -101q-8 -135 -59 -259q-34 -80 16 -147q6 -8 11 -16q18 -28 39 -55q12 -14 27 -25q6 -4 11 -8q51 10 68 32t14 70q-4 116 -1 231q3 47 12 92q4 21 7 41q67 14 123.5 44t108.5 64
q24 16 48 31q77 47 139 111.5t119 134.5q32 40 53 86q98 221 -61 380q-84 70 -192 83q-197 25 -381 -50q-208 -73 -348 -242q-44 -54 -61 -116t12 -133q33 -82 114 -136v19v30q-2 119 43 213t148 158q112 70 237 111q158 50 316 7q19 -21 36 -39q8 -9 16 -17
q8 -36 5.5 -62.5t-13.5 -56.5q-49 -119 -138 -209q-72 -80 -148 -156q-38 -38 -75 -77q-8 -9 -15 -19q-6 -9 -12 -17q-9 -9 -15 -20q-8 -13 -18 -24.5t-27 -19.5v17q1 15 2 28l4 34q5 33 5 66q0 69 28 132q9 23 7 49q-8 63 -52.5 117t-105.5 74q-60 25 -99 -35zM506 525v0
l-4 -1l2 4z" />
    <glyph glyph-name="Q" unicode="Q" horiz-adv-x="1277" 
d="M739 147v0q19 20 37 39q40 41 78 81q21 22 43 45q56 57 110 116q154 165 219 384q36 122 30 239.5t-66 232.5q-34 57 -118 109t-152 50q-138 -8 -264 -66q-99 -52 -184 -124q-152 -129 -249 -302q-59 -106 -104 -219q-10 -24 -21 -49q-83 -197 -47 -406q2 -13 3 -26
q2 -35 15 -64q38 -72 93.5 -127t144.5 -76q14 9 31 20q17 10 34 21q20 1 41 2q48 0 95 10q47 12 94 32q21 9 43 18l4 -6q6 -7 13 -16q22 -28 44 -58q47 -66 101 -124q63 -60 129 -59.5t124 45.5q7 6 15 12q24 17 46 36q62 54 96 119.5t22 150.5q-13 14 -25 29q-5 5 -10 11
q-16 -14 -30 -28q-32 -30 -63 -57q-9 -8 -19 -15q-47 -43 -101 -75q-44 -21 -94 -28q-8 -1 -15 -2q-42 -6 -70 26q-27 34 -52 69q-10 15 -21 30zM659 304v0q-122 50 -184 27t-121 -115q-95 72 -103 187q-11 117 23 231q22 83 52.5 162.5t81.5 150.5q122 168 295 280
q56 36 116.5 45.5t125.5 -19.5q161 -81 141 -262q-34 -196 -153 -354q-88 -121 -181 -239q-30 -35 -64 -66q-15 -14 -29 -28zM545 206v0q-22 -12 -51 -28q-2 41 27 49q3 1 7 -0.5t9 -3.5l8 -4v-13z" />
    <glyph glyph-name="R" unicode="R" horiz-adv-x="1248" 
d="M215 -1v0q4 9 8 17q9 15 12 29q11 51 16 103q3 31 4 63q1 40 6 81q14 108 34 216q12 59 27 117l12 50q45 7 69 -2.5t39 -44.5q52 -110 95 -223q14 -38 27 -76q44 -137 110 -266q28 -61 105 -73q158 -18 317 -9q59 2 118 2q12 1 27 7q8 3 17 6q-26 15 -51 30
q-50 30 -99 55q-237 127 -381 334q-71 100 -139 201l-54 80q-1 2 -1 6q1 2 1 5l6 4q8 4 16 7q285 103 458 328q79 105 65 226q-3 43 -25.5 76.5t-69.5 49.5q-92 31 -189 18q-66 -13 -132 -31q-30 -8 -60 -15q-2 7 -5 14q-5 17 -14 31q-1 1 -1 2q-19 33 -47 58
q-71 61 -134 -7q-12 -13 -22 -27q-7 -9 -15 -17q-24 -28 -47 -56q-81 -108 -194 -192q-30 -20 -62 -39q-18 -10 -35 -21q-4 -2 -7 -7q-2 -3 -5 -7q24 -7 42 -12q5 -8 9 -16t8 -15q86 -5 168 24q26 7 54 14q-2 -13 -3 -25q-1 -22 -6 -40l-6 -22q-39 -128 -83 -255
q-38 -108 -78 -215q-31 -84 -62 -169q-24 -57 -6 -117q29 -75 50 -153q11 -49 55 -89q14 -3 33 -7q11 -3 25 -6zM948 1307v0q8 -44 -3.5 -78.5t-32.5 -65.5q-85 -122 -219 -204q-118 -78 -253 -129q-18 -7 -40 -11q-11 -3 -23 -6v16q-2 12 0 22l38 144q11 42 22 83
q13 55 67 88q145 90 315 130q40 7 84 8q22 1 45 3z" />
    <glyph glyph-name="S" unicode="S" horiz-adv-x="1216" 
d="M672 694v0q23 2 43 4q42 2 78 8q1 1 2 1q43 7 79.5 23t63.5 61q43 71 99 134q57 62 100 134q33 56 48.5 113t-6.5 123q-24 89 -106 119q-4 2 -9 3q-32 12 -64 16q-87 8 -174 6q-129 -6 -246 -59q-58 -28 -113 -64q-23 -14 -45 -28q-23 -12 -42 -28q-12 -11 -24 -21
q-87 -74 -171 -151q-74 -73 -101 -174q-39 -126 60 -211q50 -45 108 -74q71 -32 143 -60q63 -25 125 -53q94 -38 172 -107q-6 -65 -47 -112q-59 -66 -142 -96q-59 -26 -120.5 -39.5t-127.5 -2.5q-37 8 -69 29q-61 46 -24 112q25 37 56 71q12 14 24 27q14 17 28 33q7 8 13 15
l-4 8q-1 2 -2 3q-10 -1 -21 -2q-25 -1 -46 -9q-65 -29 -125 -66q-45 -28 -57 -81q-13 -61 15 -130t82 -105q84 -51 182 -60q78 -7 149.5 13t141.5 48q100 44 167 130q77 103 51 217.5t-114 158.5q-31 13 -61 30q-26 14 -53 27q-49 21 -97 42q-71 30 -141 62q-52 26 -99 56
q-21 13 -41 24q-6 59 25 94l4 6q62 94 151 161q11 8 23 16q97 68 200 126q79 41 167 59q92 18 187 21q55 3 109 -33q-3 -10 -6 -19q-5 -20 -13 -38q-78 -156 -241 -224q-115 -48 -214 -128l-4 -20l-16 -74q13 -10 26 -19q34 -24 64 -46z" />
    <glyph glyph-name="T" unicode="T" horiz-adv-x="1301" 
d="M1135 1449v0q-11 -2 -20 -4q-21 -4 -40 -9q-22 -5 -44 -12q-43 -12 -87 -20q-296 -41 -571 -156q-121 -51 -244 -103q-56 -24 -114 -49q3 -23 8 -54q30 -15 59 -33q43 -28 87.5 -45.5t97.5 -7.5q119 149 305 175q-1 -10 -1 -17q-1 -15 -2 -27q-7 -68 -13 -135
q-17 -161 -30 -323q-3 -44 -3 -88q1 -56 -5 -111q-10 -75 -28 -150q-9 -37 -17 -75q0 -2 -1 -4q-5 -21 -2 -39q32 -98 110 -174q7 2 15 4q16 2 27 10q22 19 38 42t15 55q-1 28 -2 57q-2 59 -6 117q-29 336 25 667q30 145 124 256q226 52 452 55q18 56 -19 92q-37 35 -77 72
q-18 16 -37 34z" />
    <glyph glyph-name="U" unicode="U" horiz-adv-x="1260" 
d="M1100 939v0v-47h-3t-5 1q4 22 8 46q32 110 32 226q-23 -206 -106 -394q-128 -269 -343 -476q-80 -82 -186 -122q-38 -17 -77 -13q-114 19 -181 114q-73 117 -57 257q23 255 182 452q38 49 79 100q19 24 39 49l-12 60q-13 70 -27 140q-9 45 -30.5 83t-64.5 62
q-54 -6 -101.5 -50t-56.5 -99q-3 -29 -6 -59q-3 -55 -14 -109q-27 -113 -57 -226q-16 -56 -30 -112q-3 -11 -5 -21q-38 -129 -50 -263q-13 -150 45 -284q42 -86 106 -152.5t139 -118.5q191 -13 367 31q53 14 102 40q21 10 42 19q63 21 110 70q5 5 14 7q4 1 8 3q9 17 19 33
q21 36 39 73q57 122 98 251q30 92 67 183q26 71 31 145q3 33 8 65q22 120 14 244q-10 123 -81 222q-25 38 -70 42l1 2v-5q1 -6 3 -9q57 -74 59 -166q7 -136 -31 -266q-3 -10 -11 -19q-4 -4 -7 -9zM1080 834v0q0 1 -1 2v2q1 -2 1 -4h-0.5t-1 -0.5t-1 -0.5h-0.5v0zM1087 1413
v0l-0.5 -0.5l-0.5 -0.5v-0.5v-0.5v0h-0.5h-0.5v0v0z" />
    <glyph glyph-name="V" unicode="V" horiz-adv-x="1582" 
d="M45 1280v0q8 5 17 9v0.5v0.5v0.5v1v0.5v-3l-18 -8q-14 -23 -29 -46v1v-50q4 -10 9 -21q12 -28 25 -59q4 -8 7 -15q6 -17 14 -32q7 -14 15 -27q17 -26 25 -54q9 -47 15 -94q6 -51 18 -102q3 -15 7 -29q25 -124 70 -240q31 -73 64 -144q56 -122 104 -248q21 -54 73 -83
t106 -20l2 4q16 21 31 40q1 3 1 5q1 4 1 7q4 117 44 227q91 238 205 465q4 6 7 12q42 85 91.5 165.5t120.5 146.5l6 6l4 4q85 93 178 177t208 141q9 5 18 12q5 4 10 7q-8 17 -13 27q8 7 16 13q16 13 30 27q7 6 17 8q9 2 16 7t7 18q-17 -1 -33 -1q-36 -2 -70 -3
q-139 -5 -267 -61l-34 -16q-38 -20 -77 -31q-89 -26 -168 -71q-13 -7 -27 -14q-47 -22 -70 -71q-18 -40 -37 -79q-23 -48 -44 -96q-43 -103 -79 -208q-27 -80 -51 -161q-10 -35 -21 -70q-4 -13 -8 -27l-22 -70l-20 -68l-28 -94l-22 -68q-5 -16 -10 -31h-5q-3 -1 -6 -1
q-4 6 -7 13q-9 13 -15 27q-11 23 -22 47q-32 66 -59 135q-1 4 -3 8q-45 113 -75 231q-34 135 17 266q12 27 29 54q8 13 15 27q-36 92 -97 164q-22 28 -41 57q-50 7 -86 12l-22 -10q-24 -10 -47 -21q-8 -4 -12.5 -10t2.5 -16zM15 1236v0v-0.5v-0.5h0.5t0.5 -1v0.5t-0.5 0.5
t-0.5 0.5v0.5v0z" />
    <glyph glyph-name="W" unicode="W" horiz-adv-x="1764" 
d="M1749 1514v0q-14 -1 -27 -1q-26 0 -47 -3q-19 -4 -38 -10q-24 -8 -48 -12q-106 -13 -197 -65q-8 -4 -15 -8q-77 -40 -150.5 -84.5t-136.5 -105.5l-8 -8q-14 -14 -30 -26q-67 -44 -85 -123q-33 -137 -83.5 -268.5t-105.5 -260.5l-14 -34q-4 -9 -14 -20q-5 -6 -13 -15
q-1 6 -2 13q-30 238 -90 449q-137 38 -171 -93q-23 -97 -48 -194q-20 -75 -42 -150q-3 -10 -6 -19q-2 -5 -6 -9q-2 -3 -4 -5q-34 45 -40 114q-4 41 -10 82q-18 108 -11 219q4 46 6 92q2 61 10 121q9 89 -43.5 158.5t-146.5 85.5q-8 -7 -18 -14q-23 -17 -46 -38
q-49 -55 -53 -126q-1 -14 4.5 -28.5t13.5 -29.5q6 -12 11 -23q7 -16 16 -32q15 -27 24 -56q37 -137 69 -276q18 -80 35 -160q7 -34 14 -67q5 -22 10 -43q28 -105 29 -214q0 -38 19 -70q33 -54 77 -100q33 -39 86 -50l10 14q9 12 17 24q-4 30 -7 56q23 63 29 127
q19 194 74 380l12 48q3 12 9 22l4 10h5h5q4 -13 8 -27q11 -30 17 -60q25 -149 22 -300q1 -47 2 -95q-2 -52 23 -92q39 -52 84 -100l3 -3q7 -6 19 -9q6 -1 12 -3q23 27 45 53q10 100 32 194q44 185 133 352q55 108 120 210q61 91 125 179q29 40 57 80q74 105 174 186
q50 42 100 86q32 29 65 57q12 10 25 18q9 5 17 11q10 7 20 13q20 12 37.5 28.5t26.5 47.5z" />
    <glyph glyph-name="X" unicode="X" horiz-adv-x="1460" 
d="M52 -36v0q0 2 0.5 3t0.5 1.5v0v-2.5v2.5t0 -0.5v-4l12 22q14 24 30 46q62 82 126 163q21 28 42 55q7 8 13 17l46 58q40 48 81 97q17 21 35 42q5 -5 9 -8q7 -5 10 -10q112 -155 247 -290q66 -65 144 -116q42 -27 90.5 -32.5t97.5 -4.5h11q9 0 19 5q5 2 9 4l4 14q3 9 6 21
q-47 1 -82.5 21t-66.5 47q-147 123 -256 281q-66 101 -106 217l25 25q25 27 52 49q107 86 219 163.5t236 138.5q4 3 9 5q6 4 13 7q21 9 42 19q49 25 101 39q95 22 122 112q18 55 36 109q8 23 16 47q-19 51 -36 98q-87 16 -165 -15q-6 -3 -11 -5q-100 -45 -193 -101
q-113 -74 -216 -161q-77 -65 -148 -136l-14 -14q-41 -40 -81 -82l-52 -54q-7 -7 -18 -13q-4 -3 -9 -6q-15 62 -20 158.5t3 150.5v3q1 6 3 11q17 48 2 86.5t-45 72.5q-22 24 -50 48q-13 11 -26 24q-28 -8 -63 -19l-12 -28q-13 -29 -19 -59q-16 -89 -19 -179q-4 -243 90 -471
l-10 -16q-10 -16 -21 -31q-149 -186 -259 -398q-26 -53 -33.5 -109.5t-6.5 -117.5h36z" />
    <glyph glyph-name="Y" unicode="Y" horiz-adv-x="1298" 
d="M516 790v0q-92 106 -159 219t-95 247q-14 13 -27 27q-29 31 -61 56t-75 35q-84 -86 -34 -185q88 -154 184 -303q7 -10 14 -21q62 -106 153 -189q37 -33 34 -83q-1 -38 -1 -75q1 -59 -2 -117q-5 -76 -14 -158q-3 -38 -7 -79q16 -40 47 -87.5t61 -77.5q10 3 22 5l35 7l4 20
q6 21 7 44q6 253 10 507q-1 73 51 123q22 22 43 45q17 18 35 36q29 29 58 59q145 144 291 287q64 62 127 119q28 25 54 49q3 29 6 54q3 32 6 60q-57 23 -112 20.5t-109 -13.5q-31 -6 -61 -10q-15 -17 -34 -30q-71 -57 -118 -136q-33 -49 -67 -96l-98 -130q-41 -55 -82 -109
q-28 -37 -57 -78q-14 -20 -29 -42z" />
    <glyph glyph-name="Z" unicode="Z" horiz-adv-x="1339" 
d="M15 425v0q29 -108 109 -187q29 -32 72 -30q71 3 134 -29q51 -26 103 -53q34 -18 69 -35l38 -20q47 -27 97 -48t106 -24q129 -7 250 37q45 19 80 53q41 39 76 83q3 4 7 8q29 33 51 70q69 130 90 275q27 150 -72 267q-25 34 -76 45q3 -13 6 -24q5 -22 10 -40
q45 -158 -60 -282q-60 -74 -134 -131t-167 -88q-42 -16 -84 -5q-10 3 -21 6q-36 13 -73 16q-97 7 -183 46q-60 25 -123 39v8q0 5 1 7q9 12 19 23q153 177 284 371q5 7 10 15q31 44 60 88q78 123 175 233q46 51 87 106q18 25 37 49q-4 97 -80 154q-57 51 -119 -4
q-20 -17 -41 -34q-65 -56 -135 -104q-136 -95 -299 -127q-47 -9 -85.5 -32.5t-74.5 -52.5q-9 -9 -15 -25q-3 -8 -7 -15q13 -11 25 -20q27 -18 45 -39q28 -33 62.5 -43.5t74.5 -9.5q22 0 44 2q27 1 53 1q48 -2 79 37q37 44 100 80q-3 -9 -5 -14q-2 -10 -5 -14
q-16 -25 -33 -51q-78 -132 -181 -246q-57 -60 -121 -109.5t-142 -79.5q-13 -5 -24 -12q-11 -6 -22 -10q-56 -23 -72 -81z" />
    <glyph glyph-name="bracketleft" unicode="[" horiz-adv-x="635" 
d="M575 1402v0q-1 -1 -1 -1.5t-0.5 -1t0 0t0.5 1.5l-1 -1h1q0 1 2 1q9 11 20 15q8 3 16 8.5t13 19.5q-36 17 -147 -0.5t-220.5 -51.5t-139.5 -66q4 -5 9 -10l14 -14q-20 -16 -26 -40.5t-7 -53.5q-8 -124 -17 -247q-12 -168 -23 -336l-4 -72q-19 -212 -5 -423q0 -7 -2 -15
l-2 -8q-18 -12 -40 -28q-1 -1 -2 -1q11 -8 18 -13q6 -5 12 -9q-14 -16 -32 -35l-1 -1q15 -14 22 -22q-2 -6 -4 -13q-2 -8 -7 -22h23q22 -2 42 1q26 4 53 9q23 6 46 9l92 14q75 10 150 23q71 7 140 49l2 16q3 15 5 29q-66 39 -136 37q-101 -7 -202 -15q-41 -4 -83 -8
q-19 -1 -40 -3q24 457 47 903h-3h-3q-3 -57 -5 -113q-6 149 11 302q35 11 69 21q75 23 149 47q171 58 208 115q-2 1 -4 1q-3 1 -7 2zM113 883v0q-10 -156 -19 -312q-10 -157 -19 -313q-2 314 38 625zM119 1022v0q3 82 7 163h1h2q-3 -81 -7 -163h-2h-1zM125 675v0q3 50 5 101
v0h4q-2 -50 -5 -101h-2h-2zM116 492v0q1 27 3 51h4v-9q-1 -19 -3 -38v-1t-1 -1q-1 -1 -3 -2zM107 207v0q-1 -20 -1 -39q-1 -1 -3 -1l2 40h2zM76 169v0q0 -12 -1 -24h-1v0q0 12 1 24h1v0zM34 248v0v0v-0.5v-0.5q0 51 1 101q-3 -1 -5 -1q2 -49 4 -99zM67 896v0q1 -1 3 -1h3
q0 17 1 33h-1h-1q-1 -8 -3 -16zM34 247v0v0.5v0.5v0v-0.5v-1v-1v-0.5v2z" />
    <glyph glyph-name="backslash" unicode="\" horiz-adv-x="585" 
d="M478 139v0v0q-6 17 -12 35q-9 21 -16 42q-7 17 -13 35q-4 5 -8 9q-9 9 -13 19q-44 125 -87 251q-13 35 -24 69q-7 23 -13 47q-18 31 -37 62q5 1 10 3l8 2q9 -34 18 -67q7 -24 13 -47q2 -3 5 -6q6 -6 9 -12l96 -270q11 -30 22 -61q15 -38 29 -76q6 -19 13 -36l82 -142
q7 1 15 2q-4 28 -5 56q-2 62 -19 120q-117 330 -239 658q-33 91 -66 181q-1 3 -3 6q-3 10 -7 19t-13 14q-20 13 -26 28.5t-6 31.5q-1 2 -1 3l1 -1l-10 22q-13 22 -21 46q-22 64 -41 128l-36 110q-4 11 -13 19q-4 5 -7 10q-15 -28 -7 -51q34 -128 72 -256q25 -85 53 -170
q12 -37 23 -74q1 -1 1.5 -2t1 -1.5t0.5 0t-1 1.5v-1.5t0 0.5q0 2 -1 4q-7 15 -15 30q-18 33 -30 67q-38 110 -74 219l-46 136q-3 7 -11 15q-3 4 -8 10q-3 -5 -6 -9q-5 -7 -5 -9q8 -29 16 -56q19 -80 45 -158q40 -110 82 -220q26 -69 51 -138q48 -130 95 -259q31 -87 62 -173
q8 -21 15 -40q25 -73 55 -145q12 -25 32 -49q9 -11 17 -23h-1q0 21 -1 42zM232 819v0q13 -24 27 -47q-7 -2 -14 -3q-6 22 -10 43q-1 4 -2 7q-2 4 -3 8z" />
    <glyph glyph-name="bracketright" unicode="]" horiz-adv-x="635" 
d="M60 1402q-3 -1 -7 -2q-1 0 -3 -1q37 -57 208 -115q73 -24 149 -47q33 -10 69 -21q17 -153 11 -302q-3 56 -5 113h-3h-4q24 -446 48 -903q-21 2 -40 3q-42 4 -83 8q-102 8 -202 15q-70 2 -136 -37q2 -14 5 -29l2 -16q69 -42 140 -49q75 -13 150 -23l92 -14q23 -3 46 -9
q26 -5 53 -9q19 -3 42 -1h22q-4 14 -6 22q-3 7 -5 13l22 22v1q-18 19 -32 35q6 4 12 9q7 5 18 13q-1 0 -2 1q-23 16 -41 28l-2 8q-2 8 -1 15q14 211 -6 423q-1 36 -4 72l-22 336q-10 123 -18 247q-1 29 -7 53.5t-25 40.5q8 8 13 14q6 5 9 10q-30 32 -139 66t-220 51.5
t-148 0.5q6 -14 13.5 -19.5t15.5 -8.5q12 -4 21 -15q1 0 2 -1h1l-2 1l1.5 -1.5t0 0l-1 1l-1.5 1.5v0zM523 883q39 -311 38 -625q-10 156 -19 313q-9 156 -19 312v0zM517 1022h-2h-1q-4 82 -8 163h3h1q3 -81 7 -163v0zM510 675h-1h-3q-2 51 -4 101h4v0q2 -51 4 -101v0z
M519 492l-2 2q-1 0 -1.5 1l-0.5 1l-2 38q0 5 -1 9h5q1 -24 2 -51v0zM528 207h3q1 -20 1 -40q-1 0 -2 1q-1 19 -2 39v0zM559 169h1h1q0 -12 1 -24h-1h-1q0 12 -1 24v0zM602 248q1 50 4 99q-2 0 -5 1q1 -50 1 -101v0.5v0.5v0v0zM568 896l-2 16l-2 16h-1h-2q1 -16 2 -33h3
q2 0 2 1v0zM602 247v-2v0.5v1v1v0.5v0v-0.5v-0.5v0z" />
    <glyph glyph-name="asciicircum" unicode="^" horiz-adv-x="548" 
d="M18 996v0v0v-11v0v0v0q-5 -33 -8 -51q25 -36 44 -64q2 -4 4 -7q69 26 104 93q4 6 8 13q12 21 25 41l36 56q32 49 63 98q9 15 16 32q3 8 7 16q-9 16 -18 31q-13 24 -29 51q-57 -57 -108 -106h1q-9 -10 -18 -19l-18 -20v0l0.5 0.5l0.5 0.5v0q-26 -33 -51 -65h3h-0.5
t-1 -0.5l-0.5 -0.5v0zM30 937v0l-2 2h1v-1v0l0.5 -0.5zM201 1293v0q1 -5 2 -8q0 -6 2 -9q9 -15 19 -31q40 -67 81 -133q4 -6 8 -13q65 -104 133 -206q19 -26 45 -49q7 -7 14 -13q6 -6 16 -9l8 -4q1 1 3 2q1 1 2 1q2 1 4 3q-5 11 -12 23q-15 25 -23 51q-35 114 -100 220
l-22 40q-37 65 -80 127q-2 4 -5 8q-8 14 -22 24.5t-41 9.5q34 -69 64 -132q-6 -1 -11 -3q-5 8 -11 16q-11 18 -24 35q-5 6 -8 13q-6 11 -15 21t-27 16zM163 1188v0v0h-0.5h-0.5h0.5h0.5v0zM18 985v0v0v11v0v0v0v-11z" />
    <glyph glyph-name="underscore" unicode="_" horiz-adv-x="1047" 
d="M952 -10v0q-28 5 -55 11q-58 13 -114 17q-135 7 -270 0q-179 -12 -356 -29q-48 -4 -94 -8q-14 -2 -31 -9q-10 -3 -22 -7q13 -8 23 -14q15 -9 28 -16q-12 -8 -25 -17q-11 -8 -26 -19q15 -5 27 -11q23 -12 41 -14q129 -5 259 -1q101 5 201 15q50 4 99 8q24 2 48 3
q37 2 76 6q39 5 77 12q79 18 162 16q12 1 25 8q6 3 12 5q-1 4 -1 8q-32 5 -67 10q-12 2 -25 4q0 1 1 3q1 3 3 7t4 12z" />
    <glyph glyph-name="grave" unicode="`" horiz-adv-x="235" 
d="M119 1260q-3 6 -6 11v0.5t0.5 0.5t0.5 0.5v0.5q-4 0 -7 -1h-1h-1v0v0v0v0v7v-1q-20 22 -39 42h-38q-7 -9 -14 -19q-2 -2 -4 -5q6 -7 11 -16l24 -36q7 -10 13 -20q23 -33 45 -65q46 -70 117 -104l-18 48v0v-1l8 -4q6 -4 15 -8v2q-7 37 -26 64q-19 26 -39 52q-8 12 -17 23
v0.5t-0.5 0.5t-0.5 0.5v0.5l0.5 -0.5l0.5 -0.5h0.5h0.5q-5 5 -12 11l0.5 0.5l0.5 0.5v0v0v-1q-8 8 -14 17q0 1 0 0.5v-0.5v0v0zM113 1271q-4 4 -8 7v0v0v0.5v0.5v-6v-1v0v0v0v0q5 1 9 1v-0.5v-0.5h-0.5t-0.5 -0.5v-0.5v0z" />
    <glyph glyph-name="a" unicode="a" horiz-adv-x="939" 
d="M833 949v0q-3 -1 -6 -1q-4 -1 -7 -2v1v0q6 1 13 2q38 -21 88 -49q2 -1 3 -2q-2 10 -3 17q-1 9 -4 13q-41 55 -106 76q-75 17 -149 1q-151 -33 -272 -128q-103 -77 -196 -167q-89 -85 -134 -188.5t-34 -229.5q20 -140 145 -198q64 -32 128.5 -24t123.5 44q72 46 139 102
q31 25 62 49q12 9 24 17q6 4 11 8q3 -1 5 -3q3 -1 6 -3q-13 -61 -24 -119q9 -30 17 -56q4 -15 8 -28l37 -37q26 -26 51 -52q24 15 36 22q11 37 23 72l16 52l-6 58q-8 67 -15 134q-8 60 1.5 115.5t49.5 103.5q23 31 5 68q-20 45 -57 64.5t-79 30.5q-43 -17 -62.5 -51
t-28.5 -69q-31 -88 -93 -152q-52 -58 -112.5 -105t-135.5 -73q-30 -10 -60 -15q-13 -3 -25 -6q-24 32 -28 61.5t7 70.5q21 79 64 145.5t97 126.5q94 103 208 183q97 76 218 99q18 4 35 14z" />
    <glyph glyph-name="b" unicode="b" horiz-adv-x="964" 
d="M117 1426v0q5 -23 11 -45q14 -48 19 -94q10 -122 6 -245q-5 -115 -18 -229q-2 -27 -5 -55l-4 -40q-4 -73 -19 -143q-19 -77 -46 -153q-12 -35 -24 -71q-1 -3 -2 -7q-9 -28 -14.5 -57t2.5 -58q18 -52 44 -101q11 -19 29 -32q26 -21 54 -42q12 -9 24 -19l12 6q9 4 19 9
q1 14 2 27q1 29 6 55q2 14 5 28q8 61 28 118q37 98 88 190q64 112 162.5 162.5t224.5 46.5q59 -2 77 -60q30 -83 9.5 -154.5t-73.5 -133.5q-127 -148 -323 -173q-56 -10 -86 36q-5 8 -13 16l-8 8l-24 -12q-3 -2 -5 -3q-2 -56 22 -100t67 -62q188 -68 345 52q91 70 163 160
q76 90 89.5 194.5t-58.5 210.5q-77 120 -218 132q-226 9 -405 -131q-9 -8 -21 -15q-6 -3 -13 -8q-2 6 -3 11q-2 8 -2 13q-1 28 1 55q21 242 84 477q15 57 -7 108q-19 46 -47 87q-25 34 -67.5 45t-87.5 -4z" />
    <glyph glyph-name="c" unicode="c" horiz-adv-x="914" 
d="M826 951v0q-27 37 -48.5 50.5t-60.5 17.5q-142 18 -274 -39q-96 -46 -163 -120.5t-120 -162.5q-10 -14 -21 -28q-19 -23 -31 -48q-36 -89 -62 -181q-31 -128 38.5 -242.5t180.5 -162.5q92 -36 192 -45q126 -12 234.5 45.5t165.5 170.5q15 31 29 62q6 15 13 30
q-33 -16 -58 -36q-9 -7 -18 -13q-100 -64 -215 -95q-117 -32 -233 0q-85 26 -116 91.5t-19 142.5q40 238 204 419q96 117 246 143q41 4 87 2q23 -1 49 -1z" />
    <glyph glyph-name="d" unicode="d" horiz-adv-x="992" 
d="M770 635v0h-8q-6 -2 -10 -1q-15 5 -30 12q-154 74 -319 26q-102 -31 -184 -92t-137 -159q-63 -121 -8 -251q22 -51 58.5 -85.5t81.5 -59.5q32 -20 67 -29q126 -22 225 34t159 162q8 15 12 32l4 14l-6 3q-1 1 -2 1.5t-1 -0.5q-2 -1 -5 -1q-8 -4 -15 -8q-137 -86 -295 -109
q-99 -16 -152 71q-47 85 2 170q88 154 248 216q114 45 210 -32q63 -44 71 -129q1 -104 -18 -206q-3 -21 -2 -39.5t14 -33.5q5 -7 11 -14q25 -32 56.5 -56t79.5 -24q3 9 7 19q8 23 14 48q15 84 10 169q-1 31 -1 63q5 293 16 586q5 80 21 158q13 64 29 128q7 27 14 55
q-20 51 -48.5 94.5t-75.5 72.5l-35 -20q-24 -53 -27.5 -81.5t4.5 -70.5q15 -77 13 -154q-12 -168 -29 -336l-10 -108q-2 -10 -5 -22q-2 -6 -4 -13z" />
    <glyph glyph-name="e" unicode="e" horiz-adv-x="910" 
d="M848 270v0q-4 18 -11 43q-12 -9 -23 -18q-22 -18 -43 -33q-19 -14 -37 -28q-46 -37 -97 -63q-147 -69 -285 23q-53 37 -87.5 87.5t-58.5 108.5q-32 72 6 152h17h38q19 0 37 -1q37 -3 74 -1q157 15 309 59q94 20 170 88q11 28 22 58q8 22 16 43q-11 77 -29.5 117.5
t-65.5 90.5q-131 52 -257 4q-215 -74 -377 -235q-99 -107 -125 -262t51 -289q57 -99 159 -157q138 -70 291 -50q216 18 291 221q4 11 9 25q3 7 6 17zM240 601v0q39 78 89 121q3 4 7 7q110 109 257 158q61 27 120 1q48 -97 -43 -135q-61 -31 -125 -54q-111 -41 -223 -79
q-22 -7 -49 -12q-15 -3 -33 -7z" />
    <glyph glyph-name="f" unicode="f" horiz-adv-x="738" 
d="M80 -134v0v0.5v0.5v0q26 -44 53 -89q31 22 29 56q2 141 6 282q1 28 5 56q3 24 4 48q1 32 1 64q-1 14 -1 29q9 4 16 7q16 8 31 14q91 32 183 62q25 9 52 14q74 10 134 55q18 14 2 29q1 0 3 1l4 2q1 1 2 1.5t3 2.5l6 6q-163 17 -315 -24q-50 -10 -101 -19l4 28q4 29 9 58
q2 9 3 17q7 70 44 128q88 108 223 144q109 37 231 37q1 3 4 6q3 4 5.5 7.5t1.5 7.5q0 4 -1 8q-2 32 -16 58q-31 52 -98 76q-15 -5 -32 -11q-39 -12 -81 -24q-11 -4 -23 -7q-55 -17 -112 -27q-52 -7 -105 -12t-106 -12l-10 -2q-21 -2 -41.5 -9t-34.5 -28q-6 -1 -14 -2
q-4 -1 -9 -1q-1 -25 11 -39t28 -24q15 -11 26 -24q33 -8 63 -15q-79 -140 -111 -289q-14 -85 -19 -171q0 -5 -1 -10q-2 -29 -4 -57q-17 -125 2 -249q6 -34 9 -69q2 -25 5 -49q4 -21 11 -43q3 -11 6 -23q5 8 9 14q3 6 6 10zM69 518v0v-4v4v0q0 1 1 2v0l-0.5 -0.5t-0.5 -1.5
l1.5 1.5t0 0t-1 -0.5t-0.5 -1zM101 624v0l-0.5 0.5t-0.5 1.5v0v-1q1 0 1 -1q-8 -32 -17 -63q-1 0 -2 1l-6 2l12 30q7 15 13 30zM545 455v0q8 2 18 3q-1 -1 -1 -2t-1 -1q-7 -2 -15 -3v0.5t-1 0.5v2zM673 912v0l2 -1l-2 -1v2z" />
    <glyph glyph-name="g" unicode="g" horiz-adv-x="902" 
d="M576 -209v0v0h-0.5h-0.5v0v0q11 8 22 15q25 16 48 34q154 116 189 323q19 141 37 286q8 65 16 133q-2 3 -4 7q-5 14 -16 28q-48 51 -97 101q-19 19 -38 39q-13 -2 -27 -4h-7q-4 -9 -8 -16q-10 -16 -15 -32q-13 -55 -24 -112q-1 -6 -2 -13q-12 -72 -70 -98
q-61 -26 -123 -42q-18 -5 -37 -1.5t-36 23.5q1 7 3 14q3 17 8 33q38 94 100 168q7 9 14 17q25 39 64 61q29 15 58 31q44 24 89 45q35 14 73 14q66 -1 89 76q-10 28 -19 53q-1 2 -2 5q-52 47 -114 40q-18 -3 -36 -4q-19 -1 -38 -4q-3 0 -5 -1q-26 -2 -46 -16
q-76 -66 -147 -138q-87 -97 -152 -215l-4 -6q-31 -58 -48 -125q0 -3 -1 -6q-14 -55 19 -103q47 -67 133.5 -91.5t159.5 22.5q39 28 82 53q20 12 42 25q2 -15 4 -29q4 -28 5 -54q5 -176 -107 -298q-131 -152 -314 -141q-47 6 -93 21q-21 6 -41 11q-71 17 -125 72q-5 5 -13 7
q-3 1 -6 3q26 -52 60 -93q58 -75 141 -106q139 -50 283 -19q9 2 19 5q14 5 28.5 7t29.5 -5z" />
    <glyph glyph-name="h" unicode="h" horiz-adv-x="815" 
d="M636 102v0q25 -50 57.5 -77.5t85.5 -20.5q2 3 5 6q5 7 10 13q5 7 9 14q2 3 3 6l-4 48q-16 147 -20 293t28 293q-4 5 -8 12q-8 14 -19 26q-14 12 -29 23q-10 7 -20 15q-30 26 -54 29t-59 -17q-67 -36 -132 -76q-71 -45 -142 -91q-32 -21 -64 -41q-8 -6 -17 -11l-10 -6
q0 23 -1 46q-1 47 1 92q1 28 2 55q3 153 31 303q1 6 2 11q14 57 19.5 113.5t-11.5 111.5q-21 37 -41 73q-15 27 -31 54l-10 6q-17 11 -34.5 17.5t-39.5 1.5q-91 -79 -57 -184q3 -10 8 -19q8 -15 10 -29q3 -42 7 -83q14 -133 16 -266q-2 -113 -17 -225q-4 -41 -8 -81
q-6 -111 -50 -214q-12 -26 -25 -54l-12 -26q33 -156 179 -241l10 12q17 22 28 38q-4 53 13 131.5t41 124.5q111 188 285 320q17 15 39 26.5t54 12.5q9 -81 5 -161q-2 -63 2 -125q5 -72 -6 -142t-29 -137z" />
    <glyph glyph-name="i" unicode="i" horiz-adv-x="327" 
d="M193 5v0q0 30 1 60l2 146q1 7 1 15q0 45 5 90q10 80 22 160q7 50 14 99q5 53 44 93q-25 104 -97 192q-7 -4 -13 -7q-16 -6 -23 -16q-1 -1 -2 -3q-14 -21 -24 -44t-10 -50q4 -139 -21 -276q-9 -54 -22 -108l-46 -190q-9 -44 20 -75q35 -37 73 -70q15 -14 29 -28h8
q6 -1 11 0q5 2 14 6q6 2 14 6zM230 927v0q54 24 68 81t-22 100q-5 6 -12 10q-22 11 -55.5 7.5t-53.5 -19.5q-21 -19 -30 -48.5t7 -55.5q9 -13 14 -27q2 -6 5 -11q7 -3 15 -5q15 -5 28 -11q14 -7 26 -15z" />
    <glyph glyph-name="j" unicode="j" horiz-adv-x="607" 
d="M366 783v0q2 -8 5 -15q4 -13 7 -24q16 -57 24 -116t-2 -119q-2 -8 -4 -17q-12 -73 -27 -146q-22 -100 -91 -173q-98 -106 -243 -126q-6 -1 -13 -4q-3 -1 -7 -3q25 -24 63 -37.5t75 -10.5q149 14 245 127q74 90 96 206q30 159 90 309q8 25 4 52q-11 67 -56 116
q-49 53 -130 61q-5 -11 -10 -21q-14 -32 -26 -59zM493 1110v0q-124 4 -141 -130q29 -18 67 -40l-10 -12q13 -1 27 -3q31 -5 60 0q23 5 36 24t20 41q14 35 1 61t-60 59z" />
    <glyph glyph-name="k" unicode="k" horiz-adv-x="947" 
d="M915 -40v0q17 68 -2 121.5t-64 94.5q-45 40 -101 69q-12 7 -25 14q-74 43 -152 81q-64 32 -129 62q-40 19 -80 39q-7 3 -14 9q-3 4 -8 7q7 7 13 12q12 11 23 19q128 90 278 129q100 28 168 100q7 31 -3 55.5t-25 45.5q-2 2 -3 5q-11 2 -21 6q-22 7 -44 10q-11 1 -22 3
q-40 10 -74 1q-63 -22 -121 -56t-103 -88q-67 -78 -156 -144q-11 -9 -23 -18q-1 10 -2 18q-3 14 -2 25q4 42 7 85q13 152 30 303q6 49 18 97q9 39 16 78q10 56 9 112t-30 110q-20 35 -36 72q-6 15 -13 30l-14 30q-3 6 -6 13q-22 4 -41 7q-12 2 -23 4q-48 -27 -75 -76.5
t-14 -95.5q15 -47 18 -94q2 -18 4 -37q6 -40 8 -81q2 -20 4 -39q6 -51 4 -100q-7 -94 -15 -188q-10 -100 -16 -201q-2 -29 -4 -57q-4 -137 -28 -271q-11 -45 1 -85q35 -85 81 -165q11 -16 27 -26q6 -5 10 -8q27 3 39.5 16.5t17.5 30.5q15 49 19 100q3 56 2 112v56q0 17 2 37
q0 10 1 22q13 -2 24 -4q24 -3 44 -7q111 -34 194 -114q14 -13 29 -26q52 -44 101 -93.5t86 -112.5q13 -7 27 -14q40 -24 84.5 -39t99.5 -1z" />
    <glyph glyph-name="l" unicode="l" horiz-adv-x="326" 
d="M48 1456v0q2 -12 4 -25q4 -28 10 -57q43 -180 36 -365q-2 -22 -3 -44q-4 -84 -10 -168l-2 -38q-12 -200 -26 -399q-4 -48 -15 -95q-8 -39 -19 -77q-4 -17 -8 -33q57 -142 178 -226q13 6 20 10.5t15 13.5t23 29q12 76 -3 151q-7 39 -9 79l-4 62q-4 39 -5 78q0 24 3 49
q2 16 3 31q3 59 5 118q5 125 15 250v6q5 62 14.5 124t33.5 121q6 13 6.5 29t-4.5 30q-27 78 -59 154q-8 19 -15 38q-5 11 -11 22q-8 16 -14 33q-22 63 -71 108q-38 45 -88 -9z" />
    <glyph glyph-name="m" unicode="m" horiz-adv-x="1133" 
d="M627 816v0q-13 21 -26 41q-27 46 -56 87q-35 44 -95 37q-82 -10 -139 -69q-27 -26 -54 -47q-11 -10 -21 -18q-4 9 -9 21q-9 30 -31 54q-46 43 -97 80q-21 15 -41 30q-5 -1 -9 -3q-8 -2 -13 -5q-5 -5 -8 -11q-1 -3 -3 -5q23 -78 37.5 -157t7.5 -161q-1 -12 0 -24v-17
q-2 -31 -2 -62q1 -155 -31 -308q-22 -99 23 -177t138 -127q5 4 9 8q14 15 32 32q-5 31 -9 62q-10 68 -21 136q-23 124 -8 249q38 231 225 374q13 11 30.5 18t41.5 1q23 -145 4.5 -287.5t-52.5 -286.5q7 -14 15 -29q19 -34 41 -69q11 -18 16 -40q4 -17 12 -34t25 -29
q3 9 7 16q6 16 9 30q4 25 7 50q16 104 27 208q10 149 77 283q43 89 117 153q26 22 55 39.5t66 20.5q24 -61 16 -122q-5 -98 -14 -196q-4 -50 -7 -99q-8 -138 -47 -271q-11 -30 -13.5 -62t12.5 -65q18 -15 34 -33q21 -23 46 -41.5t60 -23.5q7 19 13 37q15 41 27 81
q16 48 9 100q-10 58 -7 117q8 169 39 335q8 47 15 95q11 68 -13 130q-14 36 -29 73q-6 17 -13 34q-33 38 -74.5 42.5t-86.5 -12.5q-91 -30 -163 -93q-35 -32 -70 -63q-16 -13 -31 -27z" />
    <glyph glyph-name="n" unicode="n" horiz-adv-x="921" 
d="M74 1037v0q3 -10 6 -19q6 -17 11 -32l10 -28q13 -32 18 -65q8 -77 6 -155q-1 -123 -6 -247q-1 -24 -5 -48l-4 -24q-5 -43 -16 -85t-39 -78q-40 -53 -7 -107q44 -67 96 -127q11 -14 26.5 -23t36.5 -3l6 64l14 142q16 150 98 275q50 71 111 135q14 15 28 31q90 105 216 163
q21 9 44 20q12 5 25 11q0 -13 1 -23q2 -20 1 -36q-2 -31 -3 -63q-3 -85 -15 -169q-17 -101 -40 -202q-11 -48 -21 -96l-2 -8q-6 -24 -6 -48q14 -136 134 -198q43 23 55 44t9 63q-2 67 4 134q4 42 11 84q8 56 12 111q11 204 17 408q-1 33 -13 65q-29 90 -123 81
q-41 -4 -80 -18q-74 -28 -138.5 -72.5t-124.5 -96.5q-12 -10 -24 -21q-46 -45 -116 -82q6 47 13 92q7 53 15 109q-53 71 -129 119q-33 23 -63 48q-13 -6 -24 -12t-25 -13z" />
    <glyph glyph-name="o" unicode="o" horiz-adv-x="931" 
d="M905 525v0q-1 9 -3 18q-3 19 -3 38q17 144 -58 269q-54 83 -143 126q-63 29 -128.5 32t-130.5 -9q-132 -24 -223.5 -101.5t-154.5 -190.5q-23 -37 -30 -80q-16 -113 -6.5 -223.5t67.5 -214.5q2 -2 3 -4q44 -86 113 -155q67 -60 146 -62t148 51q55 13 105.5 33t93.5 59
q92 83 147.5 183.5t56.5 230.5zM448 90v0q-24 9 -47 16q-49 15 -91 35q-40 20 -66 54.5t-45 72.5q-63 120 -44.5 232.5t87.5 219.5q71 108 194 155q115 41 225 -12q46 -19 69 -65q79 -167 24 -350q-31 -96 -89 -169t-129 -137q-25 -22 -58 -37q-15 -7 -30 -15z" />
    <glyph glyph-name="p" unicode="p" horiz-adv-x="780" 
d="M181 -102v0v0q3 14 7 28q10 30 14 61q11 101 20 202q6 61 11 123q6 50 12 103q3 24 6 49q44 -7 81 -13q13 -3 27 -5q24 -6 48 2q51 13 101 27q5 1 9 3v0q10 2 17 6q17 11 34 21q86 47 153 118q20 21 28 47q12 53 14 105t-22 106q-45 107 -155 128q-126 24 -246 -14
q-120 -45 -238 -97q-6 -2 -13 -5q-24 -11 -48 -29q-12 -8 -26 -17q51 -45 106 -94v-19q3 -28 1 -61q-5 -75 -11 -151q-4 -37 -7 -74q-8 -107 -16 -215l-8 -92v0q2 -8 5 -16q6 -19 6 -37q-8 -87 24 -169q10 -6 18 -11t11 -7q12 -1 19 -2q11 -1 18 -1zM527 641v0
q-14 -5 -28 -9q-181 -148 -244 -144q1 8 3 15q2 15 8 28q50 96 5 194q-6 15 -10 31q-1 4 -1 9v5q37 55 100 75q12 4 23 8q65 28 138 23q91 -10 77 -98q-5 -30 -20 -56q-16 -26 -35 -50q-8 -10 -16 -21v-2v-8zM80 141v0v0v0q1 -9 1 -17h1h1q-1 9 -3 17zM181 -102v0v0v0v0v0v0
h0.5t1 0.5l0.5 0.5v0zM528 651v0q-2 0 -3 -1q-9 -4 -17 -9v0h20v5v5zM509 642v0q-5 -5 -10 -11q3 4 7 8z" />
    <glyph glyph-name="q" unicode="q" horiz-adv-x="722" 
d="M522 971v0q-11 3 -23 6q-12 2 -22 6t-16 11q-17 20 -35.5 20.5t-37.5 -5.5q-4 -1 -8 -3q-43 -11 -80 -34q-121 -73 -213 -179q-72 -93 -63 -210q0 -11 6 -21q7 -13 15 -26q22 -39 49 -74q28 -31 67 -45q63 -25 130 -7q53 17 106 32l30 8q18 5 38 10q10 2 20 5
q-3 -29 -6 -55q-5 -56 -14 -107q-18 -100 -11 -199t28 -197q2 -8 8 -15q2 -2 3 -4q1 -1 2 -1.5t2 -0.5q1 -1 2 -1q1 6 3 13q1 6 3 12q17 -8 29 -13q0 -1 1 -1q8 13 15 22q7 -3 12 -5l4 -2q2 22 5 44q6 49 11 97q4 38 7 76q6 79 19 157q38 207 85 413q14 66 -10 125
q-21 52 -47 102q-11 22 -21 45q-9 6 -18 13q-11 9 -24 15.5t-31 5.5q-5 -9 -12 -19zM521 952v0q-2 -21 -3 -40q-2 -41 -6 -79q-8 -73 -22 -145q-10 -43 -38 -71.5t-64 -46.5q-36 -19 -75 -33.5t-85 -13.5q-32 17 -40.5 46t-3.5 62q19 137 128 220q62 45 131 79q3 2 6 3
q20 10 45 14q13 2 27 5zM595 1291v0v0h0.5h0.5v0v0h-0.5t-1 0.5t-1 0.5h-0.5z" />
    <glyph glyph-name="r" unicode="r" horiz-adv-x="964" 
d="M324 827v0q0 9 1 16q1 12 0 21v15q3 20 -5 35q-34 48 -71 94q-13 18 -26 35q-46 1 -70 -18t-40 -44q-11 -15 -23 -28q4 -21 8 -41q8 -43 14 -83q17 -90 6 -181q-24 -152 -38 -305q-2 -60 -35 -110q-30 -40 -21 -92q20 -20 40 -42q25 -30 55.5 -56t73.5 -40q24 5 29.5 18
t4.5 29v5q2 43 2 87q0 80 5 159q11 120 26 240l12 104q139 124 312 227q5 -24 9 -48q9 -49 15 -95q11 -99 104 -153q54 -28 105.5 -12t75.5 67q8 20 18 40q10 18 18 37q1 3 3 6q8 19 12.5 39t-3.5 44q-55 -38 -105 -74q-30 -21 -59 -42q-58 37 -62.5 118t46.5 124
q-9 14 -19 29q-10 16 -21 32q-26 15 -50 29q-10 6 -19 11q-72 -24 -132 -61t-116 -79q-39 -29 -80 -57z" />
    <glyph glyph-name="s" unicode="s" horiz-adv-x="818" 
d="M704 610v0q61 72 83 161q16 57 1.5 117.5t-58.5 97.5q-114 85 -249 43q-161 -52 -280 -177q-51 -53 -70 -114.5t-19 -130.5q3 -37 26 -71q22 -32 52 -57q68 -55 150 -88q3 -1 5 -2q92 -41 182 -86q30 -17 36 -45t-14 -56q-17 -20 -39 -33q-51 -32 -105.5 -39.5
t-113.5 -0.5q-81 10 -134 68q-43 46 -62 106q-5 13 -10 24q-2 6 -5 11q-4 -1 -7 -1q-5 1 -7 -1q-7 -7 -12 -15q-39 -93 23 -170q62 -91 169 -119q109 -30 224 -26q63 5 114.5 32t97.5 66q62 54 54 138q-4 74 -66 118q-43 27 -90 47l-4 2q-142 51 -270 131q-47 30 -41 83
q6 48 30 86q83 115 213 175q33 16 68 18.5t68 -18.5q3 -42 -16.5 -81.5t-54.5 -58.5q-44 -20 -38 -66q11 -12 22 -25q7 -8 14 -17l12 -4q28 -13 57.5 -21t63.5 -1z" />
    <glyph glyph-name="t" unicode="t" horiz-adv-x="934" 
d="M891 319v0q-22 -14 -43 -27q-45 -28 -87 -55q-92 -63 -198 -97q-124 -35 -166 92q-23 69 -26 139.5t5 141.5q3 25 9 52q2 12 5 25q145 16 287 31l220 24q11 29 22 56q-87 32 -175 36t-177 -1q-78 -5 -157 -3q4 10 7 20q7 20 13 38q4 11 9 23q10 26 17 54q2 10 1 21.5
t-7 19.5l-16 20q-35 52 -85 87q-11 7 -24.5 10t-25.5 0q-64 -12 -83 -72q35 -116 36 -231q-60 -15 -119 -11q-57 3 -111 -10q-1 -7 -1 -14q-3 -30 -6 -55l13 -13q13 -12 25 -22q32 -25 67.5 -39t78.5 -2q16 4 35 5q10 1 21 2l-4 -80q-3 -89 -9 -175q-11 -89 27 -169
q26 -44 65 -73q12 -10 24 -21q89 -76 205 -60q95 10 165 58t123 124q44 63 40 151z" />
    <glyph glyph-name="u" unicode="u" horiz-adv-x="964" 
d="M860 957v0q-34 1 -57 -14.5t-41 -35.5q-11 -12 -23 -22l-3 -9q0 -3 -0.5 -4.5t-0.5 -3.5q-1 -31 -1 -63q7 -104 -23 -205q-3 -11 -2 -23v-14q-5 -86 -64 -150q-25 -26 -50 -53q-45 -51 -95 -96q-62 -51 -134 -89q-49 -30 -81 20q-28 41 -40 89q-21 95 -33 190q-6 50 6 98
q28 98 66 192q20 46 19 88t-38 80q-9 10 -15 23q-2 4 -5 8q-21 37 -34.5 52.5t-33.5 17t-62 -4.5h-4q-3 0 -6 -1q-90 -13 -89 -102q4 -119 13 -238l4 -64q4 -75 13 -149.5t33 -146.5q9 -29 14 -60q2 -11 4 -21q12 -69 61 -118q64 -65 150 -91q82 -22 153.5 -3.5t124.5 92.5
q36 52 75 103q11 16 23 32q4 4 10 9q3 3 7 6q11 -27 8.5 -51.5t-9.5 -47.5q-1 -5 -2 -11q-15 -56 26 -94q11 -11 21 -23l10 -12q31 -35 76 -41q33 42 29 93q-5 184 21.5 365t67.5 363q-7 15 -14 32q-10 29 -26.5 57.5t-48.5 50.5zM201 467v0v-10h-3q-1 5 -1 10h2h2zM58 989
v0q-2 -1 -4 -1q0 -1 -1 -1q-1 2 -1 4q1 0 2 -1q2 0 4 -1z" />
    <glyph glyph-name="v" unicode="v" horiz-adv-x="1094" 
d="M1079 1087v0q-15 -3 -26 -5q-21 -2 -36 -8q-128 -57 -224 -160q-83 -96 -149 -205q-25 -39 -51 -78q-82 -123 -157 -249l-64 -104q-5 -8 -9 -18q-2 -5 -5 -10l-13 13q-7 7 -8 11q-10 55 -22 110q-23 105 -36 211.5t6 215.5q-46 49 -97 83t-115 47q-18 4 -32 -2t-26 -29
q3 -11 7 -24q8 -30 18 -64q13 -39 26 -77q20 -57 38 -115q21 -73 39 -146q7 -28 14 -55q10 -35 19 -71q27 -98 50 -198q14 -69 69 -111q16 -11 34 -22l18 -12q17 -1 37 -3q13 -1 27 -2q5 7 10 13q12 14 21 30q41 71 81 143q57 104 116 207q50 87 101 173t101 173
q91 160 216 295q7 8 13 23q3 8 9 20z" />
    <glyph glyph-name="w" unicode="w" horiz-adv-x="1115" 
d="M32 959v0q-3 -29 -7 -56q-9 -60 -10 -118q0 -72 6 -144q2 -35 4 -69q10 -150 61 -289q32 -114 103 -209q40 -58 104 -87q58 34 95.5 85t68.5 108q11 20 23 40q26 -35 52 -69q67 -97 150 -178l14 10q12 9 22 18q145 136 237 313q17 30 35 61q32 55 61 111q22 42 35.5 86
t6.5 93q-1 11 -3 22q-5 30 -8 60q-3 46 -5 92l-2 58v2q0 16 -5 29q-25 47 -52 95q-9 17 -19 35q-10 -15 -14.5 -23.5t-6.5 -16.5t-3 -20q0 -4 -1 -10q-8 -77 -23 -153q-35 -156 -103 -300q-25 -56 -46 -113q-35 -102 -91 -195q-10 -15 -21 -32q-6 -9 -12 -19
q-64 62 -104 136t-72 156q-42 -19 -73 -33q-53 -100 -80 -146.5t-44 -64t-42 -30.5l-2 2q-2 1 -3.5 2t-1.5 2q-71 152 -86 320q0 8 -1 17q-11 100 14 199q12 53 3 108q-6 31 -26 60q-1 3 -3 5q-11 18 -26 34q-6 8 -13 16h-86z" />
    <glyph glyph-name="x" unicode="x" horiz-adv-x="1128" 
d="M356 62v0l-1 -1q85 31 158.5 81.5t145.5 109.5q8 7 17 13q71 -119 170.5 -191.5t235.5 -88.5q31 38 12 70q-8 12 -15 25q-34 61 -77 114q-42 47 -91 89q-24 21 -46 43q-27 25 -52 51l-24 24q18 23 34 45q35 48 69 94q47 61 93 123q27 34 53 69q44 56 23 125
q-42 125 -138 220q-22 -2 -40 -4q-20 -20 -26 -42.5t-7 -45.5q-1 -8 -2 -15q-1 -13 -3 -26q-3 -52 -19 -99q-46 -114 -104 -222q-30 -63 -94 -100l-8 4q-10 5 -18 11l-52 40q-38 30 -76 59q-96 78 -212 122q-51 20 -112 -10l72 -58q174 -130 322 -284q-6 -7 -10 -13
q-8 -10 -15 -18q-122 -127 -279 -207q-10 -5 -20 -9q-34 -14 -62 -36q-50 -39 -111 -49q-6 -1 -16 -6q-6 -2 -16 -6l21 -14q17 -13 32 -17q69 -23 141 -9q51 14 102 27q23 6 45 12zM789 710v0v0l-1 -1h0.5h0.5l0.5 -0.5t1 -0.5h0.5zM114 41v0q-2 -1 -2.5 -1h-0.5h1t2 1
l-1.5 -1.5t-1 -0.5t0 0t2.5 2zM355 61v0h0.5t0.5 0.5v0.5v0v0v0v-0.5t-0.5 -0.5h-0.5z" />
    <glyph glyph-name="y" unicode="y" horiz-adv-x="1137" 
d="M423 -142v0l-1 -1l24 10v0l-0.5 -0.5l-0.5 -0.5v0q7 5 13 10l6 4l1 -1l1 -1q-1 1 -3 2l6 -14v0v1q9 4 17 7q20 6 36 17q126 89 221 225q30 44 60 90q14 23 29 45l40 62q49 76 99 151q47 68 96 137q21 31 43 62q12 81 -14 159q-12 15 -25 29q-28 32 -54 63q-10 11 -20 21
q-21 24 -42 49q-18 25 -34.5 28.5t-43.5 -14.5v-38q6 -60 -16 -115q-4 -131 -45 -253q-21 -57 -45 -113q-9 -19 -17 -38q-2 -4 -7 -8q-4 -3 -7 -6q-48 92 -86 192q-44 117 -104 227q-80 13 -164 7h-26q-15 -54 -11.5 -76.5t30.5 -45.5q76 -5 116 -86q10 -18 23 -33
q6 -7 12 -15v0v0v-0.5t-0.5 -0.5h-0.5h10l-2 1q9 -10 17 -21v0.5t-0.5 0.5t-0.5 0.5v0.5q7 -13 15 -26q17 -29 33 -58l14 -24q18 -30 35 -61q18 -36 32 -74q5 -14 8 -28l2 -12q-16 -20 -30 -39q-30 -41 -61 -76q-119 -138 -271 -210q-75 -35 -149 -31.5t-145 54.5
q-4 3 -11 2h-10q3 -7 6 -11q3 -8 7 -14q38 -61 89.5 -90.5t111.5 -38.5q98 -15 194 17z" />
    <glyph glyph-name="z" unicode="z" horiz-adv-x="1084" 
d="M49 233v0q-34 -101 40 -137q16 1 30 2q28 3 51 1q122 -13 239 -48q48 -13 97 -25q15 -4 30 -7q67 -17 134.5 -28t137.5 -6q100 7 166 79q2 3 5 6q10 12 21 21q26 22 20 55q-2 15 -4 31q-1 8 -2 15q-8 2 -15 4q-16 3 -31 7q-6 -2 -12 -5q-13 -4 -25 -7q-11 -1 -23 0
q-7 1 -15 1h-18q-24 1 -48 -2q-195 -31 -389 8q-53 11 -107 22l-52 10q67 123 164 207q100 79 204 153q55 40 110 81q10 7 20 15q119 88 235 180q57 41 46 120q-63 41 -137 20q-32 -11 -63 -24q-32 -14 -65 -25q-8 -3 -17 -5q-164 -53 -330 -100q-23 -6 -46 -13
q-57 -17 -115.5 -29.5t-119.5 -10.5l8 -34q3 -15 6 -32q67 -32 142 -31q27 -2 53 -5q67 -6 139 3q32 4 65 6q-43 -34 -85 -67q-94 -74 -186 -145q-63 -50 -113.5 -111t-96.5 -125l-12 -16q-10 -3 -18 -5z" />
    <glyph glyph-name="braceleft" unicode="{" horiz-adv-x="586" 
d="M206 744v0l-2 3l0.5 -0.5l1 -1l0.5 -0.5v0q1 6 3 13q2 14 6 26q45 126 40 261q-8 -24 -12 -49q-1 -7 -2 -13q-5 -35 -7 -70q-5 -67 -35 -124q-56 -103 -161 -80q-8 2 -16 2q-4 1 -8 1q0 -2 -1 -4q-1 -3 -3 -6q5 -5 11 -10q13 -14 27 -22q15 -7 32 -10q10 -3 21 -6
q2 -1 4.5 -4t4.5 -6q1 -2 3 -5l1 1q3 -3 5 -6q6 -7 13 -9q48 -10 61 -26.5t18 -71.5l10 -92q5 -56 11 -111q6 -130 76 -234q24 -30 48 -62q12 -14 23 -29q18 -2 36 -6q28 -8 56.5 -5.5t52.5 34.5v0q-3 19 -7 35l-6 2q-5 2 -9 2q-74 3 -109 38t-45 95q-15 77 -27 154l-18 104
q-8 46 -21 91q-12 40 -24 73q-4 12 -8 23q11 23 22 44q23 43 35 85q17 75 21 154q1 11 3 22q7 149 54 287q33 95 119 123q23 5 47 4q10 0 21 1q4 53 -45 62q-60 10 -121.5 -21.5t-85.5 -85.5v1l14 10t14 9l1 -2v0.5t-0.5 1l-1 1l-0.5 0.5l-8 -28q-12 -32 -19 -65
q-25 -131 -45 -263q-2 -18 -5 -36q-6 -109 -64 -199zM517 1380v0q-1 0 -3 -1q-4 -1 -12 -4l6 6t3.5 3t2.5 2q1 -2 3 -4v-2zM245 504v0q0 -3 -1 -8t-1 -15v7l-1.5 10.5t-0.5 5.5h2h2zM263 336v0v-11h-2l-2 10h2q1 1 2 1zM269 257v0v2v4h1h2h1q-1 -1 -2 -3q-1 -1 -2 -3z" />
    <glyph glyph-name="bar" unicode="|" horiz-adv-x="214" 
d="M164 1434v0q-5 0 -9 -1h-9q-1 -7 -3 -15q-2 -15 -4 -31q-4 -59 -7 -117q-6 -117 -17 -233q-11 -119 -26 -238l-14 -116q-30 -249 -18 -501q2 -105 38 -205q3 -8 12 -18q5 -5 10 -14q-1 17 -1 30q-1 25 0 45v46q2 89 6 177q13 248 30 495q9 95 19 189q10 93 17 185
q16 139 -10 277q-4 16 -10 31zM37 135v0q1 0 1 1h4q-1 38 -3 75q-6 84 -3 168q10 217 32 433q8 71 19 142q21 129 27 260q1 28 4 55q2 13 3 26q-11 -5 -11 -12l-8 -76q-7 -65 -14 -129q-12 -99 -25 -198q-14 -102 -26 -204q-27 -189 -17 -380q5 -55 12 -110q2 -26 5 -51z
" />
    <glyph glyph-name="braceright" unicode="}" horiz-adv-x="585" 
d="M380 744q-58 90 -65 199q-2 18 -5 36q-20 132 -45 263q-7 33 -18 65q-5 14 -9 28l-0.5 -0.5l-1 -1t-0.5 -1v-0.5l1 2q7 -4 14 -9l14 -10v-1q-24 54 -85.5 85.5t-121.5 21.5q-48 -9 -45 -62q11 -1 21 -1q24 1 47 -4q86 -28 119 -123q48 -138 55 -287l2 -22q5 -79 21 -154
q12 -42 36 -85q10 -21 22 -44q-5 -11 -9 -23q-12 -33 -24 -73q-12 -45 -21 -91l-18 -104q-12 -77 -27 -154q-10 -60 -44.5 -95t-109.5 -38q-4 0 -9 -2l-6 -2q-4 -16 -7 -35v0q24 -32 52.5 -34.5t56.5 5.5q19 4 36 6q12 15 23 29q24 32 49 62q69 104 75 234q6 55 12 111
q4 46 9 92q5 55 18 71.5t62 26.5q6 2 12 9q3 3 5 6l1 -1q2 3 4 5q1 3 3.5 6t5.5 4q10 3 21 6q16 3 31 10q14 8 27 22q6 5 11 10q-2 3 -2 6l-2 4q-4 0 -8 -1q-8 0 -16 -2q-105 -23 -160 80q-31 57 -36 124q-1 35 -7 70q0 6 -2 13q-4 25 -12 49q-5 -135 40 -261q4 -12 6 -26
q2 -7 3 -13h0.5t1 0.5t0.5 1v0.5l-1 -3v0zM68 1380q1 1 1 2l2 4q1 -1 2.5 -2l4.5 -3q1 -2 6 -6q-9 3 -13 4q-1 1 -3 1v0zM340 504h2h2v-5.5t-1 -10.5v-7q-1 10 -2 15t-1 8v0zM322 336q1 0 2 -1h2l-2 -10h-2v11v0zM316 257q-1 2 -2 3q0 2 -1 3h1h1h1v-4v-2v0z" />
    <glyph glyph-name="asciitilde" unicode="~" horiz-adv-x="645" 
d="M617 650v0q-18 -8 -35 -16q-37 -16 -70 -35q-65 -42 -142 -28q-104 20 -209 33q-92 15 -151 -60v-2.5v-2.5v-3q4 0 7 -1q5 0 6 -1l1 -1q21 -30 38 -55h3q2 0 3 1q1 0 2 1q5 3 10 7q78 64 170 23q2 -1 3 -1q51 -22 104 -36q51 -13 104 -13q61 1 111.5 44.5t62.5 114.5
q-6 11 -18 31zM240 527v0q-10 5 -19 11q-18 1 -36 3q0 1 1 2v2l6 -2l28 -6q10 -5 19 -10q1 1 2.5 1.5l1.5 0.5l-2 -1q0 -1 -1 -1zM313 510v0q1 -1 2 -1h1h-0.5t-1.5 1l1.5 -1.5t0 -0.5t-0.5 0.5t-1 0.5h-3zM366 498v0q17 -4 34 -9l68 -4q-25 -7 -37.5 -6t-30.5 10
q-20 -8 -33 9q-6 -1 -13 -3v2v1h12z" />
    <glyph glyph-name="exclamdown" unicode="&#xa1;" horiz-adv-x="357" 
d="M275 883v0l1 1q2 -49 6 -98q21 -163 -15 -323l-1 1t-2 2.5t-1 2.5q-7 238 -13 475q0 23 -9 42.5t-42 34.5q-3 -6 -5 -9q-4 -5 -4 -8q47 -177 -6 -355q-12 -35 -14 -71q-1 -9 -2 -17q-42 -390 -156 -775q-4 -11 -5 -26q0 -8 -2 -18q49 3 94 5q14 1 31 2q9 19 20 37
q21 38 37 75q83 215 114 435q41 214 20 430q-8 54 -30 108q-8 25 -16 49zM249 341v0q1 7 1 13h3h2q-1 -6 -1 -12v-1h-5zM234 236v0l3 2v-3zM160 1278v0v0h0.5h0.5q-4 -3 -9 -6q-4 -3 -9 -6v0h0.5h0.5q-4 -7 -9 -14q-12 -16 -16 -33q-1 -1 -1 -3q-8 -25 -3 -49t46 -39
q42 6 51.5 23t8.5 37q0 18 6 33q2 2 5 4q5 6 13 12q19 11 39 23q7 4 15 9q-24 27 -40.5 32.5t-47.5 -4.5q-19 -6 -35 -13zM144 1266v0h-0.5h-0.5v0q5 3 9 6q5 3 9 6h-0.5h-0.5v0q-12 7 -25 14q-5 -2 -10 -6q7 -7 14 -15q3 -2 5 -5zM276 884v0v0l-0.5 -0.5l-0.5 -0.5
q-1 5 -3 10q2 -4 4 -9z" />
    <glyph glyph-name="cent" unicode="&#xa2;" horiz-adv-x="904" 
d="M821 951v0q-27 37 -48.5 50.5t-60.5 17.5q-142 18 -274 -39q-96 -46 -163 -120.5t-120 -162.5q-10 -14 -21 -28q-19 -23 -31 -48q-36 -89 -62 -181q-31 -128 38.5 -242.5t180.5 -162.5q92 -36 192 -45q126 -12 234.5 45.5t165.5 170.5q15 31 29 62q6 15 13 30
q-33 -16 -58 -36q-9 -7 -18 -13q-100 -64 -215 -95q-117 -32 -233 0q-85 26 -116 91.5t-19 142.5q40 238 204 419q96 117 246 143q41 4 87 2q23 -1 49 -1zM280 245v0v0l18 10q6 6 10 13v0v0v0q-6 -6 -10 -12v0q-7 -16 -14 -31q0 -2 -1 -3v1q-5 -11 -10 -21q-3 -7 -7 -14l1 1
l-10 -12l1 1q-7 -18 -13 -35q-14 -39 -30 -77q-17 -39 -35 -78q-15 -34 -30 -70q-7 -13 -6 -28t21 -31q4 7 7 14q9 15 19 29l64 88q22 29 43 58q9 12 18 25q25 32 46 66l48 82q103 171 200 347q70 133 135 270q31 64 63 128l91 182q20 41 41 83q-8 19 -17 38q-1 3 -3 6
q-69 -5 -100 -66q-16 -27 -33 -54q-99 -165 -195 -332q-132 -228 -260 -460q-20 -38 -36 -80q-8 -20 -16 -38zM563 731v0q-4 -6 -9 -13v0h0.5h0.5v0q4 6 9 12v0.5t-0.5 0.5h-0.5v0zM579 764v0h1q4 5 9 11q4 11 7 21q4 7 9 13q5 5 9 11q1 3 0 5q1 1 0.5 1t0.5 -3v0q1 1 0 2h1
h-1q1 -1 0 -2l-2 -2q-4 -6 -9 -11q-4 -7 -10 -13q-3 -10 -5 -20v-1zM821 1170v0l1 -1q4 4 7 9q1 1 2 3v0v0v0v0l-5 -5q-1 -2 -2 -3q0 -1 -1 -1zM323 302v0v-0.5v-0.5v0q6 6 10 12v0h-0.5h-0.5v0q-4 -6 -9 -11zM538 686v0l1 -1v0l-0.5 0.5z" />
    <glyph glyph-name="sterling" unicode="&#xa3;" horiz-adv-x="957" 
d="M273 319v0l-2 2q38 -1 66 -27q8 -5 16 -9q8 -2 15 -2q3 0 6 -1h-0.5t-0.5 -0.5v-1v-0.5v0v0.5v1v1v0.5q-10 1 -19 2q-4 3 -9 6q-4 2 -7 3h-24v0v0l0.5 0.5l0.5 0.5v0q10 -5 20 -12q21 -12 44 -25q14 -8 28 -17q36 -22 72 -39q119 -55 242 -6l1 -1q-21 -2 -41 -4
q-46 -5 -92 -5q-67 2 -131 41q5 0 8 1q2 1 3.5 1h2.5q16 -4 33 -9q105 -32 209 2q79 27 157 60q42 20 76 69q-31 -8 -60 -16q-64 -19 -126 -33q-49 -13 -98 -18q-90 -1 -169 40q-11 5 -23 11q-94 50 -199 73q-12 2 -22 9q-4 3 -10 5q12 23 24 45q27 47 47 93q19 49 32 99
q7 22 13 44q33 1 64 -6q22 -4 44 -5t44 9q-29 4 -57 9q-27 5 -56 10v4q1 2 1 5q31 -2 62 -10q30 -7 59.5 -9.5t59.5 10.5q-76 55 -162 73q-21 6 -41 13q9 202 88 380q26 49 82.5 60t90.5 -14q54 -44 54 -112v-69v-32q3 -1 7 -1q12 -3 23 -7q8 18 14 31q1 4 3 7q3 0 4 1h10
v0.5t0.5 0.5t0.5 0.5v0.5q45 97 10 196l-8 16q-11 27 -27 51.5t-47 38.5q-108 42 -200 -28q-69 -48 -106 -126q-68 -129 -82 -275q-1 -7 -1 -14q2 -51 -23 -103q-77 6 -128 -62q2 -18 5 -37q24 0 46 8q18 7 36.5 9t37.5 -11q-3 -8 -5 -17q-5 -18 -9 -36q-19 -96 -68 -182
q-23 -45 -72 -56q-71 -15 -85 -88q-4 -14 -10 -28q-3 -6 -5 -12q9 -11 17 -21q9 -12 17 -20q36 16 68 30q-2 6 -6 13q-2 6 -5 12q44 17 84 34q50 3 88 -25zM406 254v0q6 -6 11 -13q2 0 4 1q-1 0 -2 -1h-1q-5 7 -11 14zM51 360v0v-11q1 -5 1 -12h-1h-1q-1 1 -3 1q1 6 2 11
q1 6 2 11q17 18 35 36q8 6 16 13l2 -4v0q0 -1 1 -1l-10 -5q-6 -1 -10 -3q-3 -14 -10.5 -24t-23.5 -12zM649 230v0h-56v3h56v-3zM546 1270v0q13 13 23.5 11t19.5 -11h-43zM754 1170v0v-23h-2v11q-1 6 -1 11l1 1h2zM742 1086v0v8q1 4 1 8h6q-1 -8 -1 -16h-3h-3zM722 195v0
h-0.5h-0.5v0.5v0.5v0l38 18q0 1 1 1v0q-12 -6 -25 -13q-6 -3 -13 -7zM315 295v0l-1 -1q-11 5 -21 9q-11 4 -21 8v0v0.5v0.5h0.5h0.5l26 -10q8 -4 16 -7zM760 215v0v0v0v0h21v1v2q-11 -2 -21 -3zM205 332v0q-1 2 -1 3v1v-1t1 -3l1 0.5l1 0.5h-0.5t-1.5 -1zM252 324v0v-1
q10 -6 21 -11h-0.5h-0.5v-0.5v-0.5v0q0 4 -1 10l2 -2q-11 3 -21 5zM152 311v0l-2 -1q-1 -4 -2 -7q-2 2 -4 5q2 1 5 2q1 0 3 1zM252 323v0v0.5v0.5v0v0l-3 -1.5l-1 -0.5v0l2 1h2zM150 310v0h0.5t0.5 0.5v0.5h0.5h0.5q-1 -1 -2 -1z" />
    <glyph glyph-name="currency" unicode="&#xa4;" horiz-adv-x="398" 
d="M56 1425v0v0v-0.5v-0.5v0q3 -5 5 -10q3 -6 6 -13q8 -5 16 -11q1 -5 1 -9q1 -1 1 -3q30 -15 51 -41l13 -13q-65 -65 -64 -158q-37 -8 -53.5 -33t-21.5 -60q3 -8 6 -15q4 6 5 12q0 3 1 5q1 7 5 14l2 6v1v1v0v-0.5t-1 -0.5q0 -4 -1 -8l-2 -12q-5 -24 6 -48q6 2 10 3
q1 17 10 41t22 44.5t25 27.5l4 -6q5 -7 10 -15q14 -22 41 -23q33 -2 59 19q8 7 17 14q5 3 9 7q8 -9 14 -20q6 -9 13 -16.5t17 -10.5q13 12 4 23q-11 14 -23 26q-5 4 -10 7q-3 1 -6 4q31 41 46 86q12 44 1 89q0 4 -1 7h4q3 -1 5.5 -2t5.5 -1q16 10 32 21l42 28l-2 2
q-4 -1 -8 -1h-1h-1q1 0 2 -1q2 6 6 8.5t10 3.5h-1q-3 5 -7.5 5t-9.5 -2h-2q-14 -4 -28 -7q-5 -2 -11 -3q0 1 -1 2q0 1 -1 1q-20 -21 -43 -44q-8 10 -18 13.5t-20 5.5q-13 1 -24 6q-7 3 -14.5 1t-13.5 -7q-9 -6 -19 -12q-4 -3 -9 -6q-2 4 -5 7q-4 6 -6 12q-7 20 -21 33
t-31 24q-20 13 -43 11q-2 -5 -4 -8zM137 1295v0l-6 -6q-2 -2 -3 -5v0v-0.5v-0.5v0v1q2 2 3 5q3 2 6 5l4 4v0v0h0.5h0.5h-1q-2 -2 -4 -3zM226 1187v0v1v0v0v0h-0.5h-0.5v0zM248 1222v0h-1h1q-2 -4 -4 -7v0q2 3 4 7zM122 1265v0l-1 2l1 -1q-1 0 -1 -1h1zM275 1273v0
q-1 9 -3 19h5q-1 -9 -2 -19q-3 -9 -7 -18q-4 12 7 18zM112 1252v0l1 1l-1 -1q-1 -3 -1 -6q-1 -5 -2 -11t-3 -13l-2 -6q-3 -16 -7 -32q0 -2 -1 -5q1 6 0 12q-2 7 -1 13.5t9 11.5q-3 20 8 36zM264 1318v0q9 -30 -7 -58q-11 -23 -24 -45q-2 -3 -5 -7q-8 -17 -25 -29
q-9 -6 -16 -15q-5 -6 -11 -12q-11 -8 -20 -14q-4 -3 -7 -5q-29 4 -31 27q-3 29 8 57q15 54 58 90q2 1 4 3q12 10 25 18q27 15 51 -10zM184 1370v0v0h1v0h-1zM56 1424v0v0v0.5v0.5v0v0l-0.5 -0.5l-0.5 -0.5v0h1zM184 1370v0v0v0v0v0v-1v1zM387 1393v0h0.5h0.5v0v0v0v0.5v0.5
v0z" />
    <glyph glyph-name="yen" unicode="&#xa5;" horiz-adv-x="558" 
d="M96 758v0h3h-0.5h-0.5h-0.5h-0.5q-37 61 -51 131q-7 25 -15 49q4 -33 12 -66q3 -14 6 -30q17 -105 105 -157q8 -31 22.5 -50t46.5 -40q-5 -34 -11 -70q-19 -3 -37 -5q-55 -2 -101 -34h93q-16 -12 -34 -15q-11 -2 -21 -6t-19 -14q57 4 101 7q12 -22 12.5 -35.5t-8.5 -40.5
q-23 -9 -49 -12q-37 -3 -75 -25q23 -9 39 -15q4 -2 9 -4q-4 -4 -8.5 -10t-13.5 -17q12 1 21 2q18 1 31 1q15 2 33 4q7 0 15 1l6 -28q3 -18 8.5 -35t20.5 -34q-7 49 -10 85q1 1 3 1q2 1 4 1q1 -4 1 -9q2 -37 11.5 -74t38.5 -71q2 34 3 66q2 55 3 108q91 12 161 61l4 20l2 10
q-38 2 -77 -5q-44 -7 -92 -3q6 22 11 39l6 24q94 -1 173 55h-21.5h-15.5q3 6 8 11q5 6 13 16l-18 -2q-68 -4 -133 -8q4 30 8 57q72 22 89 91q-2 3 -3 4q-3 2 -4 4q-6 2 -11 2q-3 1 -5 1v0h0.5h0.5q1 3 3 6q3 7 8 14q66 92 100 201q52 184 21 376q-9 6 -19 12l-14 8v-42
q1 -42 -1 -82q-3 -133 -52 -258q-33 -87 -101 -153v-1q-5 -3 -12 -8q0 -8 -2 -16l-1 -1q-5 -3 -11 -7q-4 -7 -7 -14v0v0l0.5 -0.5l0.5 -0.5v0q3 7 7 14l12 8q1 8 3 16q3 3 7 6q2 2 4 3q-1 8 -2 15v0v0v0v0v0q-5 -7 -11 -15q-13 -18 -26 -35q-12 -15 -23 -29q-5 -7 -9 -13
q-49 21 -62 63q-31 66 -52 136q-49 180 -30 366l8 4q6 3 15 6l-15 15q-8 11 -18 17t-29 -3q-11 -43 -21 -87q-3 1 -6 1q3 34 6 69v-0.5v-0.5v0v0q-4 -7 -9 -14q-10 -17 -15 -33q-22 -180 31 -354q11 -43 23 -86q5 -19 10 -39zM246 534v0l-0.5 0.5l-0.5 0.5h-0.5t-0.5 0.5
v0.5l2 -1q-2 7 -3 16h2h3q-2 -9 -2 -17zM228 392v0q-7 11 -7 21.5t4 21.5l2 8q5 -10 7 -15.5t0.5 -13t-6.5 -22.5zM52 1139v0q-1 -5 -1 -11h-2q0 -1 -1 -1v2l-2 10h6zM393 892v0v0v-0.5t0.5 -0.5h0.5q-16 -26 -33 -52v1zM361 840v0v0v0v-0.5v-0.5q-13 -21 -25 -40
q-4 -5 -7 -9v0v0v0v0v0q28 18 32 50zM429 1003v0v0l14 16q-2 0 -3 1q0 1 -1 2q-3 -4 -4 -8q-3 -6 -6 -11zM455 1093v0h-1h-2q-1 -6 -1 -11h3q0 5 1 11zM428 966v0v0q-3 -5 -6 -11q-3 -5 -6 -11l-1 1q3 6 7 10q3 6 6 11zM428 966v0v0q1 18 1 37v0v0q0 -19 -1 -37zM56 1284v0
v0v0v0.5v0.5q0 1 -1 2l-1 1v0l1 -1q0 -1 1 -3zM415 945v0v-0.5t0.5 -0.5h0.5v0q-5 -7 -9 -13v0v0v0zM397 915v0v0q-6 10 -2 13t12 3v0v0v0v0zM397 915v0v0q0 -5 -1 -11q-1 -7 -2 -13h-0.5h-0.5v1v0q2 12 4 23z" />
    <glyph glyph-name="brokenbar" unicode="&#xa6;" horiz-adv-x="256" 
d="M177 -119v0q1 0 2 -1h2v-188q65 222 58 446q-13 112 -80 213q-5 7 -9 14q0 1 -9 1q-6 1 -12 1q-2 -6 -5 -13q-6 -14 -8 -27q-9 -131 -16 -263q-3 -42 -6 -86q-2 -34 -4 -67q-6 -75 -9 -152q-4 -20 4 -38.5t47 -31.5q23 97 45 192zM172 1018v0q-13 87 -12 174
q5 117 -27 232q-21 -16 -22 -34q-23 -313 -2 -626q6 -67 22 -134q4 -15 20 -34q9 -12 20 -28q73 249 46 484q-16 -12 -26 -19q-10 -8 -19 -15zM37 -153v0q9 52 19 104q47 177 21 358q-59 -227 -40 -462zM57 1317v0h-11h-10q-26 -222 21 -443v356v43v44z" />
    <glyph glyph-name="section" unicode="&#xa7;" horiz-adv-x="559" 
d="M67 352v0q-57 -109 37 -175q56 -36 118 -26q93 19 184 46q2 0 3 1q52 15 81 60q59 86 45 189q-12 95 -55 180q-5 12 -9 23q-3 6 -5 11q2 5 4 9l10 18q55 106 -43 179q-56 33 -121 37q-31 5 -62 8q-47 4 -94 11q-17 3 -35 13q-9 5 -20 9q3 12 4 23q4 23 11 40
q83 155 238 240q41 25 89 27q7 0 13 3l6 2v4v4q-19 6 -38 11q7 1 17 3.5t25 4.5q-9 3 -13 6q-9 4 -14 5q-70 11 -132 -22q-118 -62 -203 -166q-28 -38 -50 -83q-5 -10 -10 -19q-15 -34 -1 -68q17 -50 59.5 -81.5t95.5 -35.5q11 -1 26 -3q8 -1 19 -2q-12 -7 -22 -13
q-18 -10 -32 -18q-39 -27 -45.5 -68t19.5 -75q63 -89 164 -68l46 12q10 3 21 5q35 -41 42 -90q33 -126 -55 -217q-112 -98 -258 -65q-36 6 -48.5 22.5t-11.5 54.5q-1 8 0 18v16zM253 176v0v0l-0.5 0.5t-0.5 1v1v0.5l2 -2q-29 -2 -59 -5q0 5 1 10q28 -2 57 -6zM435 337v0h-2
h3v3q-1 3 -1 5q4 13 9 27q11 27 16 55q3 28 1 59v31q38 -81 -26 -180zM231 655v0v9q-4 13 -1 24q17 55 73.5 78t110.5 -2q-3 -34 -25 -53.5t-48 -31.5l-2 -2q-10 -5 -19 -12q-18 -14 -39 -20.5t-50 10.5zM177 761v0q-3 -15 -6 -31q-3 -15 -6 -33q-19 41 12 64zM66 983v0
q0 -6 1 -13h-1h-3q-1 6 -2 13h1v0h1h3zM280 604v0v1v1.5t1 0.5l1 1h1v-2v-3q-1 1 -2 1h-1zM278 862v0h3l-3 -1v1zM393 1292v0v-2h-2z" />
    <glyph glyph-name="dieresis" unicode="&#xa8;" horiz-adv-x="519" 
d="M10 1103q1 -8 3 -16q3 -17 9 -33q17 -42 88 -27q8 8 18 16q12 11 24 21q-17 22 -31 40q-2 4 -4 7v1v0v0l-0.5 -0.5l-0.5 -0.5v0q2 -4 4 -7q4 -4 9 -7q11 -8 23 -15q11 -7 22.5 -5.5t34.5 12.5q1 3 3 5l10 18h-3q-5 0 -9 -1q27 51 39.5 75t14.5 35t0 21q-3 -2 -5 -5
q-4 -4 -7 -9q-1 -1 -2 -3q-2 -2 -4 -5t-6 -7q2 13 6 31q-52 -50 -82 -105q-9 -15 -20 -32q-39 37 -69 76q-9 12 -19 23l1 1q-7 -5 -9 -4.5t-2 3t1 5.5q0 1 1 2v1l-20 5q-2 -4 -5 -7q-6 -8 -7 -14q-3 -38 -5 -75q0 -10 -1 -20l8 2h5h-0.5t-1 -0.5l-0.5 -0.5v0l2 2
q-4 -1 -7 -2q-3 0 -6 -1v0zM222 1170q-1 0 -2 -1q1 3 3 6h2q-2 -3 -3 -5v0zM392 1088q4 -2 8 -5q1 -1 3 -2q83 71 106 152q-15 4 -32 8q-21 -27 -40 -52q-20 -28 -42 -56q-13 3 -18 11.5t-5 19.5q-3 35 -36 56q-3 -5 -6 -9q-8 -10 -13 -19q-8 -20 -11 -40q-8 -37 -11 -72
q1 -16 5 -30q2 -6 3 -12q2 0 2 -1q1 0 1 -1q-1 2 -3 2q7 -6 15 -11q26 10 43 26.5t32 35.5q-2 4 -5 7v0v0v0v0v0l4 -8v0zM446 1152v-2q-1 0 -1 1l1 1h2h-0.5h-0.5h-0.5h-0.5v0v0zM469 1187v0h1q-2 -4 -4 -7l-1 -1v0l4 8v0zM235 1145q-2 -5 -3 -9q2 0 4 1q2 4 3 9q0 -1 -2 -1
h-2v0zM56 1206l-8 8v0v-0.5v-0.5v0v0l4 -4q3 -1 5 -2v-0.5v-0.5h-0.5h-0.5v0v0z" />
    <glyph glyph-name="copyright" unicode="&#xa9;" horiz-adv-x="491" 
d="M372 1399v0l-22 4l-16 4q26 7 53 -10q-10 2 -16 2q2 -1 5 -2q5 -2 11 -5q29 -10 35 -33q6 -14 7 -28q-1 -16 -2 -33q-1 -8 -2 -15q0 -3 1 -6v-1q8 18 10 36q1 13 0 26v12q7 -5 7 -11q0 -5 1 -10q1 -19 -2 -38q-10 -62 -57 -115q-20 -22 -41 -45q-12 -14 -25 -27
q-5 -6 -9 -12q-3 -3 -5 -6q1 -1 3 -1q7 4 12 8v0h0.5h0.5v0v0h-0.5h-0.5v0v0q-1 -2 -1 -4q-1 -5 -3 -10q-1 -3 -3 -7q-2 -1 -3 -3v0q2 2 4 2q4 3 7 4q56 38 94 85q66 82 56 174q-3 29 -29 54q-59 49 -149 43q-58 -2 -103.5 -22.5t-80.5 -52.5q-41 -34 -62 -78q-2 -6 -6 -13
q-5 -12 -10 -25q-21 -58 14 -113q31 -43 80 -76q18 -15 46 -20q1 3 2 4h-2h0.5t0.5 0.5v0.5v0q49 -15 99 -3q7 1 12.5 3t7.5 8q-5 2 -10 5q-6 3 -11 6q-5 -1 -9 -1q-10 -2 -20 -3q-37 -6 -72 7q-58 24 -84 65q-23 41 -11 85q18 73 89 129q40 30 92 48q31 12 68 14h34h15z
M121 1356v0q-1 -1 -2 -1v-1v0h-1v0l-1 -1v0v0q-1 0 -1 -1q-1 -11 -16 -17q-1 -3 -4 -6q-4 -8 -9 -15q-57 -71 -46 -153v-4h-1v0q0 2 1 4q-1 3 -3 6q-3 6 -5 11q-4 36 9 70q12 40 42 74q5 5 11 9l6 4q-1 6 3.5 10t11.5 7q1 1 3 2q1 1 3 2t4 3v0q2 2 2 5v0v0h1q0 1 1 1
q1 1 2 1v0q1 1 1 2q3 1 5 3v0q2 1 5 2q1 2 4 3q1 2 3 3q8 4 15 7h1q2 3 5 4v0.5v0.5h-0.5h-0.5l-2 -2t-3 -2q-7 -4 -15 -8q-1 0 -2 -1l-2 -2l-4 -2q-2 -2 -4 -3q-3 -2 -5 -3q-1 -2 -3 -3q-1 0 -2 -1q-1 -2 -2 -5q-2 -1 -5 -3zM60 1116v0v0v0v0v0v0v0v0zM53 1132v0q-4 4 -8 9
l1 1h2q2 -5 5 -10v-1v-1v1v1zM442 1251v0v-3q0 -1 1 -2h-1v0v5q4 6 6 12v0q2 0 3 -1h1q-3 -3 -5 -6t-5 -5zM323 1421v0h2h7v0v-1v0h-9v0v1zM212 1040v0h1h1v0v0h-2v0v0zM57 1218v0v1l1 -1h-1zM222 1286v0v0v0v0v0q-27 -16 -40 -38q-7 -11 -8 -23q-3 -22 29 -26q11 -2 23 -2
l10 -2v-1q-6 0 -12 -1q-7 -1 -17 -2q2 -3 3 -6l2 -10l6 -2q7 -5 15 -7q24 -5 48 4.5t35 28.5h-5q-6 2 -11 2q-11 1 -22 1q-12 -1 -25 0q-9 0 -17 2q-3 0 -5 1q-6 7 -5.5 13t4.5 11q11 19 26.5 36.5t42.5 28.5q-25 17 -52 3q-8 -6 -16 -11l-6 -6v0h-0.5h-0.5v0v0h0.5h1h0.5z
M215 1270v0v2l1 -1q-3 -3 -4 -6q-6 -3 -11 -5v-1v-1v1h-1l12 6q0 1 1 2q1 2 2 3zM191 1239v0q1 3 3 7q1 -1 3 -1v0q0 -2 -1 -3q-2 -2 -3 -4l-1 1h-1zM189 1228v0q1 -2 1 -3h-2v0q0 1 -1 3h2zM409 1227v0l-1 1h-2l-2 -4l-2 -4h1q1 -1 2 -1q2 5 4 8zM192 1026v0q2 -1 3 -2
q0 1 1 1v1h-2h-2zM218 1023v0h-1v-1zM237 1296v0h-0.5h-0.5v0v0v0v0h0.5h0.5zM232 1293v0v0v0v0v0q2 1 4 3v0v0v0v0q-1 -2 -4 -3v0zM222 1286v0v0v0v0v0q2 1 4 3v0v0v0v0q-1 -2 -4 -3zM349 1149v0v1l1 -1h-1zM349 1150v0v0v-0.5v-0.5v0v0v0v0v0v1zM310 1069v0v0v0v0v0
q-3 0 -6 -1v0v0v0v0q3 1 6 1zM303 1064v0v-0.5v-0.5v0v0q1 3 1 5v0v0v0v0q0 -2 -1 -4zM303 1063v0v0v0.5v0.5v0v0h-0.5h-0.5v0zM232 1293v0v0v0v0v0l-2 -2l-4 -2v0v0v0v0z" />
    <glyph glyph-name="ordfeminine" unicode="&#xaa;" horiz-adv-x="304" 
d="M42 1322v0v1q-2 -9 -7 -19q-5 -8 -8 -18.5t2 -24.5q6 -5 15 -12q5 -5 10 -9q81 117 165 86q8 -9 14 -15q6 -7 12 -12h4t4 1q-7 -52 -14 -105q-15 3 -29 5q-28 3 -53 8q-71 13 -115 -43q-32 -38 2 -74q8 -9 18 -17q11 -9 21 -21q12 -13 27 -18t30 -7q8 -1 15 -3q7 0 16 5
q5 3 10 5q-7 10 -14.5 11.5t-14.5 1.5q-9 0 -17 2q-15 12 -29 23l-12 10q7 37 34.5 63.5t65.5 31.5q6 -3 12 -7q11 -6 23 -14q0 -5 -1 -10q-1 -10 -4 -19q-10 -43 -23 -87v-3q-7 -21 -2.5 -34.5t23.5 -25.5q3 6 7 13q8 14 13 28q1 7 3 14q22 72 39 146q10 49 10 100
q-1 78 -72 101q-76 28 -143 -15q-9 -11 -18 -21q-9 -11 -19 -22zM57 1166v0q-1 -12 -3 -23q-1 -11 -2 -23q-2 0 -3 1q-2 0 -4 1q4 7 8 15q1 2 2 5q2 12 2 24q10 7 18 14q2 -2 3 -5q-6 -3 -13 -5zM196 1358v0h-2t-0.5 0h2.5q-3 1 -2.5 1t2.5 -1z" />
    <glyph glyph-name="guillemotleft" unicode="&#xab;" horiz-adv-x="650" 
d="M188 473q1 0 2 -1q26 -13 53 -27v0v-0.5t-0.5 -0.5h-0.5v0q-17 31 -54 56q-24 17 -41 36q-10 12 -19 24q-4 6 -9 12q11 8 21 15q22 16 43 31q120 84 240 167l50 34q40 27 79 55q17 12 30 27q6 7 13 14q-37 15 -62 -2q-24 -15 -49 -30q-70 -43 -139 -87q-56 -36 -110 -72
q-51 -34 -103 -68q-65 -38 -98 -85q-24 -33 9 -62q2 -1 3 -3q81 -64 171 -127q78 -53 170 -101q80 -41 166 -79l64 -30q4 -1 11 -2q5 0 12 -2q-2 4 -4 7q-2 6 -7 9q-76 48 -151 97q-123 78 -245 156q-18 12 -31 27q-6 6 -13 12q-1 1 -2 1v0h1v-1v0zM156 500h-21q0 7 -1 16
h-4h1q1 -1 2 -1v-1l2 -14q11 0 22 -1l-2 -1l1 2v0zM109 535l-3 1l0.5 -0.5t1 -0.5t1 -0.5l0.5 -0.5v-2v3v0zM324 530q7 -6 14 -11q15 -13 33 -25q55 -33 111 -67q41 -24 81 -48q15 -10 28 -20q6 -4 12 -9q4 2 8 3l8 4q-5 4 -9 9q-10 11 -20 21q-15 16 -29 32h0.5t0.5 0.5
t0.5 0.5h0.5l-3 -1q6 -2 14 -3q12 -3 30 -6l-15 15q-14 15 -30 28q-31 24 -63 48q-24 18 -48 37q-12 10 -23 20q-6 6 -12 11q33 33 71 64q56 46 99 98q-8 -1 -16 -1q-22 -1 -40 -2q-6 -3 -11 -6q-12 -5 -21 -12q-16 -11 -32 -23q-59 -44 -113 -88q-19 -16 -29 -33t4 -36
q1 0 2 1q5 1 10 3v0v-0.5v-0.5v0v0v0.5v1v0.5q-4 -1 -7 -2t-6 -3v0zM303 408q10 -7 20 -13q22 -16 45 -31q58 -37 121 -72q-76 66 -187 116v0h0.5h0.5v0v0zM258 438q1 -1 2 -1q21 -15 43 -29v0h-1v0v0q-22 14 -45 29l1 1v0zM257 437v0q-7 4 -15 7v0v0h1v0.5v0.5v0
q7 -3 14 -7h1v-0.5v-0.5h-0.5h-0.5v0z" />
    <glyph glyph-name="logicalnot" unicode="&#xac;" horiz-adv-x="835" 
d="M229 1273v0v-1q9 8 18.5 7.5t18.5 -7.5v0.5v0.5v0v0l6 2q7 1 13 4q25 16 51.5 22t56.5 -7v-1q3 3 7 5q13 9 28 15.5t34 5.5q0 -1 1 -2q2 -4 8 -13q46 36 105 33v-1q69 22 142 8q8 -1 15 -2q15 -81 -6 -156q-11 -49 -12 -98q6 -1 12 -3v13q-1 14 1 27q17 76 39 151
q2 -99 -41 -190q-2 -12 -4 -23q-3 -18 -6 -37q-2 -10 2 -15.5t15 -4.5q82 113 90 270q2 58 -39.5 104t-116.5 51q-170 5 -335 -32q-50 -11 -99 -21q-44 -9 -87 -18l-94 -22q-21 -5 -42 -9q4 -18 15 -23.5t24 -6.5q12 -2 22 -7l-4 -6q-6 -7 -16 -19q12 -2 21 -4q20 -5 37 -4
q43 3 86 9q17 3 34 5zM700 1373v0h-12v2v2q6 -1 12 -1v-2v-1zM266 1273v0v-1h-37v0.5v0.5v0h35h2zM200 1259v0q2 1 2.5 1.5t0 0.5t-1 -0.5l-1.5 -1.5l2 1h1h-0.5t-2.5 -1zM393 1293v0v0.5v0.5h-8q4 0 8 -1zM576 1336v0v0.5v0.5v0v0h1h1t1 -0.5v-0.5h-3z" />
    <glyph glyph-name="registered" unicode="&#xae;" horiz-adv-x="618" 
d="M69 836v0v0v0v0.5v0.5q-3 3 -5 6q-7 7 -14 15q-6 9 -13 18q-3 3 -6 7v0v0v0q14 -35 40 -62q8 -9 18 -17q6 -5 11 -10q42 -44 101 -55q70 -11 125 34q16 11 34 19l16 8l-1 1v0h0.5t0.5 -0.5v-0.5l2 -4h-1q11 9 22 19q24 21 46 43q57 58 97 124.5t55 147.5
q11 51 10.5 101.5t-20.5 100.5q-29 71 -103 95q-13 4 -27 10l-16 6q-118 1 -212.5 -58t-152.5 -153t-64 -200q1 1 2 1q0 1 0.5 1.5l0.5 0.5q9 64 34 123q2 4 4 9q3 10 7.5 18.5t14.5 14.5l2 16q3 3 5 7q1 1 1 2q6 7 11 14v0v0v0h-0.5h-0.5q-4 -6 -9 -12l-1 -1q-1 -3 -3 -5
q-1 -2 -3 -4q-1 -9 -2 -17q-2 -5 -5 -10q-5 -11 -9 -22q-42 -105 -28 -218q10 -60 36 -114zM333 1387v0q-1 0 -2 1v0h1l1 -1h2q0 1 -1 1v1q-1 -1 -1 -2zM308 775v0q4 4 8 7q-6 10 -13.5 10.5t-16.5 -3.5q-1 0 -3 -1q-26 -7 -53 -13q-31 -7 -55.5 4.5t-45.5 32.5
q-55 53 -58 131q0 10 -3 20q-7 20 3 38v0q1 32 13 61q4 8 6 16q36 105 113 185q33 32 71 59q24 18 50 34q11 7 23 15l-2 -1l1 1h6t6 0.5t4 2.5q21 19 45 22.5t49 2.5q4 0 7 -1q35 -2 54.5 -22t30.5 -51q1 -4 2 -7q2 -10 8 -19q0 2 -1 4l-4 34q2 1 5 2q2 -4 3 -7q3 -8 6 -15
q12 -48 7 -97q-9 -108 -62 -202q-69 -113 -162 -207q-11 -11 -23 -19q-6 -5 -12 -9q-3 -4 -7 -7q-9 -15 -26 -16l-20 -4q-4 -1 -9 -2q-14 -1 -27 -2v2v2h9l18 -2q28 11 55 21zM358 1397v0l-2 2l1 -1h1q46 28 99 17q-41 -1 -80 -13q-10 -2 -19 -5zM31 883v0v0v0v0v0v7l-2 18
q-6 42 -11 83q-1 3 -1 5l-2 8q0 2 -1 4q-2 -1 -4 -1q0 -8 1 -17q0 -18 3 -37q5 -24 12 -49q3 -10 5 -21zM377 796v0v0h0.5h0.5v0q-5 -1 -9 -2v0q2 1 4 1t4 1zM369 794v0v0v0v0v0v-0.5v-0.5h0.5h0.5zM290 1139v0v0q26 36 68 48q2 0 4 1q7 2 14.5 2t15.5 -6l-4 -8
q-3 -8 -9 -15q-24 -27 -60 -39q-14 -6 -25 -12q-5 -3 -10 -5q-2 -47 37.5 -91t83.5 -45q-1 2 -1 3l-2 6q-1 2 -1.5 3.5t-1 2l-0.5 0.5l-24 18q-22 13 -39 31t-20 48q6 3 11 6q13 6 25 12q40 15 65 49q15 24 5 46.5t-38 27.5q-43 8 -79 -17l-18 -14q-4 -3 -9 -7q-6 11 -11 20
q-12 0 -26 -1q-9 -33 -21 -65q-22 -52 -26 -111l4 -2q2 -2 5 -4v-22h3q1 -1 2 -1q2 4 5 8q5 8 9 17q19 48 36 96q19 58 76 81q10 4 21 7q5 1 9 2l-24 -14q-13 -7 -25 -15q-24 -13 -25 -41zM318 1106v0l1 -2l-2 1q37 19 73 38q-7 -15 -28.5 -26t-43.5 -11zM255 1189v0
l-14 -44h-1q-2 0 -4 1v1q7 22 14 43h0.5h1.5q2 -1 3 -1zM71 1001v0v0l-2 -10h2v10zM290 1139v0v0v0v0v0q0 -1 -1 -1v0q0 1 1 1z" />
    <glyph glyph-name="macron" unicode="&#xaf;" horiz-adv-x="1034" 
d="M496 1239v0h1q-71 0 -143 1q-4 1 -9 1q171 16 340 23q129 6 257 17v11q-119 5 -240 9q103 6 204 10q37 1 76 2q11 1 25 6q7 3 17 6q-254 60 -505 64.5t-500 -15.5q-2 0 -6 -5q-1 -1 -3 -4l26 -14q8 -5 16 -9q-7 -7 -13.5 -13t-15.5 -13q-2 -3 -7 -7q46 -14 81 -26
q-12 -5 -24 -10.5t-29 -14.5q22 -7 38 -12q16 -4 29 -8q-1 -4 -1 -8q-2 -6 -2 -12q10 -1 20 -1q22 -4 41 -3q102 5 202 14q44 3 86 8q20 1 39 3zM266 1240v0q-5 -2 -8 -3l1 1q0 1 0.5 1.5t0.5 1.5q1 0 4 -1h2zM653 1243v0h-1v1q-10 1 -21 1q0 -1 1 -2q11 -1 21 0zM497 1239
v0h-0.5h-0.5v0q21 0 44 -1h2q-1 3 0 6q-23 -3 -45 -5z" />
    <glyph glyph-name="degree" unicode="&#xb0;" horiz-adv-x="416" 
d="M155 1403v0l1 -1q-18 -34 -50 -57q-13 -11 -26 -24h-1q4 0 8 -1q4 0 8 -1q5 5 10 11v0v0.5t-0.5 0.5h-0.5v-1q-5 -5 -9 -10q-5 -8 -9 -17q-11 -18 -18 -37q-14 -41 -26 -82l-10 -34q-9 47 7 94q4 14 7 28l1 -1q-37 -53 -33 -118q1 -22 12 -37.5t26 -28.5l2 -2q4 -5 8 -11
q0 -1 1 -3q53 -84 145 -49q115 45 155 161q43 108 -51 184q-12 10 -22 21l-10 10q-17 0 -35 1q-29 3 -57 7l-20 -24q-2 3 -5 6q13 9 25 18q19 -3 37 -5q2 0 5 -1q4 0 8 -1q3 0 6 -1q18 0 36 -1q-5 4 -9 7q-10 10 -21 14q-51 16 -95 -15zM172 1040v0l2 -2q-1 1 -3 1
q0 -1 -1 -1v-1v0.5t1 2.5v-1q-1 -1 -1.5 -1h-0.5h1zM210 1381v0v0v0.5v1v1v0.5v-2q-1 0 -1.5 -0.5t-1.5 -0.5v0h1l-1 1l1 -0.5t2 -0.5zM165 1326v0q0 -9 1 -19q28 3 60 5q4 13 -0.5 21t-13.5 15q-8 7 -13 16q59 -4 97 -43q4 -135 -102 -208q-47 -40 -101 -4q-21 27 -12 61
q13 87 84 138v18q7 0 14 -1v-2l-1 -1q-2 0 -3 1q-5 2 -10 3zM47 1271v0v0v0.5t-0.5 0.5h-0.5v0q16 25 33 49v0v0h0.5h0.5v0q-17 -25 -33 -50zM156 1402v0v0.5v0.5h-0.5h-0.5h-1h2v-1z" />
    <glyph glyph-name="plusminus" unicode="&#xb1;" horiz-adv-x="951" 
d="M470 1388v0q1 -6 2 -13q1 -6 1 -12q-4 1 -7 1h-1v0q3 11 6 23h-46q-2 -18 -4 -35q-6 -37 -7 -72q-2 -79 -3 -157q-1 -74 -3 -147q-2 -28 -7 -49q-2 -8 -2 -13q-132 -32 -254 -61q-67 -17 -132 -33l-2 -8q0 -4 -1 -8q30 -15 57 -29q11 -5 21 -10l-4 -4q-11 -10 -24 -22
l2 -6q0 -4 1 -9q13 0 25 -2q28 -3 55 -1q63 8 126 19q39 7 77 12q20 3 42 4q11 0 24 1q2 -16 3 -30q3 -29 5 -53t4 -47q6 -62 7 -123q9 -104 72 -184q9 -13 18 -27q12 75 13 148q0 113 -5 226q0 9 -1 18q-2 29 0.5 57t19.5 55q16 3 31 6q196 26 358 143q-3 10 -6.5 21
t-8.5 26q-79 -10 -157 -20q-116 -15 -234 -30q-3 10 -5 20q-5 20 -5 37q-3 157 -4 313v20q0 24 -9 40t-38 15zM453 989v0v23v0v0v-23v0v0zM464 1298v0v-4t0 -0.5v1.5v3q1 -2 2 -3l1 -1l-0.5 0.5t-2.5 3.5zM229 9v0q69 -8 132 9q29 6 59 10q254 34 486 142q4 2 8 3
q12 4 19.5 11t2.5 24q-65 10 -190.5 5.5t-262 -18.5t-233 -33t-103.5 -38q15 -6 32 -13q11 -4 24 -9l-12 -14q-13 -16 -31 -36q49 -8 89 -13q-8 -12 -13 -20q-4 -5 -7 -10z" />
    <glyph glyph-name="uni00B2" unicode="&#xb2;" horiz-adv-x="462" 
d="M128 1059v0q3 4 5 6q4 5 7 9q63 66 114 142q33 47 50 104q9 32 2 64q-5 21 -16 36t-31 22q-40 12 -79 -6q-37 -18 -66 -52q-40 -46 -44 -109q-1 -22 13 -35.5t35 -9.5v1q2 8 3.5 13t1.5 9.5t-2 12.5q-9 49 23 84q36 37 84 48q4 1 9 0h2q38 -4 37 -47q-1 -11 -5 -20
q-1 -2 -3 -4q-12 -25 -28 -47q-57 -80 -123 -151q-30 -35 -66 -63q-24 -14 -41 -41q7 -16 14 -31l4 -2q3 -2 5 -4q17 -13 34 -1q5 3 11 6q4 2 9 5q20 13 40 11.5t39 -12.5q29 -15 56 -34q11 -6 21 -13q27 -19 60 -19q52 4 103 18q30 9 46 39v1q-3 4 -4.5 6.5t-5 3t-9.5 0.5
h-44q-33 0 -67 1q-28 1 -56 5t-55 17l-42 18l-22 10l-12 6q-3 2 -7 3z" />
    <glyph glyph-name="uni00B3" unicode="&#xb3;" horiz-adv-x="414" 
d="M145 1236v0v9v18q-1 22 5.5 41t26.5 31q43 26 90 43q3 1 5 2q16 6 34 5q-2 -10 -7.5 -17t-12.5 -12q-2 -2 -5 -4q-16 -15 -33 -30q-18 -15 -36 -32q-28 -24 -43 -57q-11 -27 9 -47q9 -10 21 -15q19 -9 39 -15q3 -1 5 -2q38 -12 71 -36q29 -23 24 -59q-5 -35 -32 -54
q-68 -49 -152 -50q-23 0 -44 11q-55 30 -14 78q9 11 17 22q3 6 7 11q-2 1 -3 3q-32 -11 -60.5 -25.5t-46.5 -42.5q2 -7 4 -13q4 -11 7 -21q5 -23 25 -37q1 -1 3 -2q15 -9 30 -19q26 -18 57 -25q34 -10 69 -1q66 17 119 59h1q3 3 7 5q26 11 37 37q8 16 15 32q20 57 -25 99
q-24 20 -51.5 34t-56.5 26q-4 1 -7 3q-21 7 -38 25q1 1 1 2q18 23 38 44q7 8 15 16q39 36 70 78q19 23 4 53q-6 2 -12 3q-14 5 -29 6q-104 1 -186 -63q-25 -21 -31 -57t18 -62q9 -3 19 -7l12 -4q3 3 8 5q5 4 12 8z" />
    <glyph glyph-name="acute" unicode="&#xb4;" horiz-adv-x="455" 
d="M127 1197v0v1v0v0v-0.5v-0.5q-5 -15 -9 -31q-1 0 -1 -1q4 0 7 -2q8 6 18 13q3 -15 -2 -30q-8 -18 1 -39q6 7 11 13q10 11 20 20q13 12 27 23q18 15 35 31q52 49 101 100l12 10q25 22 34 48q-7 9 -13 17q-4 5 -7 9q-19 1 -28 0.5t-16 -2.5t-19 -8q-1 -1 -3 -1
q-48 -19 -79 -49l-5 -5q-39 -39 -75 -79q-8 -8 -12 -17.5t3 -19.5zM170 1253v0v0v0v0.5t0.5 0.5h0.5v0zM141 1216v0v0v0l0.5 0.5l0.5 0.5v0v0z" />
    <glyph glyph-name="mu" unicode="&#xb5;" horiz-adv-x="778" 
d="M494 978v0l1 -1l-26 -24q-29 -29 -61 -55q-55 -42 -107 2q-41 39 -61 90q-33 93 -10 193q5 27 5 51q1 9 2 16q-10 12 -18 23q-26 33 -49 62q-22 -16 -30 -36.5t-11 -40.5q-1 -2 -1 -4q-1 13 -2 27q-2 21 -4 43q-4 1 -8 1q-3 1 -7 2q-4 -9 -8 -17q-11 -19 -14 -38
q-12 -98 -18 -195q-4 -68 -7 -135q-3 -66 -7 -132q-9 -125 -17 -249q-10 -139 -19 -278q-2 -46 4 -92q3 -11 13 -22l8 -10q6 2 13 4v73q-1 83 0 167q3 85 8 170l4 74q13 -46 10 -91q-2 -61 -5 -122q-5 -109 -8 -217q-4 -72 39 -140q44 60 44 129q11 147 24 295q4 48 8 95
q9 121 20 241q1 12 4 23q2 6 3 11q9 5 18 11q6 -9 12 -19q13 -21 28 -39q55 -60 127.5 -66t135.5 45q21 18 39 39l20 22q9 9 22 21q7 6 15 15q11 -47 18 -80q4 1 9 1v122h13h2q1 -13 3 -27q3 -30 4 -61q3 -45 5 -91q2 -65 6 -130q2 -40 16 -55.5t50 -18.5q14 63 9 236.5
t-21 342.5t-37 217h-66q-3 -8 -5 -17q-6 -18 -12 -37l-20 -74q-22 -87 -48 -171q-12 -29 -36 -55q-10 -12 -19 -24zM81 750v0q2 36 3 70h13v-7q-3 -31 -5 -62l-1.5 -0.5t-4.5 -0.5h-5zM100 981v0v40h4h4q0 -10 -1 -21q-1 -10 -1 -21q-2 1 -4 1q-1 1 -2 1zM99 890v0q0 5 2 13
q0 4 1 9v-13.5v-8.5h-3z" />
    <glyph glyph-name="paragraph" unicode="&#xb6;" horiz-adv-x="1448" 
d="M1109 1320v0h-117v7h2q58 -4 115 -7q5 3 10 7q10 11 21 14q36 5 73 9q24 2 47 5q18 3 36 7l16 4q-30 17 -56 14q-45 -2 -90 -5q-56 -4 -112 -7l-226 -10q-215 -8 -429 -19q-83 -8 -165 -31q-174 -59 -224 -215q44 -164 168 -250q85 17 166 -28l-8 -106q-29 -259 2 -519
q2 55 2 111q0 52 2 104q4 105 20 208q5 38 3 77q-6 67 20 131q9 -20 6 -39q-4 -63 -8 -127q-11 -135 -16 -271q-11 -247 38 -490q0 -1 1 -1q3 -20 11.5 -37t33.5 -27q4 106 9 210q10 238 19 473q9 237 18 473q4 102 8 203q36 12 123.5 19t172.5 7t113 -8l-2 -14
q-3 -15 -6 -31q-6 -26 -12 -53q-15 -55 -22 -112q-16 -175 -24 -350q-3 -78 4 -155q3 -33 13.5 -50.5t38.5 -43.5q-50 171 -27 336q2 20 3 39q8 184 47 365q9 -10 8 -20q-5 -69 -11 -139q-14 -152 -21 -305q-3 -128 15 -256q6 -74 86 -138v45v70q2 79 4 159q4 234 13 469
q1 8 1 16q-6 100 46 199q10 2 22 4q28 4 58 11q32 8 63 18q13 5 27 9v0l-14 -2q-79 -16 -159 -9q82 19 166 29q103 12 207 40q-91 36 -329 -17zM414 1184v0q-12 -127 -22 -244q-12 13 -14 27.5t0 29.5q0 7 1 14q2 36 -9 75q-10 -64 -21 -132q-4 -26 -8 -54q-108 23 -186 72
q4 85 75 144t184 68zM569 1255v0h359v-9h-357q-1 5 -2 9zM546 1312v0h349v-4v-3h-349v7zM414 193v0v25v0h1v-25h-1v0zM461 1291v0h2l2 1h-1q-1 -1 -3 -1q1 1 2 1.5t1.5 0.5t-0.5 -0.5zM944 1193v0h-4l2 4zM1238 1279v0v0v0v0l1 -1q5 0 10 -1q-6 1 -11 2z" />
    <glyph glyph-name="periodcentered" unicode="&#xb7;" horiz-adv-x="183" 
d="M87.8477 624.5v0q0.849609 6.7998 3.39941 9.34961q2.5498 2.55078 5.52539 2.55078q2.97461 0 5.52441 -0.850586q3.40039 -1.7002 6.7998 -1.7002v-3.39941q0.850586 -1.7002 0.850586 -3.40039l-22.0996 -1.69922q23.7988 -6.7998 43.3486 4.24902
q19.5498 11.0498 28.8994 34.8496q12.749 40.7988 -11.0498 70.123q-23.7998 29.3242 -68.8486 28.4736q-31.4482 -2.5498 -50.5732 -26.7734q-19.124 -24.2246 -12.3242 -55.6738q1.7002 -7.64941 7.64941 -15.2998q5.9502 -7.64941 12.75 -12.749
q16.999 -11.0498 35.6992 -19.5498q7.64941 -4.25 14.4492 -8.5zM100.598 745.197v0q2.5498 -4.25 5.94922 -8.5l5.09961 -8.5q-17.8496 1.7002 -31.4492 3.40039q-3.39941 0 -6.79883 0.849609q2.5498 5.09961 5.09961 7.64941t7.22461 3.40039
q4.6748 0.849609 14.875 1.7002zM132.046 717.998v0q-1.69922 -8.5 -3.39941 -14.4502q-0.849609 -4.25 -1.7002 -7.64941q-1.7002 0.849609 -3.39941 0.849609q-2.55078 0.849609 -3.40039 1.7002q-0.849609 5.9502 0.849609 10.625q1.7002 4.6748 11.0498 8.9248z" />
    <glyph glyph-name="periodcentered" unicode="&#x2219;" horiz-adv-x="183" 
d="M87.8477 624.5v0q0.849609 6.7998 3.39941 9.34961q2.5498 2.55078 5.52539 2.55078q2.97461 0 5.52441 -0.850586q3.40039 -1.7002 6.7998 -1.7002v-3.39941q0.850586 -1.7002 0.850586 -3.40039l-22.0996 -1.69922q23.7988 -6.7998 43.3486 4.24902
q19.5498 11.0498 28.8994 34.8496q12.749 40.7988 -11.0498 70.123q-23.7998 29.3242 -68.8486 28.4736q-31.4482 -2.5498 -50.5732 -26.7734q-19.124 -24.2246 -12.3242 -55.6738q1.7002 -7.64941 7.64941 -15.2998q5.9502 -7.64941 12.75 -12.749
q16.999 -11.0498 35.6992 -19.5498q7.64941 -4.25 14.4492 -8.5zM100.598 745.197v0q2.5498 -4.25 5.94922 -8.5l5.09961 -8.5q-17.8496 1.7002 -31.4492 3.40039q-3.39941 0 -6.79883 0.849609q2.5498 5.09961 5.09961 7.64941t7.22461 3.40039
q4.6748 0.849609 14.875 1.7002zM132.046 717.998v0q-1.69922 -8.5 -3.39941 -14.4502q-0.849609 -4.25 -1.7002 -7.64941q-1.7002 0.849609 -3.39941 0.849609q-2.55078 0.849609 -3.40039 1.7002q-0.849609 5.9502 0.849609 10.625q1.7002 4.6748 11.0498 8.9248z" />
    <glyph glyph-name="cedilla" unicode="&#xb8;" horiz-adv-x="646" 
d="M294 305q-17 -5 -27 -14t-17 -19q-1 -2 -3 -4q3 -21 5 -42q2 -13 4 -27q4 -9 9 -18q8 -15 15 -29v-0.5t0.5 -0.5t0.5 -0.5v-0.5v2q-25 21 -25 47q-21 34 -8 69q-17 -18 -17 -37.5t7 -38.5q27 -68 83 -128q46 -54 93 -107l78 -88q25 -30 49 -61q6 -9 13 -17q6 -7 2 -16
q-2 1 -3 2q-4 2 -7 5q-17 21 -35 42q-36 43 -73 86q-11 11 -25 21q-6 4 -12 9v0v0v0v0q9 -9 17 -19q19 -22 38 -45q6 -7 13 -15q29 -35 55 -71q8 -11 10 -27q2 -8 5 -17h-22q-19 0 -34 2q-158 25 -284 93q-49 26 -62 68q-17 47 53 56q13 2 27 2q6 0 12 1q8 4 16 10
q9 5 20 13q-31 9 -61 6q-16 -1 -32 0l-0.5 -0.5t-1 -0.5h-0.5v0h2q37 6 73 12q-35 12 -72.5 5t-58.5 -30q-11 -14 -29 -24q-75 -40 -48 -100q19 -50 78 -80q122 -67 276 -91q86 -10 168 5q36 6 56.5 26t18.5 46v25q-1 6 -1 11v0q-6 10 -11 20q-11 23 -27 43q-58 66 -118 131
l-36 40q-88 95 -147 200q-26 35 -1 70h1v0zM313 105q-2 3 -4 5q-2 3 -4 5l-2 1h0.5t0.5 -0.5v-0.5v0l8 -10q2 -2 3 -5q2 -4 5 -8v0q4 -5 8 -9v0l-8 10l-4 6q-1 3 -3 6v0zM95 -189q12 -11 24 -21v0l-2 2q-11 10 -21 19h-1v0zM79 -174q-58 52 -15 96q-9 -45 12 -87q1 -4 3 -9
v0v0zM518 -270q-1 -2 -1 -4q-5 1 -10 1q0 2 1 3v0h10v0zM201 -24q0 3 -1 5l12 -2v-1q0 -1 -1 -2h-10v0zM346 4q11 -32 48 -52v0q-13 13 -25 26t-24 25l1 1v0zM280 76q1 0 1.5 -0.5t0.5 -1v0t-1 0.5h1.5t0 0t-1 0.5t-1.5 0.5v0v0v0v0zM216 181l4 -8q2 -5 5 -11v0q-5 9 -10 19
h1v0zM280 76q-2 4 -3 8l-4 8v0.5t0.5 0.5h0.5q3 -8 6 -17v0v0v0v0v0zM215 181h1h-0.5h-0.5v0v0v0zM225 162v-1v0v0v0.5v0.5v0v0v0v0v0zM321 30l-1 1l1 -1v0v0zM633 -199l1 -1h-0.5t-0.5 0.5v0.5v0v0v0v0v0v0zM257 109l-1 1h0.5h0.5v0v0v0v-0.5v-0.5v0v0zM264 98v1
q-4 5 -7 10v0v0v1v0q3 -5 6 -9l2 -2l-0.5 -0.5l-0.5 -0.5v0v0zM394 -48v0q4 -6 7 -12v0v0v0v0q-4 6 -7 12v0v0v0v0zM345 3v0.5t0.5 0.5h0.5h-0.5t-0.5 -0.5v-0.5v0zM321 30v0v0v0v0v0v0v0zM273 92q-4 3 -9 6v0v0q0 1 0.5 1h0.5l8 -6h1h-0.5t-0.5 -0.5v-0.5v0zM293 305v0h0.5
h0.5v0v0h-0.5h-0.5v0v0z" />
    <glyph glyph-name="uni00B9" unicode="&#xb9;" horiz-adv-x="319" 
d="M10 1230v0q3 -10 9.5 -13t14.5 -4q25 -4 45 8l44 30q12 8 24 17q3 2 8 4q2 2 7 4q-37 -160 -12 -319h-9h-14h-17h-36q-29 -1 -50 -20q10 -20 33 -26q24 -7 48 -13q10 -3 19 -5q12 3 23 6q60 18 120 24q24 1 42 14q-23 10 -47.5 13.5t-48.5 4.5q-7 1 -13 1q-1 3 -1 4
q-1 3 -2 5q0 21 -1 41q-5 81 3 162q4 46 19 91q12 32 28 62q8 14 14 28l4 8q11 29 -17 47q-2 1 -3 2q-11 6 -20 13q-19 15 -47 9q-2 -4 -4 -9l-10 -22q-1 -3 -2 -5q-3 -8 -7 -15q-27 -42 -65 -77l-24 -26q-18 -22 -47 -32q-3 -4 -5 -7t-3 -5z" />
    <glyph glyph-name="ordmasculine" unicode="&#xba;" horiz-adv-x="615" 
d="M597.275 1143.99v0q-0.660156 5.39941 -1.97949 10.7998q-1.98047 11.3994 -1.98047 22.7988q11.2197 86.3965 -38.2783 161.394q-35.6387 49.7979 -94.376 75.5967q-41.5781 17.3994 -84.8066 19.1992q-43.2275 1.7998 -86.126 -5.39941
q-87.1172 -14.3994 -147.504 -60.8975q-60.3877 -46.498 -101.966 -114.296q-15.1797 -22.1992 -19.7998 -47.998q-10.5596 -67.7969 -4.29004 -134.095q6.27051 -66.2969 44.5488 -128.694q1.31934 -1.2002 1.97949 -2.40039q29.0391 -51.5977 74.5771 -92.9961
q44.2178 -35.998 96.3564 -37.1982q52.1377 -1.2002 97.6758 30.5986q36.2988 7.7998 69.627 19.7998q33.3291 11.999 61.708 35.3984q60.7168 49.7979 97.3457 110.095q36.6279 60.2979 37.2881 138.295zM295.668 882.998v0q-15.8398 5.39941 -31.0186 9.59961
q-32.3389 8.99902 -60.0576 20.999q-26.3994 11.999 -43.5586 32.6982t-29.6982 43.498q-41.5791 71.998 -29.3691 139.495t57.748 131.694q46.8574 64.7969 128.034 92.9961q75.8975 24.5996 148.494 -7.19922q30.3584 -11.4004 45.5381 -38.999
q52.1377 -100.195 15.8398 -209.991q-20.46 -57.5977 -58.7383 -101.396q-38.2783 -43.7988 -85.1357 -82.1973q-16.5 -13.1992 -38.2793 -22.1992q-9.89941 -4.19922 -19.7988 -8.99902zM544 505v0q-14 5 -27.5 11q-29 13 -57 17q-67.5 7 -135 0q-89.5 -12 -178 -29
q-24 -4 -47 -8q-7 -2 -15.5 -9q-5 -3 -11 -7q6.5 -8 11.5 -14q7.5 -9 14 -16q-6 -8 -12.5 -17q-5.5 -8 -13 -19q7.5 -5 13.5 -11q11.5 -12 20.5 -14q64.5 -5 129.5 -1q50.5 5 100.5 15q25 4 49.5 8q12 2 24 3q18.5 2 38 6q19.5 5 38.5 12q39.5 18 81 16q6 1 12.5 8q3 3 6 5
q-0.5 4 -0.5 8q-16 5 -33.5 10q-6 2 -12.5 4q0 1 0.5 3q0.5 3 1.5 7t2 12z" />
    <glyph glyph-name="guillemotright" unicode="&#xbb;" horiz-adv-x="650" 
d="M462 473v0v1h1v0q-1 0 -2 -1q-7 -6 -13 -12q-13 -15 -31 -27q-122 -78 -245 -156q-75 -49 -151 -97q-5 -3 -7 -9q-2 -3 -4 -7q7 2 12 2q7 1 11 2l64 30q86 38 166 79q92 48 170 101q90 63 171 127q1 2 3 3q33 29 9 62q-33 47 -98 85q-52 34 -103 68q-54 36 -110 72
q-69 44 -139 87q-25 15 -49 30q-25 17 -62 2q7 -7 13 -14q13 -15 30 -27q39 -28 79 -55l50 -34q120 -83 240 -167q21 -15 43 -31q10 -7 21 -15q-5 -6 -9 -12q-9 -12 -19 -24q-17 -19 -41 -36q-37 -25 -54 -56v0h-0.5t-0.5 0.5v0.5v0q27 14 53 27q1 1 2 1zM494 500v0l1 -2
l-2 1q11 1 22 1l2 14v1q1 0 2 1h1h-4q-1 -9 -1 -16h-21zM541 535v0v-3v2l0.5 0.5t1 0.5t1 0.5l0.5 0.5zM326 530v0q-3 2 -6 3t-7 2v-0.5v-1v-0.5v0v0v0.5v0.5v0q5 -2 10 -3q1 -1 2 -1q14 19 4 36t-29 33q-54 44 -113 88q-16 12 -32 23q-9 7 -21 12q-5 3 -11 6q-18 1 -40 2
q-8 0 -16 1q43 -52 99 -98q38 -31 71 -64q-6 -5 -12 -11q-11 -10 -23 -20q-24 -19 -48 -37q-32 -24 -63 -48q-16 -13 -30 -28l-15 -15q18 3 30 6q8 1 14 3l-3 1h0.5t0.5 -0.5t0.5 -0.5h0.5q-14 -16 -29 -32q-10 -10 -20 -21q-4 -5 -9 -9l8 -4q4 -1 8 -3q6 5 12 9
q13 10 28 20q40 24 81 48q56 34 111 67q18 12 33 25q7 5 14 11zM347 408v0v0h0.5h0.5v0q-111 -50 -187 -116q63 35 121 72q23 15 45 31q10 6 20 13zM392 438v0l1 -1q-23 -15 -45 -29v0v0h-1v0q22 14 43 29q1 0 2 1zM393 437v0h-0.5h-0.5v0.5v0.5h1q7 4 14 7v0v-0.5v-0.5h1v0
v0q-8 -3 -15 -7v0z" />
    <glyph glyph-name="onequarter" unicode="&#xbc;" horiz-adv-x="798" 
d="M100 880v0q1 -6 6 -8t10 -3q17 -3 31 6q15 9 30 19q8 6 16 11q3 2 6 3q2 1 5 2q-26 -105 -8 -212h-6h-10h-11h-25q-20 -1 -35 -14q7 -12 22 -17q18 -4 34 -8q7 -2 13 -4q8 2 15 4q42 13 83 17q16 1 29 8q-15 8 -32 10t-34 3h-9q0 2 -1 3q-1 2 -1 4q0 13 -1 27
q-3 54 2 108q3 31 13 60q9 21 20 42q5 9 9 18q2 3 3 6q7 19 -12 31l-1 1q-8 4 -15 9q-13 10 -32 6q-2 -3 -2 -6q-4 -7 -7 -15q-1 -1 -2 -3q-1 -5 -5 -10q-18 -28 -44 -51l-17 -17q-12 -15 -32 -22q-2 -3 -4 -5q0 -1 -1 -3zM504 154v0q13 4 24 8q26 10 52 19q36 12 78 21
q-5 -78 9 -152q5 -1 9 -1q3 -1 8 -1q0 1 1 3q3 3 3 6q0 13 3 26q2 8 2 16q3 25 5 50q1 25 4 51q4 28 10 57q1 6 1 11q6 27 12 55q2 11 5 22q-3 3 -4 6l-4 4q-5 1 -10.5 1t-8.5 -3q-18 -17 -34 -35q-2 -2 -3 -5.5t-1 -7.5q0 -5 1 -11t1 -11q0 -15 -1 -31v-13
q-75 -21 -151 -36q3 11 9 19q28 33 58 66q14 15 30 30h1l12 10l14 12l3 3q6 6 12 10.5t15 5.5q8 19 4 36t-22 26q-11 -4 -16.5 -7t-8.5 -7.5t-7 -13.5q-3 -7 -6 -12l-10 -14q-12 -16 -26 -32q-23 -22 -45 -45q-14 -12 -26 -25q-29 -28 -47 -60q6 -17 16.5 -30t28.5 -21z
M155 289v0l-1 1q9 3 17 7q5 4 9 8v0l-0.5 0.5l-0.5 0.5q-4 -4 -8 -9h-1q-6 -11 -14 -22l-2 -2h1q-5 -7 -10 -15l-6 -10v2q-4 -5 -9 -10l1 1l-14 -24l-32 -56q-17 -28 -35 -56q-16 -24 -32 -49q-6 -9 -7 -19.5t14 -23.5l8 10q9 11 18 21q30 32 61 63q20 20 40 41l18 18
q23 22 43 46q24 30 48 59q100 122 195 248q70 95 136 193q32 45 63 90q45 65 92 131q20 29 41 58q-6 14 -11 27q-1 3 -1 5q-58 -3 -89 -46q-17 -19 -33 -39q-96 -118 -191 -236q-129 -163 -255 -328q-20 -28 -37 -58q-7 -13 -16 -27zM432 635v0q-5 -4 -9 -8v-0.5v-0.5v0v0
q5 4 9 9q1 0 0.5 0h-0.5v0v0zM448 659v0h1l8 8q3 7 8 15q4 5 9 9q3 4 7 8q1 3 2 3q0 2 0 1.5t-1 -2.5v0q1 1 2 1v1v-1l-1 -1l-2 -2q-4 -3 -8 -7q-5 -5 -9 -10q-4 -6 -7 -13q0 -1 -1 -2zM684 948v0v0q4 3 7 6q2 1 2 2v0v0.5v0.5v0q-2 -2 -5 -4q0 -1 -1 -3h-1zM196 330v0v0
v-0.5v-0.5l9 9h-0.5h-0.5v0v0zM407 603v0l1 -1l-0.5 0.5l-0.5 0.5v0z" />
    <glyph glyph-name="onehalf" unicode="&#xbd;" horiz-adv-x="912" 
d="M147 899v0q2 -7 7 -9t11 -2q18 -3 33 5q15 10 31 21q9 5 18 11q3 1 6 3q2 1 5 2q-27 -108 -8 -216h-6h-11h-12h-27q-21 -1 -37 -14q8 -13 24 -17q18 -5 36 -9q7 -2 13 -4q9 2 17 5q44 12 89 16q16 0 30 9q-16 7 -34.5 9.5t-35.5 2.5q-6 0 -10 1q0 2 -1 3q-1 2 -1 4
q0 13 -1 27q-3 55 2 110q4 32 14 62q9 22 21 42q6 9 10 19q2 3 3 6q8 19 -13 31q0 1 -1 2q-8 4 -15 8q-14 11 -35 7q-2 -3 -2 -6q-4 -7 -8 -15q0 -2 -1 -4q-3 -5 -6 -9q-19 -30 -46 -54q-10 -8 -19 -16q-13 -16 -35 -22q-1 -3 -3 -5q-1 -3 -2 -4zM616 196v0q2 2 3 4l7 7
q55 48 101 103q30 34 44 76q9 23 1 47q-4 15 -13.5 26t-26.5 16q-37 9 -70 -5q-34 -13 -58 -37q-36 -34 -40 -80q-1 -16 11.5 -26t30.5 -7v0q3 7 4 10.5t1 7t-1 9.5q-9 35 19 61q32 27 74 35q5 1 9 0h1q34 -3 33 -34q0 -8 -5 -15q0 -1 -1 -3q-12 -18 -25 -34
q-51 -58 -110 -110q-26 -26 -58 -46q-20 -10 -35 -30q6 -12 12 -23q2 -1 3 -1q2 -2 5 -3q14 -9 30 -1q4 2 9 5q4 1 8 3q17 10 35 9t35 -9q25 -11 50 -25q9 -5 19 -10q23 -14 52 -14q47 3 91 14q27 6 41 28v1q-2 3 -4 4.5t-4.5 2t-7.5 0.5h-39q-30 0 -60 1q-25 0 -50 3
t-48 13q-18 6 -37 13q-10 4 -20 7q-5 2 -11 5q-2 1 -5 2zM164 288v0v0q8 4 17 8q5 4 9 9v0v0v0q-5 -4 -9 -9v0q-8 -11 -15 -22q-1 -2 -2 -2v0q-5 -8 -11 -15q-3 -5 -7 -10h1l-10 -8h1q-8 -13 -15 -25q-16 -28 -33 -56q-19 -29 -38 -57l-34 -50q-7 -10 -7.5 -21t15.5 -23
l8 10q9 11 19 21q32 32 65 64l43 43q9 8 19 18q25 23 46 47q26 30 50 60q107 125 209 252q74 97 145 196q34 47 67 94q49 65 98 131q22 30 44 61l-12 28l-2 4q-61 -3 -94 -47q-17 -20 -35 -40q-102 -119 -203 -241q-138 -165 -272 -334q-22 -27 -39 -58q-9 -15 -18 -28z
M459 641v0l-9 -9v0v0v0v0l10 8v0.5t-0.5 0.5h-0.5v0zM476 665v0h1q4 4 9 8q4 8 8 15q4 5 10 10l8 8q1 2 1 4q1 0 0.5 0t-0.5 -2v0q1 1 1 2h1h-1q0 -1 -1 -2l-1 -1q-5 -5 -9 -8q-5 -6 -10 -10q-4 -7 -7 -14v-1q-5 -5 -10 -9zM728 960v0l1 -1q4 3 7 7l2 2v0v0v0v0q-3 -2 -5 -3
q-1 -2 -2 -3h-1zM207 330v0v-0.5v-0.5v0q6 4 10 9v0h-0.5h-0.5v0q-4 -5 -9 -8zM433 608v0l1 -1v0l-0.5 0.5z" />
    <glyph glyph-name="threequarters" unicode="&#xbe;" horiz-adv-x="912" 
d="M222 897v0v6v13q-1 16 5.5 30t25.5 22q41 19 86 31l4 2q16 4 33 3q-2 -7 -7.5 -12t-11.5 -9q-2 -1 -5 -2q-15 -11 -32 -22t-34 -23q-26 -18 -41 -42q-10 -19 9 -34q8 -7 20 -11q18 -6 37 -10q3 -1 5 -2q36 -8 67 -26q28 -17 23 -43q-5 -25 -30 -39q-65 -35 -145 -36
q-22 0 -42 8q-52 22 -13 57l16 16q3 4 7 7q-2 1 -3 3q-31 -8 -58 -18.5t-44 -31.5q2 -5 4 -9q3 -8 6 -15q5 -17 24 -27q1 -1 3 -1q14 -7 29 -14q24 -13 54 -18q32 -8 66 -1q62 12 113 43h1q3 2 6 3q25 8 36 27q7 12 14 23q19 42 -24 72q-23 14 -49 24.5t-54 18.5q-3 1 -6 3
q-20 5 -37 18q1 0 1 1q18 17 37 32q6 6 14 11q37 27 67 57q18 17 3 38q-5 2 -11 2q-13 4 -28 5q-99 1 -177 -46q-24 -15 -29.5 -41t17.5 -45q8 -2 18 -5q6 -1 11 -3q3 2 8 4q5 3 11 6zM580 184v0q15 4 29 9l64 20q45 13 96 22q-7 -84 10 -164q6 -1 12 -1q5 -1 8 -1l3 3
q3 4 3 7q1 14 4 28q2 9 3 17q4 27 6 54q1 27 4 55q5 31 13 62q1 6 3 12q6 30 13 59q3 13 6 25q-2 3 -5 5q-2 3 -4 5q-8 2 -14 1.5t-11 -3.5q-22 -18 -41 -37q-3 -3 -3.5 -6.5t-0.5 -7.5v-13q1 -6 1 -12q0 -16 -1 -34v-13q-92 -24 -185 -39q4 11 11 20q35 36 71 71
q18 17 38 33v1q7 5 15 11q10 6 17 13l4 2q7 7 15 11.5t18 6.5q10 21 5 39t-27 28q-13 -4 -20 -7t-11 -8.5t-9 -15.5q-2 -7 -7 -12q-6 -8 -13 -16q-13 -18 -31 -34q-29 -24 -55 -49q-16 -13 -33 -27q-35 -31 -57 -65q7 -18 20.5 -32.5t35.5 -22.5zM176 286v0v0q8 4 18 8
q6 4 10 9v0v0v0q-5 -4 -10 -9v0q-9 -11 -16 -22q-1 -2 -2 -2v0q-6 -7 -12 -15q-4 -5 -7 -10l1 1q-6 -4 -11 -9l1 1q-8 -13 -16 -25q-17 -29 -36 -56q-20 -28 -41 -57q-18 -24 -36 -50q-8 -9 -8.5 -20t16.5 -23q5 5 9 10q9 11 21 21q34 32 69 64q24 21 47 42q9 8 20 18
q27 22 49 47q28 30 55 59q115 124 224 251q80 96 157 194q36 47 72 93q52 65 105 131q23 30 47 60q-5 14 -12 28l-2 4q-67 -3 -102 -47q-18 -20 -37 -39q-110 -119 -219 -240q-149 -164 -293 -331q-23 -28 -42 -58q-10 -15 -19 -28zM494 637v0q-5 -5 -11 -10v0h0.5h0.5v0
q5 5 11 9v0.5t-0.5 0.5h-0.5v0zM512 661v0h1q5 3 9 8q5 8 9 15q5 5 10 9l10 8q1 2 1 4q1 0 0.5 0t-0.5 -2v0q1 1 1 2h1h-1q0 -1 -1 -1.5t-2 -1.5l-10 -8q-4 -5 -10 -10l-8 -14v-1q-4 -4 -10 -8zM783 954v0l1 -1q4 3 8 7q1 0 2 2v0v0v0v0l-6 -4l-2 -2q0 -1 -1 -1q-1 -1 -2 -1
zM222 328v0v-0.5v-0.5v0q6 4 11 9v0h-0.5h-0.5v0q-5 -5 -10 -8zM465 604v0l1 -1v0l-0.5 0.5z" />
    <glyph glyph-name="questiondown" unicode="&#xbf;" horiz-adv-x="788" 
d="M417 1021v0l1 1q31 -75 1 -155q-72 -231 -178 -442q-22 -44 -44 -87q-73 -144 -143 -291q-20 -44 -33 -94q-6 -23 -13 -45v0v-25q0 -27 -1 -54q-1 -57 24 -100.5t70 -54.5q102 -31 207 -8q190 56 339 206q73 69 95 177q32 133 -61 219q-22 22 -36 53q-26 48 -72.5 62.5
t-89.5 -11.5q44 -12 90 -24l3 -1h-0.5t-1 0.5t-1 0.5h-0.5q-19 -2 -39 0q-37 6 -75 -14q14 -17 25 -29q10 -11 19 -21q8 -2 16 -2q16 -1 33 -3q86 -19 67 -122q-16 -94 -76 -151q-155 -151 -349 -211q-18 -4 -42 -4q-12 0 -27 -2q3 21 5 37q3 36 12 61q32 80 68 156
q7 18 15 35q23 50 46 98q10 22 20 43h0.5h0.5v-0.5v-0.5q-7 -9 -15 -20q-17 -22 -30 -47q-45 -94 -89 -190q-21 -47 -43 -93q-3 -6 -7 -11l-4 -4q-5 20 1 34q9 19 17 39q28 69 59 135q47 98 94 195q58 118 114 237q67 132 99 281q9 43 8.5 85.5t-21.5 82.5q16 -77 -9 -151
q0 -58 -30 -104v-3v0l0.5 0.5t0.5 1v0.5l18 64q6 21 11 41l4 60l6 90l-4 10q-9 22 -21 41t-34 29zM397 583v0q-2 -6 -4 -14q-2 -7 -4 -13q-5 -10 -10 -21v-1l10 20v1q3 8 6 18q2 5 3 8l10 24v0.5t0.5 0.5t0.5 1v1l-2 -2q-2 -6 -5 -12q-2 -5 -5 -11zM671 -58v0v1l-26 -42
q-1 -2 -3 -4l1 -2q14 24 28 47zM691 -22v0v-2q2 11 4 21q25 92 13 190q54 -95 -17 -209zM152 -245v0h11h1q1 -3 1 -5q-6 -2 -12 -3q-1 3 -1 8zM538 303v0h-13v3q-1 1 -1 3l14 4v-10zM385 1237v0v0q-26 -42 -8 -88q2 8 5 16q2 6 5 12v0.5v1v1v0.5v0v0l-0.5 -0.5t-0.5 -1v-0.5
q-4 -11 -7 -21q-2 -4 -3 -8v-19v1q5 0 11 1h15q-1 -5 -3 -10q-4 -24 -9 -43q73 -11 96 32q19 46 -30 89q-14 10 -30 17l-12 6l-20 10q-5 2 -9 4zM437 1141v0v8q1 1 3 1v0q1 -2 1 -4t1 -4q-1 -1 -3 -1h-2zM359 360v0v0q-14 -29 -29 -57q-15 -29 -29 -59l-1 2q46 45 59 114z
M438 521v0v0l0.5 -1l0.5 -1q-2 0 -2.5 -0.5l-1 -1t0 0l1.5 1.5q-1 -2 -1 -2.5v0t0.5 1.5zM516 753v0l1 -1l-12 -42h-1q4 13 7 25q3 8 5 18zM439 519v0l-0.5 1l-0.5 1v0v0q4 17 8 35v0h0.5h0.5l-4 -18t-4 -19zM517 752v0l-0.5 0.5l-0.5 0.5v0v0zM504 710v0h0.5h0.5v0v0v-0.5
v-1t-0.5 -1.5l-0.5 -1v4zM389 418v0l-1 1l2 2zM8 -92v0v0v0v0v0v-0.5v-1t-0.5 -1l-0.5 -0.5zM466 593v0v0v0.5v0.5v0v0l0.5 1l0.5 1v0zM458 569v0h-0.5t-0.5 1v1q1 1 2 3q3 11 7 20v0v0v-1v0q-4 -10 -8 -22v-2zM300 246v0v0l0.5 -1l0.5 -1q-5 -13 -9 -26v0.5v0.5h-1v0
q5 13 9 27v0zM359 360v0v0v0v0v0v0v0zM388 419v0q0 -1 0.5 -1h0.5v0v0h-0.5t-0.5 1zM447 556v0h-0.5h-0.5v0q0 2 1 2q5 5 10 13v-1v-1h1v0q-6 -7 -11 -13zM418 1022v0v0v0l-0.5 -0.5l-0.5 -0.5l0.5 0.5l0.5 0.5v0v0zM376 1131v0v0v-0.5v-0.5v0.5v0.5v0zM385 1237v0v0v0v0v0
q0 1 1 2l9 9v-1q-5 -5 -9 -10h-1zM395 1247v0v0v0.5v0.5v-0.5v-0.5v0z" />
    <glyph glyph-name="Agrave" unicode="&#xc0;" 
d="M698 1313v0v1l-6 -6l-6 -6l2 1q-3 0 -6 1h-7l1 -2q-2 -4 -4 -9t-4 -9h-2v-6v-6l1 1l-11 -11l1 1h-12v-2q-49 -116 -165 -164q12 -33 24 -41.5t42 -4.5q18 2 35 6q15 4 29 6q12 1 26 0h15q-1 -8 -1 -14q-1 -12 -4 -20q-4 -9 -7 -18q-37 -83 -77 -165q-51 -104 -107 -206
q-2 -4 -4 -7q-58 -110 -121 -218q-70 -114 -146 -224q-34 -50 -81 -89q-46 -32 -80 -90q12 -12 25 -24q3 -4 6 -7q17 2 33 4q31 5 59 5q50 0 86.5 24t67.5 58q2 1 3 3q8 7 14 16l44 64q64 90 124 182q29 50 79 74q52 23 104 47q88 40 177 79q18 7 39 12q9 2 19 4q2 -7 4 -13
q3 -11 5 -21l16 -84q15 -87 32 -173q11 -57 33 -111q14 -39 38 -69t68 -44q21 -9 38 -31q8 -9 16 -17q60 -34 190.5 -52t244.5 -10q4 7 7 14l7 14q-212 92 -334 256.5t-185 378.5q33 16 71 17q26 3 50.5 9.5t45.5 27.5q-32 21 -65 25.5t-66 3.5q-39 -1 -76 7
q-78 196 -154 387q10 25 28 40.5t38 27.5q23 13 40 30q15 68 -25 118q-18 26 -33 53q-11 19 -23 37q-13 19 -26 36q-7 8 -13 16q-51 0 -90 -17.5t-62 -65.5q-6 -11 -17 -21q-4 -4 -8 -9zM624 583v0q31 69 59 136q54 139 135 272q31 -102 47 -197q11 -63 26 -126
q-23 -7 -47 -14q-104 -34 -220 -71zM513 1086v0q3 0 4 0.5t0.5 0t-4.5 -0.5q4 -1 4.5 -1t-1 0.5t-3.5 0.5zM687 1314v0h-1v0h12v-0.5v-0.5v0v0q-5 0 -10 1h-1zM676 1302v0l-0.5 0.5l-0.5 0.5v0.5v0.5q7 0 13 -1h-0.5h-0.5l-0.5 -0.5l-0.5 -0.5v12v0h0.5h0.5v0q-5 -6 -11 -12
zM657 1273v0l-1 1q5 -1 11 -1v0v-0.5t-0.5 -0.5h-0.5v12h0.5h0.5h0.5h0.5zM645 1261v0v2h12v-0.5t-0.5 -0.5h-0.5v0v12v-0.5t0.5 -0.5h0.5v0zM786 1639q-3 6 -6 11v0.5t0.5 0.5t0.5 0.5v0.5q-4 0 -7 -1h-1h-1v0v0v0v0v7v-1q-20 22 -39 42h-38q-7 -9 -14 -19q-2 -2 -4 -5
q6 -7 11 -16l24 -36q7 -10 13 -20q23 -33 45 -65q46 -70 117 -104l-18 48v0v-1l8 -4q6 -4 15 -8v2q-7 37 -26 64q-19 26 -39 52q-8 12 -17 23v0.5t-0.5 0.5t-0.5 0.5v0.5l0.5 -0.5l0.5 -0.5h0.5h0.5q-5 5 -12 11l0.5 0.5l0.5 0.5v0v0v-1q-8 8 -14 17q0 1 0 0.5v-0.5v0v0z
M780 1650q-4 4 -8 7v0v0v0.5v0.5v-6v-1v0v0v0v0q5 1 9 1v-0.5v-0.5h-0.5t-0.5 -0.5v-0.5v0z" />
    <glyph glyph-name="Aacute" unicode="&#xc1;" 
d="M673 1330v0v1l-6 -6l-6 -6l2 1q-3 0 -6 1h-7l1 -2q-2 -4 -4 -9t-4 -9h-2v-6v-6l1 1l-11 -11l1 1h-12v-2q-49 -116 -165 -164q12 -33 24 -41.5t42 -4.5q18 2 35 6q15 4 29 6q12 1 26 0h15q-1 -8 -1 -14q-1 -12 -4 -20q-4 -9 -7 -18q-37 -83 -77 -165q-51 -104 -107 -206
q-2 -4 -4 -7q-58 -110 -121 -218q-70 -114 -146 -224q-34 -50 -81 -89q-46 -32 -80 -90q12 -12 25 -24q3 -4 6 -7q17 2 33 4q31 5 59 5q50 0 86.5 24t67.5 58q2 1 3 3q8 7 14 16l44 64q64 90 124 182q29 50 79 74q52 23 104 47q88 40 177 79q18 7 39 12q9 2 19 4q2 -7 4 -13
q3 -11 5 -21l16 -84q15 -87 32 -173q11 -57 33 -111q14 -39 38 -69t68 -44q21 -9 38 -31q8 -9 16 -17q60 -34 190.5 -52t244.5 -10q4 7 7 14l7 14q-212 92 -334 256.5t-185 378.5q33 16 71 17q26 3 50.5 9.5t45.5 27.5q-32 21 -65 25.5t-66 3.5q-39 -1 -76 7
q-78 196 -154 387q10 25 28 40.5t38 27.5q23 13 40 30q15 68 -25 118q-18 26 -33 53q-11 19 -23 37q-13 19 -26 36q-7 8 -13 16q-51 0 -90 -17.5t-62 -65.5q-6 -11 -17 -21q-4 -4 -8 -9zM599 600v0q31 69 59 136q54 139 135 272q31 -102 47 -197q11 -63 26 -126
q-23 -7 -47 -14q-104 -34 -220 -71zM488 1103v0q3 0 4 0.5t0.5 0t-4.5 -0.5q4 -1 4.5 -1t-1 0.5t-3.5 0.5zM662 1331v0h-1v0h12v-0.5v-0.5v0v0q-5 0 -10 1h-1zM651 1319v0l-0.5 0.5l-0.5 0.5v0.5v0.5q7 0 13 -1h-0.5h-0.5l-0.5 -0.5l-0.5 -0.5v12v0h0.5h0.5v0q-5 -6 -11 -12
zM632 1290v0l-1 1q5 -1 11 -1v0v-0.5t-0.5 -0.5h-0.5v12h0.5h0.5h0.5h0.5zM620 1278v0v2h12v-0.5t-0.5 -0.5h-0.5v0v12v-0.5t0.5 -0.5h0.5v0zM716 1509v0v1v0v0v-0.5v-0.5q-5 -15 -9 -31q-1 0 -1 -1q4 0 7 -2q8 6 18 13q3 -15 -2 -30q-8 -18 1 -39q6 7 11 13q10 11 20 20
q13 12 27 23q18 15 35 31q52 49 101 100l12 10q25 22 34 48q-7 9 -13 17q-4 5 -7 9q-19 1 -28 0.5t-16 -2.5t-19 -8q-1 -1 -3 -1q-48 -19 -79 -49l-5 -5q-39 -39 -75 -79q-8 -8 -12 -17.5t3 -19.5zM759 1565v0v0v0v0.5t0.5 0.5h0.5v0zM730 1528v0v0v0l0.5 0.5l0.5 0.5v0v0z
" />
    <glyph glyph-name="Acircumflex" unicode="&#xc2;" 
d="M672 1339v0v1l-6 -6l-6 -6l2 1q-3 0 -6 1h-7l1 -2q-2 -4 -4 -9t-4 -9h-2v-6v-6l1 1l-11 -11l1 1h-12v-2q-49 -116 -165 -164q12 -33 24 -41.5t42 -4.5q18 2 35 6q15 4 29 6q12 1 26 0h15q-1 -8 -1 -14q-1 -12 -4 -20q-4 -9 -7 -18q-37 -83 -77 -165q-51 -104 -107 -206
q-2 -4 -4 -7q-58 -110 -121 -218q-70 -114 -146 -224q-34 -50 -81 -89q-46 -32 -80 -90q12 -12 25 -24q3 -4 6 -7q17 2 33 4q31 5 59 5q50 0 86.5 24t67.5 58q2 1 3 3q8 7 14 16l44 64q64 90 124 182q29 50 79 74q52 23 104 47q88 40 177 79q18 7 39 12q9 2 19 4q2 -7 4 -13
q3 -11 5 -21l16 -84q15 -87 32 -173q11 -57 33 -111q14 -39 38 -69t68 -44q21 -9 38 -31q8 -9 16 -17q60 -34 190.5 -52t244.5 -10q4 7 7 14l7 14q-212 92 -334 256.5t-185 378.5q33 16 71 17q26 3 50.5 9.5t45.5 27.5q-32 21 -65 25.5t-66 3.5q-39 -1 -76 7
q-78 196 -154 387q10 25 28 40.5t38 27.5q23 13 40 30q15 68 -25 118q-18 26 -33 53q-11 19 -23 37q-13 19 -26 36q-7 8 -13 16q-51 0 -90 -17.5t-62 -65.5q-6 -11 -17 -21q-4 -4 -8 -9zM598 609v0q31 69 59 136q54 139 135 272q31 -102 47 -197q11 -63 26 -126
q-23 -7 -47 -14q-104 -34 -220 -71zM487 1112v0q3 0 4 0.5t0.5 0t-4.5 -0.5q4 -1 4.5 -1t-1 0.5t-3.5 0.5zM661 1340v0h-1v0h12v-0.5v-0.5v0v0q-5 0 -10 1h-1zM650 1328v0l-0.5 0.5l-0.5 0.5v0.5v0.5q7 0 13 -1h-0.5h-0.5l-0.5 -0.5l-0.5 -0.5v12v0h0.5h0.5v0q-5 -6 -11 -12
zM631 1299v0l-1 1q5 -1 11 -1v0v-0.5t-0.5 -0.5h-0.5v12h0.5h0.5h0.5h0.5zM619 1287v0v2h12v-0.5t-0.5 -0.5h-0.5v0v12v-0.5t0.5 -0.5h0.5v0zM829 1655v0l-2 -6t-2 -5v0h0.5h1h0.5h-0.5h-0.5h-0.5h-0.5l4 8q0 1 1 1q-19 12 -35.5 4t-31.5 -24q-43 -45 -85 -94
q-11 -14 -23 -27q-6 -7 -11 -16l-6 -10q-1 -14 -2 -34q0 -6 -1 -12q51 35 95 82q30 31 62 58l10 -10q10 -8 20 -19q18 -20 36 -39q23 -27 46 -53q12 -12 27 -24q7 -6 14 -13q-3 16 -5 25q-2 6 -3 12l-1 -3v0.5v0.5v0.5v0.5q15 -12 31 -24q10 -8 21 -17q4 -4 9 -7q1 3 3 7
q1 3 3 6q-4 5 -9 10q-10 11 -18 23q-24 34 -47 67q-32 46 -65 92q-11 15 -24 27q-6 7 -11 13z" />
    <glyph glyph-name="Atilde" unicode="&#xc3;" 
d="M660 1329v0v1l-6 -6l-6 -6l2 1q-3 0 -6 1h-7l1 -2q-2 -4 -4 -9t-4 -9h-2v-6v-6l1 1l-11 -11l1 1h-12v-2q-49 -116 -165 -164q12 -33 24 -41.5t42 -4.5q18 2 35 6q15 4 29 6q12 1 26 0h15q-1 -8 -1 -14q-1 -12 -4 -20q-4 -9 -7 -18q-37 -83 -77 -165q-51 -104 -107 -206
q-2 -4 -4 -7q-58 -110 -121 -218q-70 -114 -146 -224q-34 -50 -81 -89q-46 -32 -80 -90q12 -12 25 -24q3 -4 6 -7q17 2 33 4q31 5 59 5q50 0 86.5 24t67.5 58q2 1 3 3q8 7 14 16l44 64q64 90 124 182q29 50 79 74q52 23 104 47q88 40 177 79q18 7 39 12q9 2 19 4q2 -7 4 -13
q3 -11 5 -21l16 -84q15 -87 32 -173q11 -57 33 -111q14 -39 38 -69t68 -44q21 -9 38 -31q8 -9 16 -17q60 -34 190.5 -52t244.5 -10q4 7 7 14l7 14q-212 92 -334 256.5t-185 378.5q33 16 71 17q26 3 50.5 9.5t45.5 27.5q-32 21 -65 25.5t-66 3.5q-39 -1 -76 7
q-78 196 -154 387q10 25 28 40.5t38 27.5q23 13 40 30q15 68 -25 118q-18 26 -33 53q-11 19 -23 37q-13 19 -26 36q-7 8 -13 16q-51 0 -90 -17.5t-62 -65.5q-6 -11 -17 -21q-4 -4 -8 -9zM586 599v0q31 69 59 136q54 139 135 272q31 -102 47 -197q11 -63 26 -126
q-23 -7 -47 -14q-104 -34 -220 -71zM475 1102v0q3 0 4 0.5t0.5 0t-4.5 -0.5q4 -1 4.5 -1t-1 0.5t-3.5 0.5zM649 1330v0h-1v0h12v-0.5v-0.5v0v0q-5 0 -10 1h-1zM638 1318v0l-0.5 0.5l-0.5 0.5v0.5v0.5q7 0 13 -1h-0.5h-0.5l-0.5 -0.5l-0.5 -0.5v12v0h0.5h0.5v0q-5 -6 -11 -12
zM619 1289v0l-1 1q5 -1 11 -1v0v-0.5t-0.5 -0.5h-0.5v12h0.5h0.5h0.5h0.5zM607 1277v0v2h12v-0.5t-0.5 -0.5h-0.5v0v12v-0.5t0.5 -0.5h0.5v0zM607 1570v0v0.5v0.5v0v0v0q35 27 71 13q4 -6 8 -11q7 -10 15 -17q35 -26 72 -50q62 -37 137 -12t117 119q4 8 2.5 15t-10.5 13
q-6 -1 -13 -3q-18 -3 -35 -10q-45 -19 -90 -42q-59 -33 -120 1q-16 9 -33 17q-8 4 -17 9q-52 25 -108 13q-26 -5 -34 -18.5t-5 -46.5l14 -4l6 -2l10 6q7 5 13 9zM822 1513v0q27 -2 54 -5q-35 -11 -53 5q-4 0 -7 -1h-7l1 1v3q6 -2 12 -3zM607 1571v0v0v0v-0.5v-0.5q1 1 2 0
l-1 1h-1z" />
    <glyph glyph-name="Adieresis" unicode="&#xc4;" 
d="M651 1312v0v1l-6 -6l-6 -6l2 1q-3 0 -6 1h-7l1 -2q-2 -4 -4 -9t-4 -9h-2v-6v-6l1 1l-11 -11l1 1h-12v-2q-49 -116 -165 -164q12 -33 24 -41.5t42 -4.5q18 2 35 6q15 4 29 6q12 1 26 0h15q-1 -8 -1 -14q-1 -12 -4 -20q-4 -9 -7 -18q-37 -83 -77 -165q-51 -104 -107 -206
q-2 -4 -4 -7q-58 -110 -121 -218q-70 -114 -146 -224q-34 -50 -81 -89q-46 -32 -80 -90q12 -12 25 -24q3 -4 6 -7q17 2 33 4q31 5 59 5q50 0 86.5 24t67.5 58q2 1 3 3q8 7 14 16l44 64q64 90 124 182q29 50 79 74q52 23 104 47q88 40 177 79q18 7 39 12q9 2 19 4q2 -7 4 -13
q3 -11 5 -21l16 -84q15 -87 32 -173q11 -57 33 -111q14 -39 38 -69t68 -44q21 -9 38 -31q8 -9 16 -17q60 -34 190.5 -52t244.5 -10q4 7 7 14l7 14q-212 92 -334 256.5t-185 378.5q33 16 71 17q26 3 50.5 9.5t45.5 27.5q-32 21 -65 25.5t-66 3.5q-39 -1 -76 7
q-78 196 -154 387q10 25 28 40.5t38 27.5q23 13 40 30q15 68 -25 118q-18 26 -33 53q-11 19 -23 37q-13 19 -26 36q-7 8 -13 16q-51 0 -90 -17.5t-62 -65.5q-6 -11 -17 -21q-4 -4 -8 -9zM577 582v0q31 69 59 136q54 139 135 272q31 -102 47 -197q11 -63 26 -126
q-23 -7 -47 -14q-104 -34 -220 -71zM466 1085v0q3 0 4 0.5t0.5 0t-4.5 -0.5q4 -1 4.5 -1t-1 0.5t-3.5 0.5zM640 1313v0h-1v0h12v-0.5v-0.5v0v0q-5 0 -10 1h-1zM629 1301v0l-0.5 0.5l-0.5 0.5v0.5v0.5q7 0 13 -1h-0.5h-0.5l-0.5 -0.5l-0.5 -0.5v12v0h0.5h0.5v0q-5 -6 -11 -12
zM610 1272v0l-1 1q5 -1 11 -1v0v-0.5t-0.5 -0.5h-0.5v12h0.5h0.5h0.5h0.5zM598 1260v0v2h12v-0.5t-0.5 -0.5h-0.5v0v12v-0.5t0.5 -0.5h0.5v0zM562 1503q1 -8 3 -16q3 -17 9 -33q17 -42 88 -27q8 8 18 16q12 11 24 21q-17 22 -31 40q-2 4 -4 7v1v0v0l-0.5 -0.5l-0.5 -0.5v0
q2 -4 4 -7q4 -4 9 -7q11 -8 23 -15q11 -7 22.5 -5.5t34.5 12.5q1 3 3 5l10 18h-3q-5 0 -9 -1q27 51 39.5 75t14.5 35t0 21q-3 -2 -5 -5q-4 -4 -7 -9q-1 -1 -2 -3q-2 -2 -4 -5t-6 -7q2 13 6 31q-52 -50 -82 -105q-9 -15 -20 -32q-39 37 -69 76q-9 12 -19 23l1 1
q-7 -5 -9 -4.5t-2 3t1 5.5q0 1 1 2v1l-20 5q-2 -4 -5 -7q-6 -8 -7 -14q-3 -38 -5 -75q0 -10 -1 -20l8 2h5h-0.5t-1 -0.5l-0.5 -0.5v0l2 2q-4 -1 -7 -2q-3 0 -6 -1v0zM774 1570q-1 0 -2 -1q1 3 3 6h2q-2 -3 -3 -5v0zM944 1488q4 -2 8 -5q1 -1 3 -2q83 71 106 152q-15 4 -32 8
q-21 -27 -40 -52q-20 -28 -42 -56q-13 3 -18 11.5t-5 19.5q-3 35 -36 56q-3 -5 -6 -9q-8 -10 -13 -19q-8 -20 -11 -40q-8 -37 -11 -72q1 -16 5 -30q2 -6 3 -12q2 0 2 -1q1 0 1 -1q-1 2 -3 2q7 -6 15 -11q26 10 43 26.5t32 35.5q-2 4 -5 7v0v0v0v0v0l4 -8v0zM998 1552v-2
q-1 0 -1 1l1 1h2h-0.5h-0.5h-0.5h-0.5v0v0zM1021 1587v0h1q-2 -4 -4 -7l-1 -1v0l4 8v0zM787 1545q-2 -5 -3 -9q2 0 4 1q2 4 3 9q0 -1 -2 -1h-2v0zM608 1606l-8 8v0v-0.5v-0.5v0v0l4 -4q3 -1 5 -2v-0.5v-0.5h-0.5h-0.5v0v0z" />
    <glyph glyph-name="Aring" unicode="&#xc5;" 
d="M674 1344v0v1l-6 -6l-6 -6l2 1q-3 0 -6 1h-7l1 -2q-2 -4 -4 -9t-4 -9h-2v-6v-6l1 1l-11 -11l1 1h-12v-2q-49 -116 -165 -164q12 -33 24 -41.5t42 -4.5q18 2 35 6q15 4 29 6q12 1 26 0h15q-1 -8 -1 -14q-1 -12 -4 -20q-4 -9 -7 -18q-37 -83 -77 -165q-51 -104 -107 -206
q-2 -4 -4 -7q-58 -110 -121 -218q-70 -114 -146 -224q-34 -50 -81 -89q-46 -32 -80 -90q12 -12 25 -24q3 -4 6 -7q17 2 33 4q31 5 59 5q50 0 86.5 24t67.5 58q2 1 3 3q8 7 14 16l44 64q64 90 124 182q29 50 79 74q52 23 104 47q88 40 177 79q18 7 39 12q9 2 19 4q2 -7 4 -13
q3 -11 5 -21l16 -84q15 -87 32 -173q11 -57 33 -111q14 -39 38 -69t68 -44q21 -9 38 -31q8 -9 16 -17q60 -34 190.5 -52t244.5 -10q4 7 7 14l7 14q-212 92 -334 256.5t-185 378.5q33 16 71 17q26 3 50.5 9.5t45.5 27.5q-32 21 -65 25.5t-66 3.5q-39 -1 -76 7
q-78 196 -154 387q10 25 28 40.5t38 27.5q23 13 40 30q15 68 -25 118q-18 26 -33 53q-11 19 -23 37q-13 19 -26 36q-7 8 -13 16q-51 0 -90 -17.5t-62 -65.5q-6 -11 -17 -21q-4 -4 -8 -9zM600 614v0q31 69 59 136q54 139 135 272q31 -102 47 -197q11 -63 26 -126
q-23 -7 -47 -14q-104 -34 -220 -71zM489 1117v0q3 0 4 0.5t0.5 0t-4.5 -0.5q4 -1 4.5 -1t-1 0.5t-3.5 0.5zM663 1345v0h-1v0h12v-0.5v-0.5v0v0q-5 0 -10 1h-1zM652 1333v0l-0.5 0.5l-0.5 0.5v0.5v0.5q7 0 13 -1h-0.5h-0.5l-0.5 -0.5l-0.5 -0.5v12v0h0.5h0.5v0q-5 -6 -11 -12
zM633 1304v0l-1 1q5 -1 11 -1v0v-0.5t-0.5 -0.5h-0.5v12h0.5h0.5h0.5h0.5zM621 1292v0v2h12v-0.5t-0.5 -0.5h-0.5v0v12v-0.5t0.5 -0.5h0.5v0zM802 1361v0q2 -1 5 -1q16 -6 30 -3q53 10 89 42q52 48 68 110q19 74 -26 139q-19 27 -48.5 43t-70.5 18q-56 0 -106.5 -24.5
t-74.5 -65.5q-14 -23 -22 -48q-8 -23 -11 -48q-1 -12 0 -24q1 -7 1 -13q-1 -56 36 -102q9 -11 20.5 -20.5t27.5 -13.5t34 -6q8 -1 17 -2q11 24 -5 41q-15 21 -39 35q-14 9 -22 21q-7 10 -11 20q-2 5 -4 9q-10 22 -5 45l4 20q1 3 2 7q9 50 53 87q46 36 110 39q24 1 44 -6
t34 -24q27 -34 24 -73q-4 -69 -58 -123q-19 -19 -40 -34q-10 -8 -18 -15q-11 -9 -24 -20q-7 -4 -14 -10z" />
    <glyph glyph-name="AE" unicode="&#xc6;" horiz-adv-x="2384" 
d="M697 1324v0v1l-6 -6l-6 -6l2 1q-3 0 -6 1h-7l1 -2q-2 -4 -4 -9t-4 -9h-2v-6v-6l1 1l-11 -11l1 1h-12v-2q-49 -116 -165 -164q12 -33 24 -41.5t42 -4.5q18 2 35 6q15 4 29 6q12 1 26 0h15q-1 -8 -1 -14q-1 -12 -4 -20q-4 -9 -7 -18q-37 -83 -77 -165q-51 -104 -107 -206
q-2 -4 -4 -7q-58 -110 -121 -218q-70 -114 -146 -224q-34 -50 -81 -89q-46 -32 -80 -90q12 -12 25 -24q3 -4 6 -7q17 2 33 4q31 5 59 5q50 0 86.5 24t67.5 58q2 1 3 3q8 7 14 16l44 64q64 90 124 182q29 50 79 74q52 23 104 47q88 40 177 79q18 7 39 12q9 2 19 4q2 -7 4 -13
q3 -11 5 -21l16 -84q15 -87 32 -173q11 -57 33 -111q14 -39 38 -69t68 -44q21 -9 38 -31q8 -9 16 -17q60 -34 190.5 -52t244.5 -10q4 7 7 14l7 14q-212 92 -334 256.5t-185 378.5q33 16 71 17q26 3 50.5 9.5t45.5 27.5q-32 21 -65 25.5t-66 3.5q-39 -1 -76 7
q-78 196 -154 387q10 25 28 40.5t38 27.5q23 13 40 30q15 68 -25 118q-18 26 -33 53q-11 19 -23 37q-13 19 -26 36q-7 8 -13 16q-51 0 -90 -17.5t-62 -65.5q-6 -11 -17 -21q-4 -4 -8 -9zM623 594v0q31 69 59 136q54 139 135 272q31 -102 47 -197q11 -63 26 -126
q-23 -7 -47 -14q-104 -34 -220 -71zM512 1097v0q3 0 4 0.5t0.5 0t-4.5 -0.5q4 -1 4.5 -1t-1 0.5t-3.5 0.5zM686 1325v0h-1v0h12v-0.5v-0.5v0v0q-5 0 -10 1h-1zM675 1313v0l-0.5 0.5l-0.5 0.5v0.5v0.5q7 0 13 -1h-0.5h-0.5l-0.5 -0.5l-0.5 -0.5v12v0h0.5h0.5v0q-5 -6 -11 -12
zM656 1284v0l-1 1q5 -1 11 -1v0v-0.5t-0.5 -0.5h-0.5v12h0.5h0.5h0.5h0.5zM644 1272v0v2h12v-0.5t-0.5 -0.5h-0.5v0v12v-0.5t0.5 -0.5h0.5v0zM1115 1020v0h-1h29q1 -8 2 -15q2 -16 3 -31q0 -171 -9.5 -341t-40.5 -339q-17 -73 8 -142q27 -69 74.5 -118t125.5 -67q14 6 28 13
q32 17 67 31q142 56 294 65h37q41 0 82 3q71 7 143 16q22 2 45 5q1 0 2.5 1t2.5 2l2 2v38q-117 54 -245 65q-139 9 -276 -20q-71 -18 -143 -3q-45 11 -62 55q-27 87 -16 173q2 26 2 51q113 94 241.5 148.5t261.5 94.5q43 14 85 28q-2 7 -4 13q-5 13 -9 25q-191 40 -376 -21
q-57 -19 -119 -36q-29 -8 -61 -17q9 107 17 210q8 91 15 181q31 37 78 47q35 9 70 16q61 12 120 29q159 43 324 47q99 6 197 12q44 2 87 5q13 69 -30 97q-3 1 -5 2q-35 21 -72.5 37.5t-80.5 17.5q-20 0 -41 1q-26 1 -51 1q-281 -10 -553 -82q-9 -3 -19 -5q-123 -38 -253 -43
q-54 -2 -107 -14q-5 -1 -11 -1q-21 -4 -40 -10t-31 -19q-1 -21 -1 -38l-2 -36q16 -14 33 -28q33 -32 70 -58t85 -36q10 -2 19 -8q5 -2 9 -4zM1114 1020v0h0.5h0.5v0v0v0l-0.5 0.5t-0.5 1t-0.5 1l-0.5 0.5z" />
    <glyph glyph-name="Ccedilla" unicode="&#xc7;" horiz-adv-x="1118" 
d="M66 720v0h-1l7.5 2.5t11.5 4.5h2q-4 -14 -8 -27q-7 -23 -13 -44h-4q-2 1 -4 1q0 6 -1 11q0 6 -1 11l1 -2q-41 -140 -10 -282q16 -96 60 -175t129 -132q47 -26 98 -45q6 -3 13 -6q42 -18 87 -28q186 -31 345 72q18 11 32 25q96 101 160 224q57 111 31 232q-3 17 -10 35
t-25 30q-13 -14 -17.5 -30t-6.5 -32q-1 -13 -4 -26q-32 -147 -147 -243q-100 -82 -229 -102q-111 -20 -216 14q-127 42 -166 167q-21 77 -19 156q3 88 33.5 167t76.5 152q77 120 174 226q139 153 336 200q38 11 77.5 11.5t79.5 -19.5q2 -9 3 -18q5 -19 3 -37
q-15 -105 -71 -195q-33 -48 -69 -95l-54 -74q-4 -5 -8 -11q-10 -12 -17 -25.5t-3 -32.5q14 -10 27 -20q6 -5 11 -9q6 -1 10 -2q10 -2 18 -1q120 16 228 68q79 37 85 124q2 64 -4 128q-8 104 -46 194.5t-142 152.5q-124 27 -260 -20q-157 -63 -278 -184q-173 -170 -273 -390
q-14 -33 -22 -69zM56 677v0l-1 2q5 20 10 41h0.5h0.5v0v0q-5 -22 -10 -43zM397 204q-17 -5 -27 -14t-17 -19q-1 -2 -3 -4q3 -21 5 -42q2 -13 4 -27q4 -9 9 -18q8 -15 15 -29v-0.5t0.5 -0.5t0.5 -0.5v-0.5v2q-25 21 -25 47q-21 34 -8 69q-17 -18 -17 -37.5t7 -38.5
q27 -68 83 -128q46 -54 93 -107l78 -88q25 -30 49 -61q6 -9 13 -17q6 -7 2 -16q-2 1 -3 2q-4 2 -7 5q-17 21 -35 42q-36 43 -73 86q-11 11 -25 21q-6 4 -12 9v0v0v0v0q9 -9 17 -19q19 -22 38 -45q6 -7 13 -15q29 -35 55 -71q8 -11 10 -27q2 -8 5 -17h-22q-19 0 -34 2
q-158 25 -284 93q-49 26 -62 68q-17 47 53 56q13 2 27 2q6 0 12 1q8 4 16 10q9 5 20 13q-31 9 -61 6q-16 -1 -32 0l-0.5 -0.5t-1 -0.5h-0.5v0h2q37 6 73 12q-35 12 -72.5 5t-58.5 -30q-11 -14 -29 -24q-75 -40 -48 -100q19 -50 78 -80q122 -67 276 -91q86 -10 168 5
q36 6 56.5 26t18.5 46v25q-1 6 -1 11v0q-6 10 -11 20q-11 23 -27 43q-58 66 -118 131l-36 40q-88 95 -147 200q-26 35 -1 70h1v0zM416 4q-2 3 -4 5q-2 3 -4 5l-2 1h0.5t0.5 -0.5v-0.5v0l8 -10q2 -2 3 -5q2 -4 5 -8v0q4 -5 8 -9v0l-8 10l-4 6q-1 3 -3 6v0zM198 -290
q12 -11 24 -21v0l-2 2q-11 10 -21 19h-1v0zM182 -275q-58 52 -15 96q-9 -45 12 -87q1 -4 3 -9v0v0zM621 -371q-1 -2 -1 -4q-5 1 -10 1q0 2 1 3v0h10v0zM304 -125q0 3 -1 5l12 -2v-1q0 -1 -1 -2h-10v0zM449 -97q11 -32 48 -52v0q-13 13 -25 26t-24 25l1 1v0zM383 -25
q1 0 1.5 -0.5t0.5 -1v0t-1 0.5h1.5t0 0t-1 0.5t-1.5 0.5v0v0v0v0zM319 80l4 -8q2 -5 5 -11v0q-5 9 -10 19h1v0zM383 -25q-2 4 -3 8l-4 8v0.5t0.5 0.5h0.5q3 -8 6 -17v0v0v0v0v0zM318 80h1h-0.5h-0.5v0v0v0zM328 61v-1v0v0v0.5v0.5v0v0v0v0v0zM424 -71l-1 1l1 -1v0v0z
M736 -300l1 -1h-0.5t-0.5 0.5v0.5v0v0v0v0v0v0zM360 8l-1 1h0.5h0.5v0v0v0v-0.5v-0.5v0v0zM367 -3v1q-4 5 -7 10v0v0v1v0q3 -5 6 -9l2 -2l-0.5 -0.5l-0.5 -0.5v0v0zM497 -149v0q4 -6 7 -12v0v0v0v0q-4 6 -7 12v0v0v0v0zM448 -98v0.5t0.5 0.5h0.5h-0.5t-0.5 -0.5v-0.5v0z
M424 -71v0v0v0v0v0v0v0zM376 -9q-4 3 -9 6v0v0q0 1 0.5 1h0.5l8 -6h1h-0.5t-0.5 -0.5v-0.5v0zM396 204v0h0.5h0.5v0v0h-0.5h-0.5v0v0z" />
    <glyph glyph-name="Egrave" unicode="&#xc8;" horiz-adv-x="1340" 
d="M158 1062v0h-1h29q1 -8 2 -15q2 -16 3 -31q0 -171 -9.5 -341t-40.5 -339q-17 -73 8 -142q27 -69 74.5 -118t125.5 -67q14 6 28 13q32 17 67 31q142 56 294 65h37q41 0 82 3q71 7 143 16q22 2 45 5q1 0 2.5 1t2.5 2l2 2v38q-117 54 -245 65q-139 9 -276 -20
q-71 -18 -143 -3q-45 11 -62 55q-27 87 -16 173q2 26 2 51q113 94 241.5 148.5t261.5 94.5q43 14 85 28q-2 7 -4 13q-5 13 -9 25q-191 40 -376 -21q-57 -19 -119 -36q-29 -8 -61 -17q9 107 17 210q8 91 15 181q31 37 78 47q35 9 70 16q61 12 120 29q159 43 324 47
q99 6 197 12q44 2 87 5q13 69 -30 97q-3 1 -5 2q-35 21 -72.5 37.5t-80.5 17.5q-20 0 -41 1q-26 1 -51 1q-281 -10 -553 -82q-9 -3 -19 -5q-123 -38 -253 -43q-54 -2 -107 -14q-5 -1 -11 -1q-21 -4 -40 -10t-31 -19q-1 -21 -1 -38l-2 -36q16 -14 33 -28q33 -32 70 -58
t85 -36q10 -2 19 -8q5 -2 9 -4zM157 1062v0h0.5h0.5v0v0v0l-0.5 0.5t-0.5 1t-0.5 1l-0.5 0.5zM591 1639q-3 6 -6 11v0.5t0.5 0.5t0.5 0.5v0.5q-4 0 -7 -1h-1h-1v0v0v0v0v7v-1q-20 22 -39 42h-38q-7 -9 -14 -19q-2 -2 -4 -5q6 -7 11 -16l24 -36q7 -10 13 -20q23 -33 45 -65
q46 -70 117 -104l-18 48v0v-1l8 -4q6 -4 15 -8v2q-7 37 -26 64q-19 26 -39 52q-8 12 -17 23v0.5t-0.5 0.5t-0.5 0.5v0.5l0.5 -0.5l0.5 -0.5h0.5h0.5q-5 5 -12 11l0.5 0.5l0.5 0.5v0v0v-1q-8 8 -14 17q0 1 0 0.5v-0.5v0v0zM585 1650q-4 4 -8 7v0v0v0.5v0.5v-6v-1v0v0v0v0
q5 1 9 1v-0.5v-0.5h-0.5t-0.5 -0.5v-0.5v0z" />
    <glyph glyph-name="Eacute" unicode="&#xc9;" horiz-adv-x="1340" 
d="M202 1051v0h-1h29q1 -8 2 -15q2 -16 3 -31q0 -171 -9.5 -341t-40.5 -339q-17 -73 8 -142q27 -69 74.5 -118t125.5 -67q14 6 28 13q32 17 67 31q142 56 294 65h37q41 0 82 3q71 7 143 16q22 2 45 5q1 0 2.5 1t2.5 2l2 2v38q-117 54 -245 65q-139 9 -276 -20
q-71 -18 -143 -3q-45 11 -62 55q-27 87 -16 173q2 26 2 51q113 94 241.5 148.5t261.5 94.5q43 14 85 28q-2 7 -4 13q-5 13 -9 25q-191 40 -376 -21q-57 -19 -119 -36q-29 -8 -61 -17q9 107 17 210q8 91 15 181q31 37 78 47q35 9 70 16q61 12 120 29q159 43 324 47
q99 6 197 12q44 2 87 5q13 69 -30 97q-3 1 -5 2q-35 21 -72.5 37.5t-80.5 17.5q-20 0 -41 1q-26 1 -51 1q-281 -10 -553 -82q-9 -3 -19 -5q-123 -38 -253 -43q-54 -2 -107 -14q-5 -1 -11 -1q-21 -4 -40 -10t-31 -19q-1 -21 -1 -38l-2 -36q16 -14 33 -28q33 -32 70 -58
t85 -36q10 -2 19 -8q5 -2 9 -4zM201 1051v0h0.5h0.5v0v0v0l-0.5 0.5t-0.5 1t-0.5 1l-0.5 0.5zM419 1502v0v1v0v0v-0.5v-0.5q-5 -15 -9 -31q-1 0 -1 -1q4 0 7 -2q8 6 18 13q3 -15 -2 -30q-8 -18 1 -39q6 7 11 13q10 11 20 20q13 12 27 23q18 15 35 31q52 49 101 100l12 10
q25 22 34 48q-7 9 -13 17q-4 5 -7 9q-19 1 -28 0.5t-16 -2.5t-19 -8q-1 -1 -3 -1q-48 -19 -79 -49l-5 -5q-39 -39 -75 -79q-8 -8 -12 -17.5t3 -19.5zM462 1558v0v0v0v0.5t0.5 0.5h0.5v0zM433 1521v0v0v0l0.5 0.5l0.5 0.5v0v0z" />
    <glyph glyph-name="Ecircumflex" unicode="&#xca;" horiz-adv-x="1340" 
d="M208 1013v0h-1h29q1 -8 2 -15q2 -16 3 -31q0 -171 -9.5 -341t-40.5 -339q-17 -73 8 -142q27 -69 74.5 -118t125.5 -67q14 6 28 13q32 17 67 31q142 56 294 65h37q41 0 82 3q71 7 143 16q22 2 45 5q1 0 2.5 1t2.5 2l2 2v38q-117 54 -245 65q-139 9 -276 -20
q-71 -18 -143 -3q-45 11 -62 55q-27 87 -16 173q2 26 2 51q113 94 241.5 148.5t261.5 94.5q43 14 85 28q-2 7 -4 13q-5 13 -9 25q-191 40 -376 -21q-57 -19 -119 -36q-29 -8 -61 -17q9 107 17 210q8 91 15 181q31 37 78 47q35 9 70 16q61 12 120 29q159 43 324 47
q99 6 197 12q44 2 87 5q13 69 -30 97q-3 1 -5 2q-35 21 -72.5 37.5t-80.5 17.5q-20 0 -41 1q-26 1 -51 1q-281 -10 -553 -82q-9 -3 -19 -5q-123 -38 -253 -43q-54 -2 -107 -14q-5 -1 -11 -1q-21 -4 -40 -10t-31 -19q-1 -21 -1 -38l-2 -36q16 -14 33 -28q33 -32 70 -58
t85 -36q10 -2 19 -8q5 -2 9 -4zM207 1013v0h0.5h0.5v0v0v0l-0.5 0.5t-0.5 1t-0.5 1l-0.5 0.5zM637 1638v0l-2 -6t-2 -5v0h0.5h1h0.5h-0.5h-0.5h-0.5h-0.5l4 8q0 1 1 1q-19 12 -35.5 4t-31.5 -24q-43 -45 -85 -94q-11 -14 -23 -27q-6 -7 -11 -16l-6 -10q-1 -14 -2 -34
q0 -6 -1 -12q51 35 95 82q30 31 62 58l10 -10q10 -8 20 -19q18 -20 36 -39q23 -27 46 -53q12 -12 27 -24q7 -6 14 -13q-3 16 -5 25q-2 6 -3 12l-1 -3v0.5v0.5v0.5v0.5q15 -12 31 -24q10 -8 21 -17q4 -4 9 -7q1 3 3 7q1 3 3 6q-4 5 -9 10q-10 11 -18 23q-24 34 -47 67
q-32 46 -65 92q-11 15 -24 27q-6 7 -11 13z" />
    <glyph glyph-name="Edieresis" unicode="&#xcb;" horiz-adv-x="1340" 
d="M202 1027v0h-1h29q1 -8 2 -15q2 -16 3 -31q0 -171 -9.5 -341t-40.5 -339q-17 -73 8 -142q27 -69 74.5 -118t125.5 -67q14 6 28 13q32 17 67 31q142 56 294 65h37q41 0 82 3q71 7 143 16q22 2 45 5q1 0 2.5 1t2.5 2l2 2v38q-117 54 -245 65q-139 9 -276 -20
q-71 -18 -143 -3q-45 11 -62 55q-27 87 -16 173q2 26 2 51q113 94 241.5 148.5t261.5 94.5q43 14 85 28q-2 7 -4 13q-5 13 -9 25q-191 40 -376 -21q-57 -19 -119 -36q-29 -8 -61 -17q9 107 17 210q8 91 15 181q31 37 78 47q35 9 70 16q61 12 120 29q159 43 324 47
q99 6 197 12q44 2 87 5q13 69 -30 97q-3 1 -5 2q-35 21 -72.5 37.5t-80.5 17.5q-20 0 -41 1q-26 1 -51 1q-281 -10 -553 -82q-9 -3 -19 -5q-123 -38 -253 -43q-54 -2 -107 -14q-5 -1 -11 -1q-21 -4 -40 -10t-31 -19q-1 -21 -1 -38l-2 -36q16 -14 33 -28q33 -32 70 -58
t85 -36q10 -2 19 -8q5 -2 9 -4zM201 1027v0h0.5h0.5v0v0v0l-0.5 0.5t-0.5 1t-0.5 1l-0.5 0.5zM307 1529q1 -8 3 -16q3 -17 9 -33q17 -42 88 -27q8 8 18 16q12 11 24 21q-17 22 -31 40q-2 4 -4 7v1v0v0l-0.5 -0.5l-0.5 -0.5v0q2 -4 4 -7q4 -4 9 -7q11 -8 23 -15
q11 -7 22.5 -5.5t34.5 12.5q1 3 3 5l10 18h-3q-5 0 -9 -1q27 51 39.5 75t14.5 35t0 21q-3 -2 -5 -5q-4 -4 -7 -9q-1 -1 -2 -3q-2 -2 -4 -5t-6 -7q2 13 6 31q-52 -50 -82 -105q-9 -15 -20 -32q-39 37 -69 76q-9 12 -19 23l1 1q-7 -5 -9 -4.5t-2 3t1 5.5q0 1 1 2v1l-20 5
q-2 -4 -5 -7q-6 -8 -7 -14q-3 -38 -5 -75q0 -10 -1 -20l8 2h5h-0.5t-1 -0.5l-0.5 -0.5v0l2 2q-4 -1 -7 -2q-3 0 -6 -1v0zM519 1596q-1 0 -2 -1q1 3 3 6h2q-2 -3 -3 -5v0zM689 1514q4 -2 8 -5q1 -1 3 -2q83 71 106 152q-15 4 -32 8q-21 -27 -40 -52q-20 -28 -42 -56
q-13 3 -18 11.5t-5 19.5q-3 35 -36 56q-3 -5 -6 -9q-8 -10 -13 -19q-8 -20 -11 -40q-8 -37 -11 -72q1 -16 5 -30q2 -6 3 -12q2 0 2 -1q1 0 1 -1q-1 2 -3 2q7 -6 15 -11q26 10 43 26.5t32 35.5q-2 4 -5 7v0v0v0v0v0l4 -8v0zM743 1578v-2q-1 0 -1 1l1 1h2h-0.5h-0.5h-0.5h-0.5
v0v0zM766 1613v0h1q-2 -4 -4 -7l-1 -1v0l4 8v0zM532 1571q-2 -5 -3 -9q2 0 4 1q2 4 3 9q0 -1 -2 -1h-2v0zM353 1632l-8 8v0v-0.5v-0.5v0v0l4 -4q3 -1 5 -2v-0.5v-0.5h-0.5h-0.5v0v0z" />
    <glyph glyph-name="Igrave" unicode="&#xcc;" horiz-adv-x="947" 
d="M-7 96v0q18 -18 35 -38q22 -26 48 -47.5t65 -25.5q5 4 11 8q47 40 96.5 69t112.5 29q4 0 7 1q2 1 3 1q21 7 41 13q57 17 113 35q25 8 51 17q12 4 23 9l2 18q1 11 3 27q-57 7 -112 14q-79 10 -157 21q-25 74 -7 146q24 96 47 192q62 255 128 509q20 71 52 140q14 32 27 64
q149 12 280 22q9 6 16 12q17 12 32 23q-5 13 -9 25q-5 12 -9 23q-4 2 -7 4q-7 3 -13 6q-9 5 -19 8q-148 49 -304 41q-157 -14 -314 -26l-72 -6q-52 -2 -101 -40q3 -7 5 -14q3 -18 13 -30q21 -21 41 -44q33 -38 70 -70t87 -49q49 57 112 71l-2 -16q0 -16 -3 -31
q-43 -175 -88 -350q-4 -14 -8 -29q-56 -199 -90 -404q-12 -68 -28 -132q-7 -28 -14 -55q-30 -13 -60 -22q-60 -13 -104 -54v-65zM285 716v0q-6 48 14 92q6 15 11 31q24 124 59 245q3 9 5 18q6 -1 12 -3l-14 -54q-23 -90 -47 -180q-3 -9 -10 -17l-7 -7q6 -49 -14 -92
q-6 -16 -10 -32q-29 -138 -59 -275q-3 83 22 162q12 39 26 77q6 17 12 35zM397 1204v0q4 23 9 46q2 0 5 -1q3 0 5 -1q-5 -23 -9 -46zM390 1154v0l1 3l1 -2zM407 1623q-3 6 -6 11v0.5t0.5 0.5t0.5 0.5v0.5q-4 0 -7 -1h-1h-1v0v0v0v0v7v-1q-20 22 -39 42h-38q-7 -9 -14 -19
q-2 -2 -4 -5q6 -7 11 -16l24 -36q7 -10 13 -20q23 -33 45 -65q46 -70 117 -104l-18 48v0v-1l8 -4q6 -4 15 -8v2q-7 37 -26 64q-19 26 -39 52q-8 12 -17 23v0.5t-0.5 0.5t-0.5 0.5v0.5l0.5 -0.5l0.5 -0.5h0.5h0.5q-5 5 -12 11l0.5 0.5l0.5 0.5v0v0v-1q-8 8 -14 17q0 1 0 0.5
v-0.5v0v0zM401 1634q-4 4 -8 7v0v0v0.5v0.5v-6v-1v0v0v0v0q5 1 9 1v-0.5v-0.5h-0.5t-0.5 -0.5v-0.5v0z" />
    <glyph glyph-name="Iacute" unicode="&#xcd;" horiz-adv-x="947" 
d="M12 102v0q18 -18 35 -38q22 -26 48 -47.5t65 -25.5q5 4 11 8q47 40 96.5 69t112.5 29q4 0 7 1q2 1 3 1q21 7 41 13q57 17 113 35q25 8 51 17q12 4 23 9l2 18q1 11 3 27q-57 7 -112 14q-79 10 -157 21q-25 74 -7 146q24 96 47 192q62 255 128 509q20 71 52 140
q14 32 27 64q149 12 280 22q9 6 16 12q17 12 32 23q-5 13 -9 25q-5 12 -9 23q-4 2 -7 4q-7 3 -13 6q-9 5 -19 8q-148 49 -304 41q-157 -14 -314 -26l-72 -6q-52 -2 -101 -40q3 -7 5 -14q3 -18 13 -30q21 -21 41 -44q33 -38 70 -70t87 -49q49 57 112 71l-2 -16q0 -16 -3 -31
q-43 -175 -88 -350q-4 -14 -8 -29q-56 -199 -90 -404q-12 -68 -28 -132q-7 -28 -14 -55q-30 -13 -60 -22q-60 -13 -104 -54v-65zM304 722v0q-6 48 14 92q6 15 11 31q24 124 59 245q3 9 5 18q6 -1 12 -3l-14 -54q-23 -90 -47 -180q-3 -9 -10 -17l-7 -7q6 -49 -14 -92
q-6 -16 -10 -32q-29 -138 -59 -275q-3 83 22 162q12 39 26 77q6 17 12 35zM416 1210v0q4 23 9 46q2 0 5 -1q3 0 5 -1q-5 -23 -9 -46zM409 1160v0l1 3l1 -2zM380 1513v0v1v0v0v-0.5v-0.5q-5 -15 -9 -31q-1 0 -1 -1q4 0 7 -2q8 6 18 13q3 -15 -2 -30q-8 -18 1 -39q6 7 11 13
q10 11 20 20q13 12 27 23q18 15 35 31q52 49 101 100l12 10q25 22 34 48q-7 9 -13 17q-4 5 -7 9q-19 1 -28 0.5t-16 -2.5t-19 -8q-1 -1 -3 -1q-48 -19 -79 -49l-5 -5q-39 -39 -75 -79q-8 -8 -12 -17.5t3 -19.5zM423 1569v0v0v0v0.5t0.5 0.5h0.5v0zM394 1532v0v0v0l0.5 0.5
l0.5 0.5v0v0z" />
    <glyph glyph-name="Icircumflex" unicode="&#xce;" horiz-adv-x="947" 
d="M6 54v0q18 -18 35 -38q22 -26 48 -47.5t65 -25.5q5 4 11 8q47 40 96.5 69t112.5 29q4 0 7 1q2 1 3 1q21 7 41 13q57 17 113 35q25 8 51 17q12 4 23 9l2 18q1 11 3 27q-57 7 -112 14q-79 10 -157 21q-25 74 -7 146q24 96 47 192q62 255 128 509q20 71 52 140q14 32 27 64
q149 12 280 22q9 6 16 12q17 12 32 23q-5 13 -9 25q-5 12 -9 23q-4 2 -7 4q-7 3 -13 6q-9 5 -19 8q-148 49 -304 41q-157 -14 -314 -26l-72 -6q-52 -2 -101 -40q3 -7 5 -14q3 -18 13 -30q21 -21 41 -44q33 -38 70 -70t87 -49q49 57 112 71l-2 -16q0 -16 -3 -31
q-43 -175 -88 -350q-4 -14 -8 -29q-56 -199 -90 -404q-12 -68 -28 -132q-7 -28 -14 -55q-30 -13 -60 -22q-60 -13 -104 -54v-65zM298 674v0q-6 48 14 92q6 15 11 31q24 124 59 245q3 9 5 18q6 -1 12 -3l-14 -54q-23 -90 -47 -180q-3 -9 -10 -17l-7 -7q6 -49 -14 -92
q-6 -16 -10 -32q-29 -138 -59 -275q-3 83 22 162q12 39 26 77q6 17 12 35zM410 1162v0q4 23 9 46q2 0 5 -1q3 0 5 -1q-5 -23 -9 -46zM403 1112v0l1 3l1 -2zM471 1690v0l-2 -6t-2 -5v0h0.5h1h0.5h-0.5h-0.5h-0.5h-0.5l4 8q0 1 1 1q-19 12 -35.5 4t-31.5 -24q-43 -45 -85 -94
q-11 -14 -23 -27q-6 -7 -11 -16l-6 -10q-1 -14 -2 -34q0 -6 -1 -12q51 35 95 82q30 31 62 58l10 -10q10 -8 20 -19q18 -20 36 -39q23 -27 46 -53q12 -12 27 -24q7 -6 14 -13q-3 16 -5 25q-2 6 -3 12l-1 -3v0.5v0.5v0.5v0.5q15 -12 31 -24q10 -8 21 -17q4 -4 9 -7q1 3 3 7
q1 3 3 6q-4 5 -9 10q-10 11 -18 23q-24 34 -47 67q-32 46 -65 92q-11 15 -24 27q-6 7 -11 13z" />
    <glyph glyph-name="Idieresis" unicode="&#xcf;" horiz-adv-x="947" 
d="M-24 65v0q18 -18 35 -38q22 -26 48 -47.5t65 -25.5q5 4 11 8q47 40 96.5 69t112.5 29q4 0 7 1q2 1 3 1q21 7 41 13q57 17 113 35q25 8 51 17q12 4 23 9l2 18q1 11 3 27q-57 7 -112 14q-79 10 -157 21q-25 74 -7 146q24 96 47 192q62 255 128 509q20 71 52 140
q14 32 27 64q149 12 280 22q9 6 16 12q17 12 32 23q-5 13 -9 25q-5 12 -9 23q-4 2 -7 4q-7 3 -13 6q-9 5 -19 8q-148 49 -304 41q-157 -14 -314 -26l-72 -6q-52 -2 -101 -40q3 -7 5 -14q3 -18 13 -30q21 -21 41 -44q33 -38 70 -70t87 -49q49 57 112 71l-2 -16q0 -16 -3 -31
q-43 -175 -88 -350q-4 -14 -8 -29q-56 -199 -90 -404q-12 -68 -28 -132q-7 -28 -14 -55q-30 -13 -60 -22q-60 -13 -104 -54v-65zM268 685v0q-6 48 14 92q6 15 11 31q24 124 59 245q3 9 5 18q6 -1 12 -3l-14 -54q-23 -90 -47 -180q-3 -9 -10 -17l-7 -7q6 -49 -14 -92
q-6 -16 -10 -32q-29 -138 -59 -275q-3 83 22 162q12 39 26 77q6 17 12 35zM380 1173v0q4 23 9 46q2 0 5 -1q3 0 5 -1q-5 -23 -9 -46zM373 1123v0l1 3l1 -2zM185 1536q1 -8 3 -16q3 -17 9 -33q17 -42 88 -27q8 8 18 16q12 11 24 21q-17 22 -31 40q-2 4 -4 7v1v0v0l-0.5 -0.5
l-0.5 -0.5v0q2 -4 4 -7q4 -4 9 -7q11 -8 23 -15q11 -7 22.5 -5.5t34.5 12.5q1 3 3 5l10 18h-3q-5 0 -9 -1q27 51 39.5 75t14.5 35t0 21q-3 -2 -5 -5q-4 -4 -7 -9q-1 -1 -2 -3q-2 -2 -4 -5t-6 -7q2 13 6 31q-52 -50 -82 -105q-9 -15 -20 -32q-39 37 -69 76q-9 12 -19 23l1 1
q-7 -5 -9 -4.5t-2 3t1 5.5q0 1 1 2v1l-20 5q-2 -4 -5 -7q-6 -8 -7 -14q-3 -38 -5 -75q0 -10 -1 -20l8 2h5h-0.5t-1 -0.5l-0.5 -0.5v0l2 2q-4 -1 -7 -2q-3 0 -6 -1v0zM397 1603q-1 0 -2 -1q1 3 3 6h2q-2 -3 -3 -5v0zM567 1521q4 -2 8 -5q1 -1 3 -2q83 71 106 152q-15 4 -32 8
q-21 -27 -40 -52q-20 -28 -42 -56q-13 3 -18 11.5t-5 19.5q-3 35 -36 56q-3 -5 -6 -9q-8 -10 -13 -19q-8 -20 -11 -40q-8 -37 -11 -72q1 -16 5 -30q2 -6 3 -12q2 0 2 -1q1 0 1 -1q-1 2 -3 2q7 -6 15 -11q26 10 43 26.5t32 35.5q-2 4 -5 7v0v0v0v0v0l4 -8v0zM621 1585v-2
q-1 0 -1 1l1 1h2h-0.5h-0.5h-0.5h-0.5v0v0zM644 1620v0h1q-2 -4 -4 -7l-1 -1v0l4 8v0zM410 1578q-2 -5 -3 -9q2 0 4 1q2 4 3 9q0 -1 -2 -1h-2v0zM231 1639l-8 8v0v-0.5v-0.5v0v0l4 -4q3 -1 5 -2v-0.5v-0.5h-0.5h-0.5v0v0z" />
    <glyph glyph-name="Eth" unicode="&#xd0;" horiz-adv-x="1267" 
d="M162 596v0v0q-68 64 -54 154q14 132 68.5 243t163.5 191q86 62 186 96q139 38 285 24q109 -10 165 -80t62 -152q10 -191 -81 -357q-46 -90 -105 -171q-115 -160 -268 -285q-24 -21 -48 -44q-23 -23 -48 -44q-117 -88 -262 -108h-5q-10 -1 -19.5 -5.5t-16.5 -19.5
q11 -2 21 -5q20 -5 39 -7q42 -1 84 0q23 1 46 1q98 -4 188 43q69 37 133.5 79.5t118.5 100.5q18 20 38 40q47 47 85 99q79 120 147 246q112 205 108 440q1 126 -77 223q-99 118 -252 145q-283 46 -529 -95q-236 -133 -337 -386q-38 -85 -32.5 -172t92.5 -172q45 -48 104 -22
zM162 596v0v0q-22 -125 28 -241q40 -80 104 -142q8 -9 16 -17q13 -15 31 -20.5t43 5.5q1 7 3 15q6 18 8 38l8 146q6 115 14 230q2 19 3 38q3 65 13.5 128t42.5 120q-22 120 -88 212q-19 5 -36 10l-26 8l-10 -4q-19 -8 -43 -17q5 -45 12 -90q23 -112 13 -226q-6 -52 -8 -104
q-3 -108 -33 -215q-80 42 -95 126zM789 603v0q-28 5 -55 11q-58 13 -114 17q-135 7 -270 0q-179 -12 -356 -29q-48 -4 -94 -8q-14 -2 -31 -9q-10 -3 -22 -7q13 -8 23 -14q15 -9 28 -16q-12 -8 -25 -17q-11 -8 -26 -19q15 -5 27 -11q23 -12 41 -14q129 -5 259 -1
q101 5 201 15q50 4 99 8q24 2 48 3q37 2 76 6q39 5 77 12q79 18 162 16q12 1 25 8q6 3 12 5q-1 4 -1 8q-32 5 -67 10q-12 2 -25 4q0 1 1 3q1 3 3 7t4 12z" />
    <glyph glyph-name="Ntilde" unicode="&#xd1;" horiz-adv-x="1267" 
d="M202 -15v0q18 25 25.5 39.5t9.5 28t3 35.5v11l2 38q3 138 17 274q40 301 148 585q5 12 14 28l10 20q9 -18 16 -33q15 -31 25 -58q10 -29 19 -59q9 -33 21 -65q30 -83 61 -165q49 -128 95 -256q18 -55 31 -111q8 -35 17 -69q7 -32 25 -58q76 -91 188 -160q27 17 55 35
q3 22 7 42q8 44 10 86q-1 94 20 185q18 75 44.5 146.5t76.5 133.5q107 133 109 303q1 77 -6 155q-4 41 -6 81q-4 64 -27 120.5t-55 110.5q-12 22 -29.5 42.5t-49.5 30.5l-2 -26q-2 -27 -1 -52q1 -40 8 -80q14 -139 -11 -276q-14 -79 -37 -156q-10 -34 -19 -68q0 -3 -1 -5
q-19 -43 -37 -86q-48 -110 -97 -219q-17 -36 -41 -75q-11 -20 -24 -43q-154 383 -303 752q19 24 41 50v4q-1 46 -10 90t-44 78q-8 7 -16 16q-15 17 -32 29.5t-40 7.5q-58 -44 -80 -103l-10 -18q-30 -62 -73 -114q-46 -50 -98 -96q-23 -21 -46 -43q-14 -13 -28 -28
q-7 -8 -15 -16q45 -29 87.5 -24.5t85.5 20.5q10 3 21 6q-10 -38 -20 -75q-20 -78 -39 -151q-12 -51 -24 -101q-22 -95 -49 -188.5t-70 -182.5q-1 0 -1 -1l-2 -4q-36 -104 22 -197q24 -36 49 -72l24 -34q26 -7 54 -15h2zM473 1527v0v0.5v0.5v0v0v0q35 27 71 13q4 -6 8 -11
q7 -10 15 -17q35 -26 72 -50q62 -37 137 -12t117 119q4 8 2.5 15t-10.5 13q-6 -1 -13 -3q-18 -3 -35 -10q-45 -19 -90 -42q-59 -33 -120 1q-16 9 -33 17q-8 4 -17 9q-52 25 -108 13q-26 -5 -34 -18.5t-5 -46.5l14 -4l6 -2l10 6q7 5 13 9zM688 1470v0q27 -2 54 -5
q-35 -11 -53 5q-4 0 -7 -1h-7l1 1v3q6 -2 12 -3zM473 1528v0v0v0v-0.5v-0.5q1 1 2 0l-1 1h-1z" />
    <glyph glyph-name="Ograve" unicode="&#xd2;" horiz-adv-x="1257" 
d="M550 62v0q9 -2 17 -4q49 -19 95 -11q173 42 289 174q171 191 221 444q60 300 -84 565q-61 112 -157 177t-228 70q-183 1 -345 -97t-243 -268q-43 -94 -70 -193q-26 -97 -36 -197q-4 -49 0 -99q2 -26 3 -52q-2 -225 116 -414q28 -45 65.5 -83t89.5 -57q54 -16 112 -23
q27 -3 53 -8q38 97 -14 170q-52 80 -128 141q-44 35 -72 86q-20 38 -34 80q-6 18 -13 36q-31 89 -16 183q5 41 14 83l4 24q30 205 175 356q149 148 354 157q77 4 142.5 -24t111.5 -97q86 -136 77 -296q-15 -281 -188 -502q-60 -74 -130 -139q-29 -28 -57 -57
q-38 -38 -80 -81q-21 -20 -44 -44zM625 1623q-3 6 -6 11v0.5t0.5 0.5t0.5 0.5v0.5q-4 0 -7 -1h-1h-1v0v0v0v0v7v-1q-20 22 -39 42h-38q-7 -9 -14 -19q-2 -2 -4 -5q6 -7 11 -16l24 -36q7 -10 13 -20q23 -33 45 -65q46 -70 117 -104l-18 48v0v-1l8 -4q6 -4 15 -8v2
q-7 37 -26 64q-19 26 -39 52q-8 12 -17 23v0.5t-0.5 0.5t-0.5 0.5v0.5l0.5 -0.5l0.5 -0.5h0.5h0.5q-5 5 -12 11l0.5 0.5l0.5 0.5v0v0v-1q-8 8 -14 17q0 1 0 0.5v-0.5v0v0zM619 1634q-4 4 -8 7v0v0v0.5v0.5v-6v-1v0v0v0v0q5 1 9 1v-0.5v-0.5h-0.5t-0.5 -0.5v-0.5v0z" />
    <glyph glyph-name="Oacute" unicode="&#xd3;" horiz-adv-x="1257" 
d="M551 42v0q9 -2 17 -4q49 -19 95 -11q173 42 289 174q171 191 221 444q60 300 -84 565q-61 112 -157 177t-228 70q-183 1 -345 -97t-243 -268q-43 -94 -70 -193q-26 -97 -36 -197q-4 -49 0 -99q2 -26 3 -52q-2 -225 116 -414q28 -45 65.5 -83t89.5 -57q54 -16 112 -23
q27 -3 53 -8q38 97 -14 170q-52 80 -128 141q-44 35 -72 86q-20 38 -34 80q-6 18 -13 36q-31 89 -16 183q5 41 14 83l4 24q30 205 175 356q149 148 354 157q77 4 142.5 -24t111.5 -97q86 -136 77 -296q-15 -281 -188 -502q-60 -74 -130 -139q-29 -28 -57 -57
q-38 -38 -80 -81q-21 -20 -44 -44zM506 1513v0v1v0v0v-0.5v-0.5q-5 -15 -9 -31q-1 0 -1 -1q4 0 7 -2q8 6 18 13q3 -15 -2 -30q-8 -18 1 -39q6 7 11 13q10 11 20 20q13 12 27 23q18 15 35 31q52 49 101 100l12 10q25 22 34 48q-7 9 -13 17q-4 5 -7 9q-19 1 -28 0.5t-16 -2.5
t-19 -8q-1 -1 -3 -1q-48 -19 -79 -49l-5 -5q-39 -39 -75 -79q-8 -8 -12 -17.5t3 -19.5zM549 1569v0v0v0v0.5t0.5 0.5h0.5v0zM520 1532v0v0v0l0.5 0.5l0.5 0.5v0v0z" />
    <glyph glyph-name="Ocircumflex" unicode="&#xd4;" horiz-adv-x="1257" 
d="M510 59v0q9 -2 17 -4q49 -19 95 -11q173 42 289 174q171 191 221 444q60 300 -84 565q-61 112 -157 177t-228 70q-183 1 -345 -97t-243 -268q-43 -94 -70 -193q-26 -97 -36 -197q-4 -49 0 -99q2 -26 3 -52q-2 -225 116 -414q28 -45 65.5 -83t89.5 -57q54 -16 112 -23
q27 -3 53 -8q38 97 -14 170q-52 80 -128 141q-44 35 -72 86q-20 38 -34 80q-6 18 -13 36q-31 89 -16 183q5 41 14 83l4 24q30 205 175 356q149 148 354 157q77 4 142.5 -24t111.5 -97q86 -136 77 -296q-15 -281 -188 -502q-60 -74 -130 -139q-29 -28 -57 -57
q-38 -38 -80 -81q-21 -20 -44 -44zM603 1698v0l-2 -6t-2 -5v0h0.5h1h0.5h-0.5h-0.5h-0.5h-0.5l4 8q0 1 1 1q-19 12 -35.5 4t-31.5 -24q-43 -45 -85 -94q-11 -14 -23 -27q-6 -7 -11 -16l-6 -10q-1 -14 -2 -34q0 -6 -1 -12q51 35 95 82q30 31 62 58l10 -10q10 -8 20 -19
q18 -20 36 -39q23 -27 46 -53q12 -12 27 -24q7 -6 14 -13q-3 16 -5 25q-2 6 -3 12l-1 -3v0.5v0.5v0.5v0.5q15 -12 31 -24q10 -8 21 -17q4 -4 9 -7q1 3 3 7q1 3 3 6q-4 5 -9 10q-10 11 -18 23q-24 34 -47 67q-32 46 -65 92q-11 15 -24 27q-6 7 -11 13z" />
    <glyph glyph-name="Otilde" unicode="&#xd5;" horiz-adv-x="1257" 
d="M518 56v0q9 -2 17 -4q49 -19 95 -11q173 42 289 174q171 191 221 444q60 300 -84 565q-61 112 -157 177t-228 70q-183 1 -345 -97t-243 -268q-43 -94 -70 -193q-26 -97 -36 -197q-4 -49 0 -99q2 -26 3 -52q-2 -225 116 -414q28 -45 65.5 -83t89.5 -57q54 -16 112 -23
q27 -3 53 -8q38 97 -14 170q-52 80 -128 141q-44 35 -72 86q-20 38 -34 80q-6 18 -13 36q-31 89 -16 183q5 41 14 83l4 24q30 205 175 356q149 148 354 157q77 4 142.5 -24t111.5 -97q86 -136 77 -296q-15 -281 -188 -502q-60 -74 -130 -139q-29 -28 -57 -57
q-38 -38 -80 -81q-21 -20 -44 -44zM415 1600v0v0.5v0.5v0v0v0q35 27 71 13q4 -6 8 -11q7 -10 15 -17q35 -26 72 -50q62 -37 137 -12t117 119q4 8 2.5 15t-10.5 13q-6 -1 -13 -3q-18 -3 -35 -10q-45 -19 -90 -42q-59 -33 -120 1q-16 9 -33 17q-8 4 -17 9q-52 25 -108 13
q-26 -5 -34 -18.5t-5 -46.5l14 -4l6 -2l10 6q7 5 13 9zM630 1543v0q27 -2 54 -5q-35 -11 -53 5q-4 0 -7 -1h-7l1 1v3q6 -2 12 -3zM415 1601v0v0v0v-0.5v-0.5q1 1 2 0l-1 1h-1z" />
    <glyph glyph-name="Odieresis" unicode="&#xd6;" horiz-adv-x="1257" 
d="M544 63v0q9 -2 17 -4q49 -19 95 -11q173 42 289 174q171 191 221 444q60 300 -84 565q-61 112 -157 177t-228 70q-183 1 -345 -97t-243 -268q-43 -94 -70 -193q-26 -97 -36 -197q-4 -49 0 -99q2 -26 3 -52q-2 -225 116 -414q28 -45 65.5 -83t89.5 -57q54 -16 112 -23
q27 -3 53 -8q38 97 -14 170q-52 80 -128 141q-44 35 -72 86q-20 38 -34 80q-6 18 -13 36q-31 89 -16 183q5 41 14 83l4 24q30 205 175 356q149 148 354 157q77 4 142.5 -24t111.5 -97q86 -136 77 -296q-15 -281 -188 -502q-60 -74 -130 -139q-29 -28 -57 -57
q-38 -38 -80 -81q-21 -20 -44 -44zM409 1570q1 -8 3 -16q3 -17 9 -33q17 -42 88 -27q8 8 18 16q12 11 24 21q-17 22 -31 40q-2 4 -4 7v1v0v0l-0.5 -0.5l-0.5 -0.5v0q2 -4 4 -7q4 -4 9 -7q11 -8 23 -15q11 -7 22.5 -5.5t34.5 12.5q1 3 3 5l10 18h-3q-5 0 -9 -1q27 51 39.5 75
t14.5 35t0 21q-3 -2 -5 -5q-4 -4 -7 -9q-1 -1 -2 -3q-2 -2 -4 -5t-6 -7q2 13 6 31q-52 -50 -82 -105q-9 -15 -20 -32q-39 37 -69 76q-9 12 -19 23l1 1q-7 -5 -9 -4.5t-2 3t1 5.5q0 1 1 2v1l-20 5q-2 -4 -5 -7q-6 -8 -7 -14q-3 -38 -5 -75q0 -10 -1 -20l8 2h5h-0.5t-1 -0.5
l-0.5 -0.5v0l2 2q-4 -1 -7 -2q-3 0 -6 -1v0zM621 1637q-1 0 -2 -1q1 3 3 6h2q-2 -3 -3 -5v0zM791 1555q4 -2 8 -5q1 -1 3 -2q83 71 106 152q-15 4 -32 8q-21 -27 -40 -52q-20 -28 -42 -56q-13 3 -18 11.5t-5 19.5q-3 35 -36 56q-3 -5 -6 -9q-8 -10 -13 -19q-8 -20 -11 -40
q-8 -37 -11 -72q1 -16 5 -30q2 -6 3 -12q2 0 2 -1q1 0 1 -1q-1 2 -3 2q7 -6 15 -11q26 10 43 26.5t32 35.5q-2 4 -5 7v0v0v0v0v0l4 -8v0zM845 1619v-2q-1 0 -1 1l1 1h2h-0.5h-0.5h-0.5h-0.5v0v0zM868 1654v0h1q-2 -4 -4 -7l-1 -1v0l4 8v0zM634 1612q-2 -5 -3 -9q2 0 4 1
q2 4 3 9q0 -1 -2 -1h-2v0zM455 1673l-8 8v0v-0.5v-0.5v0v0l4 -4q3 -1 5 -2v-0.5v-0.5h-0.5h-0.5v0v0z" />
    <glyph glyph-name="multiply" unicode="&#xd7;" horiz-adv-x="1063" 
d="M55 93v0q0 1 -1 3l2 -2l-4 -2q-13 -5 -24.5 -13.5t-17.5 -27.5q7 1 12 1q11 0 19 2q118 40 201 128q78 83 146 174q23 30 47 60q34 43 68 90q16 22 33 44q6 -6 12 -11q11 -10 20 -20q21 -23 42 -47q41 -48 86 -91q121 -110 245 -217q35 -30 69 -60q1 -1 3 -2
q7 -8 16 -10.5t24 10.5q-114 188 -264 351q-91 103 -173 212q201 308 360 634q-4 10 -8 19q-7 16 -13 28q-54 14 -85 -25q-9 -10 -18 -19q-16 -17 -30 -35q-68 -97 -135 -193q-55 -79 -111 -158q-25 -36 -52 -71l-26 -34q-4 3 -9 6q-8 4 -13 9q-31 36 -63 73l-80 90
q-63 74 -151 116q-13 -6 -27 -11q-10 -3 -22 -8q147 -194 291 -383q-78 -114 -158 -224q-135 -179 -252 -370q12 -5 23 -9q9 -4 18 -7z" />
    <glyph glyph-name="Oslash" unicode="&#xd8;" horiz-adv-x="1257" 
d="M560 20v0q9 -2 17 -4q49 -19 95 -11q173 42 289 174q171 191 221 444q60 300 -84 565q-61 112 -157 177t-228 70q-183 1 -345 -97t-243 -268q-43 -94 -70 -193q-26 -97 -36 -197q-4 -49 0 -99q2 -26 3 -52q-2 -225 116 -414q28 -45 65.5 -83t89.5 -57q54 -16 112 -23
q27 -3 53 -8q38 97 -14 170q-52 80 -128 141q-44 35 -72 86q-20 38 -34 80q-6 18 -13 36q-31 89 -16 183q5 41 14 83l4 24q30 205 175 356q149 148 354 157q77 4 142.5 -24t111.5 -97q86 -136 77 -296q-15 -281 -188 -502q-60 -74 -130 -139q-29 -28 -57 -57
q-38 -38 -80 -81q-21 -20 -44 -44zM301 379v0v0l18 10q6 6 10 13v0v0v0q-6 -6 -10 -12v0q-7 -16 -14 -31q0 -2 -1 -3v1q-5 -11 -10 -21q-3 -7 -7 -14l1 1l-10 -12l1 1q-7 -18 -13 -35q-14 -39 -30 -77q-17 -39 -35 -78q-15 -34 -30 -70q-7 -13 -6 -28t21 -31q4 7 7 14
q9 15 19 29l64 88q22 29 43 58q9 12 18 25q25 32 46 66l48 82q103 171 200 347q70 133 135 270q31 64 63 128l91 182q20 41 41 83q-8 19 -17 38q-1 3 -3 6q-69 -5 -100 -66q-16 -27 -33 -54q-99 -165 -195 -332q-132 -228 -260 -460q-20 -38 -36 -80q-8 -20 -16 -38z
M584 865v0q-4 -6 -9 -13v0h0.5h0.5v0q4 6 9 12v0.5t-0.5 0.5h-0.5v0zM600 898v0h1q4 5 9 11q4 11 7 21q4 7 9 13q5 5 9 11q1 3 0 5q1 1 0.5 1t0.5 -3v0q1 1 0 2h1h-1q1 -1 0 -2l-2 -2q-4 -6 -9 -11q-4 -7 -10 -13q-3 -10 -5 -20v-1zM842 1304v0l1 -1q4 4 7 9q1 1 2 3v0v0v0
v0l-5 -5q-1 -2 -2 -3q0 -1 -1 -1zM344 436v0v-0.5v-0.5v0q6 6 10 12v0h-0.5h-0.5v0q-4 -6 -9 -11zM559 820v0l1 -1v0l-0.5 0.5z" />
    <glyph glyph-name="Ugrave" unicode="&#xd9;" horiz-adv-x="1260" 
d="M1071 949v0v-47h-3t-5 1q4 22 8 46q32 110 32 226q-23 -206 -106 -394q-128 -269 -343 -476q-80 -82 -186 -122q-38 -17 -77 -13q-114 19 -181 114q-73 117 -57 257q23 255 182 452q38 49 79 100q19 24 39 49l-12 60q-13 70 -27 140q-9 45 -30.5 83t-64.5 62
q-54 -6 -101.5 -50t-56.5 -99q-3 -29 -6 -59q-3 -55 -14 -109q-27 -113 -57 -226q-16 -56 -30 -112q-3 -11 -5 -21q-38 -129 -50 -263q-13 -150 45 -284q42 -86 106 -152.5t139 -118.5q191 -13 367 31q53 14 102 40q21 10 42 19q63 21 110 70q5 5 14 7q4 1 8 3q9 17 19 33
q21 36 39 73q57 122 98 251q30 92 67 183q26 71 31 145q3 33 8 65q22 120 14 244q-10 123 -81 222q-25 38 -70 42l1 2v-5q1 -6 3 -9q57 -74 59 -166q7 -136 -31 -266q-3 -10 -11 -19q-4 -4 -7 -9zM1051 844v0q0 1 -1 2v2q1 -2 1 -4h-0.5t-1 -0.5t-1 -0.5h-0.5v0zM1058 1423
v0l-0.5 -0.5l-0.5 -0.5v-0.5v-0.5v0h-0.5h-0.5v0v0zM687 1527q-3 6 -6 11v0.5t0.5 0.5t0.5 0.5v0.5q-4 0 -7 -1h-1h-1v0v0v0v0v7v-1q-20 22 -39 42h-38q-7 -9 -14 -19q-2 -2 -4 -5q6 -7 11 -16l24 -36q7 -10 13 -20q23 -33 45 -65q46 -70 117 -104l-18 48v0v-1l8 -4
q6 -4 15 -8v2q-7 37 -26 64q-19 26 -39 52q-8 12 -17 23v0.5t-0.5 0.5t-0.5 0.5v0.5l0.5 -0.5l0.5 -0.5h0.5h0.5q-5 5 -12 11l0.5 0.5l0.5 0.5v0v0v-1q-8 8 -14 17q0 1 0 0.5v-0.5v0v0zM681 1538q-4 4 -8 7v0v0v0.5v0.5v-6v-1v0v0v0v0q5 1 9 1v-0.5v-0.5h-0.5t-0.5 -0.5
v-0.5v0z" />
    <glyph glyph-name="Uacute" unicode="&#xda;" horiz-adv-x="1260" 
d="M1071 949v0v-47h-3t-5 1q4 22 8 46q32 110 32 226q-23 -206 -106 -394q-128 -269 -343 -476q-80 -82 -186 -122q-38 -17 -77 -13q-114 19 -181 114q-73 117 -57 257q23 255 182 452q38 49 79 100q19 24 39 49l-12 60q-13 70 -27 140q-9 45 -30.5 83t-64.5 62
q-54 -6 -101.5 -50t-56.5 -99q-3 -29 -6 -59q-3 -55 -14 -109q-27 -113 -57 -226q-16 -56 -30 -112q-3 -11 -5 -21q-38 -129 -50 -263q-13 -150 45 -284q42 -86 106 -152.5t139 -118.5q191 -13 367 31q53 14 102 40q21 10 42 19q63 21 110 70q5 5 14 7q4 1 8 3q9 17 19 33
q21 36 39 73q57 122 98 251q30 92 67 183q26 71 31 145q3 33 8 65q22 120 14 244q-10 123 -81 222q-25 38 -70 42l1 2v-5q1 -6 3 -9q57 -74 59 -166q7 -136 -31 -266q-3 -10 -11 -19q-4 -4 -7 -9zM1051 844v0q0 1 -1 2v2q1 -2 1 -4h-0.5t-1 -0.5t-1 -0.5h-0.5v0zM1058 1423
v0l-0.5 -0.5l-0.5 -0.5v-0.5v-0.5v0h-0.5h-0.5v0v0zM602 1432v0v1v0v0v-0.5v-0.5q-5 -15 -9 -31q-1 0 -1 -1q4 0 7 -2q8 6 18 13q3 -15 -2 -30q-8 -18 1 -39q6 7 11 13q10 11 20 20q13 12 27 23q18 15 35 31q52 49 101 100l12 10q25 22 34 48q-7 9 -13 17q-4 5 -7 9
q-19 1 -28 0.5t-16 -2.5t-19 -8q-1 -1 -3 -1q-48 -19 -79 -49l-5 -5q-39 -39 -75 -79q-8 -8 -12 -17.5t3 -19.5zM645 1488v0v0v0v0.5t0.5 0.5h0.5v0zM616 1451v0v0v0l0.5 0.5l0.5 0.5v0v0z" />
    <glyph glyph-name="Ucircumflex" unicode="&#xdb;" horiz-adv-x="1260" 
d="M1090 765v0v-47h-3t-5 1q4 22 8 46q32 110 32 226q-23 -206 -106 -394q-128 -269 -343 -476q-80 -82 -186 -122q-38 -17 -77 -13q-114 19 -181 114q-73 117 -57 257q23 255 182 452q38 49 79 100q19 24 39 49l-12 60q-13 70 -27 140q-9 45 -30.5 83t-64.5 62
q-54 -6 -101.5 -50t-56.5 -99q-3 -29 -6 -59q-3 -55 -14 -109q-27 -113 -57 -226q-16 -56 -30 -112q-3 -11 -5 -21q-38 -129 -50 -263q-13 -150 45 -284q42 -86 106 -152.5t139 -118.5q191 -13 367 31q53 14 102 40q21 10 42 19q63 21 110 70q5 5 14 7q4 1 8 3q9 17 19 33
q21 36 39 73q57 122 98 251q30 92 67 183q26 71 31 145q3 33 8 65q22 120 14 244q-10 123 -81 222q-25 38 -70 42l1 2v-5q1 -6 3 -9q57 -74 59 -166q7 -136 -31 -266q-3 -10 -11 -19q-4 -4 -7 -9zM1070 660v0q0 1 -1 2v2q1 -2 1 -4h-0.5t-1 -0.5t-1 -0.5h-0.5v0zM1077 1239
v0l-0.5 -0.5l-0.5 -0.5v-0.5v-0.5v0h-0.5h-0.5v0v0zM725 1564v0l-2 -6t-2 -5v0h0.5h1h0.5h-0.5h-0.5h-0.5h-0.5l4 8q0 1 1 1q-19 12 -35.5 4t-31.5 -24q-43 -45 -85 -94q-11 -14 -23 -27q-6 -7 -11 -16l-6 -10q-1 -14 -2 -34q0 -6 -1 -12q51 35 95 82q30 31 62 58l10 -10
q10 -8 20 -19q18 -20 36 -39q23 -27 46 -53q12 -12 27 -24q7 -6 14 -13q-3 16 -5 25q-2 6 -3 12l-1 -3v0.5v0.5v0.5v0.5q15 -12 31 -24q10 -8 21 -17q4 -4 9 -7q1 3 3 7q1 3 3 6q-4 5 -9 10q-10 11 -18 23q-24 34 -47 67q-32 46 -65 92q-11 15 -24 27q-6 7 -11 13z" />
    <glyph glyph-name="Udieresis" unicode="&#xdc;" horiz-adv-x="1260" 
d="M1100 936v0v-47h-3t-5 1q4 22 8 46q32 110 32 226q-23 -206 -106 -394q-128 -269 -343 -476q-80 -82 -186 -122q-38 -17 -77 -13q-114 19 -181 114q-73 117 -57 257q23 255 182 452q38 49 79 100q19 24 39 49l-12 60q-13 70 -27 140q-9 45 -30.5 83t-64.5 62
q-54 -6 -101.5 -50t-56.5 -99q-3 -29 -6 -59q-3 -55 -14 -109q-27 -113 -57 -226q-16 -56 -30 -112q-3 -11 -5 -21q-38 -129 -50 -263q-13 -150 45 -284q42 -86 106 -152.5t139 -118.5q191 -13 367 31q53 14 102 40q21 10 42 19q63 21 110 70q5 5 14 7q4 1 8 3q9 17 19 33
q21 36 39 73q57 122 98 251q30 92 67 183q26 71 31 145q3 33 8 65q22 120 14 244q-10 123 -81 222q-25 38 -70 42l1 2v-5q1 -6 3 -9q57 -74 59 -166q7 -136 -31 -266q-3 -10 -11 -19q-4 -4 -7 -9zM1080 831v0q0 1 -1 2v2q1 -2 1 -4h-0.5t-1 -0.5t-1 -0.5h-0.5v0zM1087 1410
v0l-0.5 -0.5l-0.5 -0.5v-0.5v-0.5v0h-0.5h-0.5v0v0zM512 1457q1 -8 3 -16q3 -17 9 -33q17 -42 88 -27q8 8 18 16q12 11 24 21q-17 22 -31 40q-2 4 -4 7v1v0v0l-0.5 -0.5l-0.5 -0.5v0q2 -4 4 -7q4 -4 9 -7q11 -8 23 -15q11 -7 22.5 -5.5t34.5 12.5q1 3 3 5l10 18h-3
q-5 0 -9 -1q27 51 39.5 75t14.5 35t0 21q-3 -2 -5 -5q-4 -4 -7 -9q-1 -1 -2 -3q-2 -2 -4 -5t-6 -7q2 13 6 31q-52 -50 -82 -105q-9 -15 -20 -32q-39 37 -69 76q-9 12 -19 23l1 1q-7 -5 -9 -4.5t-2 3t1 5.5q0 1 1 2v1l-20 5q-2 -4 -5 -7q-6 -8 -7 -14q-3 -38 -5 -75
q0 -10 -1 -20l8 2h5h-0.5t-1 -0.5l-0.5 -0.5v0l2 2q-4 -1 -7 -2q-3 0 -6 -1v0zM724 1524q-1 0 -2 -1q1 3 3 6h2q-2 -3 -3 -5v0zM894 1442q4 -2 8 -5q1 -1 3 -2q83 71 106 152q-15 4 -32 8q-21 -27 -40 -52q-20 -28 -42 -56q-13 3 -18 11.5t-5 19.5q-3 35 -36 56q-3 -5 -6 -9
q-8 -10 -13 -19q-8 -20 -11 -40q-8 -37 -11 -72q1 -16 5 -30q2 -6 3 -12q2 0 2 -1q1 0 1 -1q-1 2 -3 2q7 -6 15 -11q26 10 43 26.5t32 35.5q-2 4 -5 7v0v0v0v0v0l4 -8v0zM948 1506v-2q-1 0 -1 1l1 1h2h-0.5h-0.5h-0.5h-0.5v0v0zM971 1541v0h1q-2 -4 -4 -7l-1 -1v0l4 8v0z
M737 1499q-2 -5 -3 -9q2 0 4 1q2 4 3 9q0 -1 -2 -1h-2v0zM558 1560l-8 8v0v-0.5v-0.5v0v0l4 -4q3 -1 5 -2v-0.5v-0.5h-0.5h-0.5v0v0z" />
    <glyph glyph-name="Yacute" unicode="&#xdd;" horiz-adv-x="1298" 
d="M506 781v0q-92 106 -159 219t-95 247q-14 13 -27 27q-29 31 -61 56t-75 35q-84 -86 -34 -185q88 -154 184 -303q7 -10 14 -21q62 -106 153 -189q37 -33 34 -83q-1 -38 -1 -75q1 -59 -2 -117q-5 -76 -14 -158q-3 -38 -7 -79q16 -40 47 -87.5t61 -77.5q10 3 22 5l35 7l4 20
q6 21 7 44q6 253 10 507q-1 73 51 123q22 22 43 45q17 18 35 36q29 29 58 59q145 144 291 287q64 62 127 119q28 25 54 49q3 29 6 54q3 32 6 60q-57 23 -112 20.5t-109 -13.5q-31 -6 -61 -10q-15 -17 -34 -30q-71 -57 -118 -136q-33 -49 -67 -96l-98 -130q-41 -55 -82 -109
q-28 -37 -57 -78q-14 -20 -29 -42zM471 1408v0v1v0v0v-0.5v-0.5q-5 -15 -9 -31q-1 0 -1 -1q4 0 7 -2q8 6 18 13q3 -15 -2 -30q-8 -18 1 -39q6 7 11 13q10 11 20 20q13 12 27 23q18 15 35 31q52 49 101 100l12 10q25 22 34 48q-7 9 -13 17q-4 5 -7 9q-19 1 -28 0.5t-16 -2.5
t-19 -8q-1 -1 -3 -1q-48 -19 -79 -49l-5 -5q-39 -39 -75 -79q-8 -8 -12 -17.5t3 -19.5zM514 1464v0v0v0v0.5t0.5 0.5h0.5v0zM485 1427v0v0v0l0.5 0.5l0.5 0.5v0v0z" />
    <glyph glyph-name="Thorn" unicode="&#xde;" horiz-adv-x="1188" 
d="M287 845v0q5 -12 9 -24q10 -26 24 -50q65 -111 47 -238q-6 -51 -14 -103q-9 -50 -14 -101q-8 -135 -59 -259q-34 -80 16 -147q6 -8 11 -16q18 -28 39 -55q12 -14 27 -25q6 -4 11 -8q51 10 68 32t14 70q-4 116 -1 231q3 47 12 92q4 21 7 41q67 14 123.5 44t108.5 64
q24 16 48 31q77 47 139 111.5t119 134.5q32 40 53 86q98 221 -61 380q-84 70 -192 83q-197 25 -381 -50q-208 -73 -348 -242q-44 -54 -61 -116t12 -133q33 -82 114 -136v19v30q-2 119 43 213t148 158q112 70 237 111q158 50 316 7q19 -21 36 -39q8 -9 16 -17
q8 -36 5.5 -62.5t-13.5 -56.5q-49 -119 -138 -209q-72 -80 -148 -156q-38 -38 -75 -77q-8 -9 -15 -19q-6 -9 -12 -17q-9 -9 -15 -20q-8 -13 -18 -24.5t-27 -19.5v17q1 15 2 28l4 34q5 33 5 66q0 69 28 132q9 23 7 49q-8 63 -52.5 117t-105.5 74q-60 25 -99 -35zM506 325v0
l-4 -1l2 4zM73 81v0q18 -18 35 -38q22 -26 48 -47.5t65 -25.5q5 4 11 8q47 40 96.5 69t112.5 29q4 0 7 1q2 1 3 1q21 7 41 13q57 17 113 35q25 8 51 17q12 4 23 9l2 18q1 11 3 27q-57 7 -112 14q-79 10 -157 21q-25 74 -7 146q24 96 47 192q62 255 128 509q20 71 52 140
q14 32 27 64q149 12 280 22q9 6 16 12q17 12 32 23q-5 13 -9 25q-5 12 -9 23q-4 2 -7 4q-7 3 -13 6q-9 5 -19 8q-148 49 -304 41q-157 -14 -314 -26l-72 -6q-52 -2 -101 -40q3 -7 5 -14q3 -18 13 -30q21 -21 41 -44q33 -38 70 -70t87 -49q49 57 112 71l-2 -16q0 -16 -3 -31
q-43 -175 -88 -350q-4 -14 -8 -29q-56 -199 -90 -404q-12 -68 -28 -132q-7 -28 -14 -55q-30 -13 -60 -22q-60 -13 -104 -54v-65zM365 701v0q-6 48 14 92q6 15 11 31q24 124 59 245q3 9 5 18q6 -1 12 -3l-14 -54q-23 -90 -47 -180q-3 -9 -10 -17l-7 -7q6 -49 -14 -92
q-6 -16 -10 -32q-29 -138 -59 -275q-3 83 22 162q12 39 26 77q6 17 12 35zM477 1189v0q4 23 9 46q2 0 5 -1q3 0 5 -1q-5 -23 -9 -46zM470 1139v0l1 3l1 -2z" />
    <glyph glyph-name="germandbls" unicode="&#xdf;" horiz-adv-x="674" 
d="M536 332v0h1q-9 3 -17 6q-92 -101 -226 -114q-25 -4 -47 3t-37 31q-13 1 -27 2l1 2v-0.5v-1t-0.5 -1l-0.5 -0.5q13 -1 26 -1q71 -22 134 -4.5t122 54.5q19 11 38 21q8 4 17 9q4 1 7 2q5 2 9 3v0v0v0q4 13 8 25q9 29 18 57q5 16 11 31q14 35 21 71q22 170 -143 222
q-21 6 -42 9l-10 2q-28 5 -59 11q-16 2 -33 6q12 11 22 20q19 17 35 32q20 20 41 40q57 54 111 110q71 73 104 169q39 149 -109 193q-20 5 -40 12q-9 4 -18 7q-83 -3 -154 -32.5t-121 -101.5q-26 -41 -48 -84q-4 -7 -7 -13q-43 -87 -58 -184q-35 -170 -43 -342
q-4 -207 -6 -413q-1 -62 21 -118v24v52v62q-1 69 0 137q-3 315 55 625q13 64 36 126q10 22 26 41q7 9 13 19q4 12 7 26q4 8 9 15l2 2l12 10l12 30l3 -1h-0.5h-1h-1h-1.5l-12 -28h-1q-6 -6 -13 -12q-5 -8 -9 -15l-6 -26q-5 -12 -9 -24q-9 -22 -16 -45l-12 -30
q-15 -37 -23 -76q-45 -237 -52 -478q-7 -92 36 -172q57 -109 174 -127q166 -8 271 125zM467 363v0q-1 -1 -2 -3q-1 0 -1 -1q-1 -1 -2 -1q0 -1 -1 -1q-1 -2 -3 -3q0 -1 -1 -2v0q-93 -61 -202 -78q-74 -3 -129 49v21v43q2 252 53 498q28 169 144 292q11 11 21 22
q24 27 52.5 48.5t67.5 25.5q19 2 39 4l20 2q3 -10 5 -19q6 -18 12 -38l12 18q3 5 8 12q9 -21 6.5 -39t-11.5 -35q-44 -99 -120 -176q-60 -59 -121 -118q-45 -45 -91 -90q-10 -10 -19 -21q-4 -6 -9 -11q31 -12 61 -24q4 -2 9 -3q85 21 176 -8l-1 -2v3q-13 -1 -27 -1
q-27 -2 -55 -2h-8q-27 0 -56 -5q4 -2 9 -3q9 -3 18 -4q24 -3 47 -5q45 -3 89 -10q89 -16 92 -108q9 -85 -39 -157q-9 -14 -17 -29q-3 -6 -7 -13q7 -1 13 -1q3 7 6 15q9 2 19 3h-0.5t-0.5 0.5t-0.5 0.5t-0.5 0.5v0.5l2 -3h-20q-1 -4 -3 -8l-2 -8q-6 -5 -12 -9q-5 -5 -10 -9
q-2 -3 -5 -5q-2 -3 -5 -5zM536 440v0h1l4 18q1 3 1 7q13 70 24 129q6 -9 8.5 -16t1.5 -17t-5 -27q-2 -10 -3 -20q-1 -15 -5.5 -27.5t-20.5 -20.5q-2 -6 -3 -13q-1 -6 -3 -13zM465 1303v0h-13v1v1q6 -1 13 -2q8 7 17 13v0l2 -4l2 -4q-4 -1 -9 -2q-6 -1 -12 -3zM266 792v0
q41 37 89 80q-19 -55 -80 -88l-4 4q-3 2 -5 4zM61 298v0l-4 -10q-3 -7 -3 -12q0 -19 1 -38q1 -80 7 -161q1 -13 8 -26t15 -25v-1q5 -6 18 -10q7 -2 15 -6v250q-24 16 -57 39zM536 343v0v0q0 -5 1 -11h-0.5h-0.5v0v11zM530 1175v0h-1l-20 -32q-11 -15 -21 -31l4 -2q1 -1 3 -2
q18 33 35 67zM468 361v0q1 1 1 2l2 2q4 3 7 6v11q-4 -3 -10 -5q-8 -3 -12 -8.5t2 -17.5q3 4 7 7q1 2 3 3zM529 1175v0h0.5h0.5v0q-1 2 -1 4v-4zM442 1055v0v0.5v0.5v0h1q1 -1 2 -1v-1q-1 -1 -1 -1.5t-1 -0.5q-2 -1 -5 0h-2q3 2 6 3zM393 989v0l-1 1zM442 1056v0v0v-0.5v-0.5
q8 3 16 5q0 1 1 1l-1 -2q-4 -1 -8 -1zM303 893v0l-1 -1l-1 2zM488 381v0v11v0q-3 -2 -5 -4q-3 -4 -6 -7h5h6zM458 1059v0v0.5v0.5l0.5 0.5l0.5 0.5q-1 -1 -1 -2zM302 892v0v0.5t0.5 0.5t0.5 0.5v0.5l1 1l-1 -1q0 -1 -1 -2zM366 965v0l1 -1zM367 964v0v0v0.5t-0.5 0.5h-0.5
q6 4 11 9v0l0.5 -0.5l0.5 -0.5v0q-6 -5 -11 -9zM392 990v0v-0.5v-0.5v0v0l-14 -16v0h-1v1v0q7 8 15 16z" />
    <glyph glyph-name="agrave" unicode="&#xe0;" horiz-adv-x="939" 
d="M833 949v0q-3 -1 -6 -1q-4 -1 -7 -2v1v0q6 1 13 2q38 -21 88 -49q2 -1 3 -2q-2 10 -3 17q-1 9 -4 13q-41 55 -106 76q-75 17 -149 1q-151 -33 -272 -128q-103 -77 -196 -167q-89 -85 -134 -188.5t-34 -229.5q20 -140 145 -198q64 -32 128.5 -24t123.5 44q72 46 139 102
q31 25 62 49q12 9 24 17q6 4 11 8q3 -1 5 -3q3 -1 6 -3q-13 -61 -24 -119q9 -30 17 -56q4 -15 8 -28l37 -37q26 -26 51 -52q24 15 36 22q11 37 23 72l16 52l-6 58q-8 67 -15 134q-8 60 1.5 115.5t49.5 103.5q23 31 5 68q-20 45 -57 64.5t-79 30.5q-43 -17 -62.5 -51
t-28.5 -69q-31 -88 -93 -152q-52 -58 -112.5 -105t-135.5 -73q-30 -10 -60 -15q-13 -3 -25 -6q-24 32 -28 61.5t7 70.5q21 79 64 145.5t97 126.5q94 103 208 183q97 76 218 99q18 4 35 14zM509 1245q-3 6 -6 11v0.5t0.5 0.5t0.5 0.5v0.5q-4 0 -7 -1h-1h-1v0v0v0v0v7v-1
q-20 22 -39 42h-38q-7 -9 -14 -19q-2 -2 -4 -5q6 -7 11 -16l24 -36q7 -10 13 -20q23 -33 45 -65q46 -70 117 -104l-18 48v0v-1l8 -4q6 -4 15 -8v2q-7 37 -26 64q-19 26 -39 52q-8 12 -17 23v0.5t-0.5 0.5t-0.5 0.5v0.5l0.5 -0.5l0.5 -0.5h0.5h0.5q-5 5 -12 11l0.5 0.5
l0.5 0.5v0v0v-1q-8 8 -14 17q0 1 0 0.5v-0.5v0v0zM503 1256q-4 4 -8 7v0v0v0.5v0.5v-6v-1v0v0v0v0q5 1 9 1v-0.5v-0.5h-0.5t-0.5 -0.5v-0.5v0z" />
    <glyph glyph-name="aacute" unicode="&#xe1;" horiz-adv-x="939" 
d="M833 949v0q-3 -1 -6 -1q-4 -1 -7 -2v1v0q6 1 13 2q38 -21 88 -49q2 -1 3 -2q-2 10 -3 17q-1 9 -4 13q-41 55 -106 76q-75 17 -149 1q-151 -33 -272 -128q-103 -77 -196 -167q-89 -85 -134 -188.5t-34 -229.5q20 -140 145 -198q64 -32 128.5 -24t123.5 44q72 46 139 102
q31 25 62 49q12 9 24 17q6 4 11 8q3 -1 5 -3q3 -1 6 -3q-13 -61 -24 -119q9 -30 17 -56q4 -15 8 -28l37 -37q26 -26 51 -52q24 15 36 22q11 37 23 72l16 52l-6 58q-8 67 -15 134q-8 60 1.5 115.5t49.5 103.5q23 31 5 68q-20 45 -57 64.5t-79 30.5q-43 -17 -62.5 -51
t-28.5 -69q-31 -88 -93 -152q-52 -58 -112.5 -105t-135.5 -73q-30 -10 -60 -15q-13 -3 -25 -6q-24 32 -28 61.5t7 70.5q21 79 64 145.5t97 126.5q94 103 208 183q97 76 218 99q18 4 35 14zM420 1103v0v1v0v0v-0.5v-0.5q-5 -15 -9 -31q-1 0 -1 -1q4 0 7 -2q8 6 18 13
q3 -15 -2 -30q-8 -18 1 -39q6 7 11 13q10 11 20 20q13 12 27 23q18 15 35 31q52 49 101 100l12 10q25 22 34 48q-7 9 -13 17q-4 5 -7 9q-19 1 -28 0.5t-16 -2.5t-19 -8q-1 -1 -3 -1q-48 -19 -79 -49l-5 -5q-39 -39 -75 -79q-8 -8 -12 -17.5t3 -19.5zM463 1159v0v0v0v0.5
t0.5 0.5h0.5v0zM434 1122v0v0v0l0.5 0.5l0.5 0.5v0v0z" />
    <glyph glyph-name="acircumflex" unicode="&#xe2;" horiz-adv-x="939" 
d="M833 949v0q-3 -1 -6 -1q-4 -1 -7 -2v1v0q6 1 13 2q38 -21 88 -49q2 -1 3 -2q-2 10 -3 17q-1 9 -4 13q-41 55 -106 76q-75 17 -149 1q-151 -33 -272 -128q-103 -77 -196 -167q-89 -85 -134 -188.5t-34 -229.5q20 -140 145 -198q64 -32 128.5 -24t123.5 44q72 46 139 102
q31 25 62 49q12 9 24 17q6 4 11 8q3 -1 5 -3q3 -1 6 -3q-13 -61 -24 -119q9 -30 17 -56q4 -15 8 -28l37 -37q26 -26 51 -52q24 15 36 22q11 37 23 72l16 52l-6 58q-8 67 -15 134q-8 60 1.5 115.5t49.5 103.5q23 31 5 68q-20 45 -57 64.5t-79 30.5q-43 -17 -62.5 -51
t-28.5 -69q-31 -88 -93 -152q-52 -58 -112.5 -105t-135.5 -73q-30 -10 -60 -15q-13 -3 -25 -6q-24 32 -28 61.5t7 70.5q21 79 64 145.5t97 126.5q94 103 208 183q97 76 218 99q18 4 35 14zM569 1286v0l-2 -6t-2 -5v0h0.5h1h0.5h-0.5h-0.5h-0.5h-0.5l4 8q0 1 1 1
q-19 12 -35.5 4t-31.5 -24q-43 -45 -85 -94q-11 -14 -23 -27q-6 -7 -11 -16l-6 -10q-1 -14 -2 -34q0 -6 -1 -12q51 35 95 82q30 31 62 58l10 -10q10 -8 20 -19q18 -20 36 -39q23 -27 46 -53q12 -12 27 -24q7 -6 14 -13q-3 16 -5 25q-2 6 -3 12l-1 -3v0.5v0.5v0.5v0.5
q15 -12 31 -24q10 -8 21 -17q4 -4 9 -7q1 3 3 7q1 3 3 6q-4 5 -9 10q-10 11 -18 23q-24 34 -47 67q-32 46 -65 92q-11 15 -24 27q-6 7 -11 13z" />
    <glyph glyph-name="atilde" unicode="&#xe3;" horiz-adv-x="939" 
d="M833 949v0q-3 -1 -6 -1q-4 -1 -7 -2v1v0q6 1 13 2q38 -21 88 -49q2 -1 3 -2q-2 10 -3 17q-1 9 -4 13q-41 55 -106 76q-75 17 -149 1q-151 -33 -272 -128q-103 -77 -196 -167q-89 -85 -134 -188.5t-34 -229.5q20 -140 145 -198q64 -32 128.5 -24t123.5 44q72 46 139 102
q31 25 62 49q12 9 24 17q6 4 11 8q3 -1 5 -3q3 -1 6 -3q-13 -61 -24 -119q9 -30 17 -56q4 -15 8 -28l37 -37q26 -26 51 -52q24 15 36 22q11 37 23 72l16 52l-6 58q-8 67 -15 134q-8 60 1.5 115.5t49.5 103.5q23 31 5 68q-20 45 -57 64.5t-79 30.5q-43 -17 -62.5 -51
t-28.5 -69q-31 -88 -93 -152q-52 -58 -112.5 -105t-135.5 -73q-30 -10 -60 -15q-13 -3 -25 -6q-24 32 -28 61.5t7 70.5q21 79 64 145.5t97 126.5q94 103 208 183q97 76 218 99q18 4 35 14zM373 1168v0v0.5v0.5v0v0v0q35 27 71 13q4 -6 8 -11q7 -10 15 -17q35 -26 72 -50
q62 -37 137 -12t117 119q4 8 2.5 15t-10.5 13q-6 -1 -13 -3q-18 -3 -35 -10q-45 -19 -90 -42q-59 -33 -120 1q-16 9 -33 17q-8 4 -17 9q-52 25 -108 13q-26 -5 -34 -18.5t-5 -46.5l14 -4l6 -2l10 6q7 5 13 9zM588 1111v0q27 -2 54 -5q-35 -11 -53 5q-4 0 -7 -1h-7l1 1v3
q6 -2 12 -3zM373 1169v0v0v0v-0.5v-0.5q1 1 2 0l-1 1h-1z" />
    <glyph glyph-name="adieresis" unicode="&#xe4;" horiz-adv-x="939" 
d="M833 949v0q-3 -1 -6 -1q-4 -1 -7 -2v1v0q6 1 13 2q38 -21 88 -49q2 -1 3 -2q-2 10 -3 17q-1 9 -4 13q-41 55 -106 76q-75 17 -149 1q-151 -33 -272 -128q-103 -77 -196 -167q-89 -85 -134 -188.5t-34 -229.5q20 -140 145 -198q64 -32 128.5 -24t123.5 44q72 46 139 102
q31 25 62 49q12 9 24 17q6 4 11 8q3 -1 5 -3q3 -1 6 -3q-13 -61 -24 -119q9 -30 17 -56q4 -15 8 -28l37 -37q26 -26 51 -52q24 15 36 22q11 37 23 72l16 52l-6 58q-8 67 -15 134q-8 60 1.5 115.5t49.5 103.5q23 31 5 68q-20 45 -57 64.5t-79 30.5q-43 -17 -62.5 -51
t-28.5 -69q-31 -88 -93 -152q-52 -58 -112.5 -105t-135.5 -73q-30 -10 -60 -15q-13 -3 -25 -6q-24 32 -28 61.5t7 70.5q21 79 64 145.5t97 126.5q94 103 208 183q97 76 218 99q18 4 35 14zM288 1109q1 -8 3 -16q3 -17 9 -33q17 -42 88 -27q8 8 18 16q12 11 24 21
q-17 22 -31 40q-2 4 -4 7v1v0v0l-0.5 -0.5l-0.5 -0.5v0q2 -4 4 -7q4 -4 9 -7q11 -8 23 -15q11 -7 22.5 -5.5t34.5 12.5q1 3 3 5l10 18h-3q-5 0 -9 -1q27 51 39.5 75t14.5 35t0 21q-3 -2 -5 -5q-4 -4 -7 -9q-1 -1 -2 -3q-2 -2 -4 -5t-6 -7q2 13 6 31q-52 -50 -82 -105
q-9 -15 -20 -32q-39 37 -69 76q-9 12 -19 23l1 1q-7 -5 -9 -4.5t-2 3t1 5.5q0 1 1 2v1l-20 5q-2 -4 -5 -7q-6 -8 -7 -14q-3 -38 -5 -75q0 -10 -1 -20l8 2h5h-0.5t-1 -0.5l-0.5 -0.5v0l2 2q-4 -1 -7 -2q-3 0 -6 -1v0zM500 1176q-1 0 -2 -1q1 3 3 6h2q-2 -3 -3 -5v0zM670 1094
q4 -2 8 -5q1 -1 3 -2q83 71 106 152q-15 4 -32 8q-21 -27 -40 -52q-20 -28 -42 -56q-13 3 -18 11.5t-5 19.5q-3 35 -36 56q-3 -5 -6 -9q-8 -10 -13 -19q-8 -20 -11 -40q-8 -37 -11 -72q1 -16 5 -30q2 -6 3 -12q2 0 2 -1q1 0 1 -1q-1 2 -3 2q7 -6 15 -11q26 10 43 26.5
t32 35.5q-2 4 -5 7v0v0v0v0v0l4 -8v0zM724 1158v-2q-1 0 -1 1l1 1h2h-0.5h-0.5h-0.5h-0.5v0v0zM747 1193v0h1q-2 -4 -4 -7l-1 -1v0l4 8v0zM513 1151q-2 -5 -3 -9q2 0 4 1q2 4 3 9q0 -1 -2 -1h-2v0zM334 1212l-8 8v0v-0.5v-0.5v0v0l4 -4q3 -1 5 -2v-0.5v-0.5h-0.5h-0.5v0v0z
" />
    <glyph glyph-name="aring" unicode="&#xe5;" horiz-adv-x="939" 
d="M833 949v0q-3 -1 -6 -1q-4 -1 -7 -2v1v0q6 1 13 2q38 -21 88 -49q2 -1 3 -2q-2 10 -3 17q-1 9 -4 13q-41 55 -106 76q-75 17 -149 1q-151 -33 -272 -128q-103 -77 -196 -167q-89 -85 -134 -188.5t-34 -229.5q20 -140 145 -198q64 -32 128.5 -24t123.5 44q72 46 139 102
q31 25 62 49q12 9 24 17q6 4 11 8q3 -1 5 -3q3 -1 6 -3q-13 -61 -24 -119q9 -30 17 -56q4 -15 8 -28l37 -37q26 -26 51 -52q24 15 36 22q11 37 23 72l16 52l-6 58q-8 67 -15 134q-8 60 1.5 115.5t49.5 103.5q23 31 5 68q-20 45 -57 64.5t-79 30.5q-43 -17 -62.5 -51
t-28.5 -69q-31 -88 -93 -152q-52 -58 -112.5 -105t-135.5 -73q-30 -10 -60 -15q-13 -3 -25 -6q-24 32 -28 61.5t7 70.5q21 79 64 145.5t97 126.5q94 103 208 183q97 76 218 99q18 4 35 14zM560 981v0q2 -1 5 -1q16 -6 30 -3q53 10 89 42q52 48 68 110q19 74 -26 139
q-19 27 -48.5 43t-70.5 18q-56 0 -106.5 -24.5t-74.5 -65.5q-14 -23 -22 -48q-8 -23 -11 -48q-1 -12 0 -24q1 -7 1 -13q-1 -56 36 -102q9 -11 20.5 -20.5t27.5 -13.5t34 -6q8 -1 17 -2q11 24 -5 41q-15 21 -39 35q-14 9 -22 21q-7 10 -11 20q-2 5 -4 9q-10 22 -5 45l4 20
q1 3 2 7q9 50 53 87q46 36 110 39q24 1 44 -6t34 -24q27 -34 24 -73q-4 -69 -58 -123q-19 -19 -40 -34q-10 -8 -18 -15q-11 -9 -24 -20q-7 -4 -14 -10z" />
    <glyph glyph-name="ae" unicode="&#xe6;" horiz-adv-x="1781" 
d="M844 949v0q-3 -1 -6 -1q-4 -1 -7 -2v1v0q6 1 13 2q38 -21 88 -49q2 -1 3 -2q-2 10 -3 17q-1 9 -4 13q-41 55 -106 76q-75 17 -149 1q-151 -33 -272 -128q-103 -77 -196 -167q-89 -85 -134 -188.5t-34 -229.5q20 -140 145 -198q64 -32 128.5 -24t123.5 44q72 46 139 102
q31 25 62 49q12 9 24 17q6 4 11 8q3 -1 5 -3q3 -1 6 -3q-13 -61 -24 -119q9 -30 17 -56q4 -15 8 -28l37 -37q26 -26 51 -52q24 15 36 22q11 37 23 72l16 52l-6 58q-8 67 -15 134q-8 60 1.5 115.5t49.5 103.5q23 31 5 68q-20 45 -57 64.5t-79 30.5q-43 -17 -62.5 -51
t-28.5 -69q-31 -88 -93 -152q-52 -58 -112.5 -105t-135.5 -73q-30 -10 -60 -15q-13 -3 -25 -6q-24 32 -28 61.5t7 70.5q21 79 64 145.5t97 126.5q94 103 208 183q97 76 218 99q18 4 35 14zM1571 249v0q-4 18 -11 43q-12 -9 -23 -18q-22 -18 -43 -33q-19 -14 -37 -28
q-46 -37 -97 -63q-147 -69 -285 23q-53 37 -87.5 87.5t-58.5 108.5q-32 72 6 152h17h38q19 0 37 -1q37 -3 74 -1q157 15 309 59q94 20 170 88q11 28 22 58q8 22 16 43q-11 77 -29.5 117.5t-65.5 90.5q-131 52 -257 4q-215 -74 -377 -235q-99 -107 -125 -262t51 -289
q57 -99 159 -157q138 -70 291 -50q216 18 291 221q4 11 9 25q3 7 6 17zM963 580v0q39 78 89 121q3 4 7 7q110 109 257 158q61 27 120 1q48 -97 -43 -135q-61 -31 -125 -54q-111 -41 -223 -79q-22 -7 -49 -12q-15 -3 -33 -7z" />
    <glyph glyph-name="ccedilla" unicode="&#xe7;" horiz-adv-x="914" 
d="M773 954v0q-27 37 -48.5 50.5t-60.5 17.5q-142 18 -274 -39q-96 -46 -163 -120.5t-120 -162.5q-10 -14 -21 -28q-19 -23 -31 -48q-36 -89 -62 -181q-31 -128 38.5 -242.5t180.5 -162.5q92 -36 192 -45q126 -12 234.5 45.5t165.5 170.5q15 31 29 62q6 15 13 30
q-33 -16 -58 -36q-9 -7 -18 -13q-100 -64 -215 -95q-117 -32 -233 0q-85 26 -116 91.5t-19 142.5q40 238 204 419q96 117 246 143q41 4 87 2q23 -1 49 -1zM346 170q-17 -5 -27 -14t-17 -19q-1 -2 -3 -4q3 -21 5 -42q2 -13 4 -27q4 -9 9 -18q8 -15 15 -29v-0.5t0.5 -0.5
t0.5 -0.5v-0.5v2q-25 21 -25 47q-21 34 -8 69q-17 -18 -17 -37.5t7 -38.5q27 -68 83 -128q46 -54 93 -107l78 -88q25 -30 49 -61q6 -9 13 -17q6 -7 2 -16q-2 1 -3 2q-4 2 -7 5q-17 21 -35 42q-36 43 -73 86q-11 11 -25 21q-6 4 -12 9v0v0v0v0q9 -9 17 -19q19 -22 38 -45
q6 -7 13 -15q29 -35 55 -71q8 -11 10 -27q2 -8 5 -17h-22q-19 0 -34 2q-158 25 -284 93q-49 26 -62 68q-17 47 53 56q13 2 27 2q6 0 12 1q8 4 16 10q9 5 20 13q-31 9 -61 6q-16 -1 -32 0l-0.5 -0.5t-1 -0.5h-0.5v0h2q37 6 73 12q-35 12 -72.5 5t-58.5 -30q-11 -14 -29 -24
q-75 -40 -48 -100q19 -50 78 -80q122 -67 276 -91q86 -10 168 5q36 6 56.5 26t18.5 46v25q-1 6 -1 11v0q-6 10 -11 20q-11 23 -27 43q-58 66 -118 131l-36 40q-88 95 -147 200q-26 35 -1 70h1v0zM365 -30q-2 3 -4 5q-2 3 -4 5l-2 1h0.5t0.5 -0.5v-0.5v0l8 -10q2 -2 3 -5
q2 -4 5 -8v0q4 -5 8 -9v0l-8 10l-4 6q-1 3 -3 6v0zM147 -324q12 -11 24 -21v0l-2 2q-11 10 -21 19h-1v0zM131 -309q-58 52 -15 96q-9 -45 12 -87q1 -4 3 -9v0v0zM570 -405q-1 -2 -1 -4q-5 1 -10 1q0 2 1 3v0h10v0zM253 -159q0 3 -1 5l12 -2v-1q0 -1 -1 -2h-10v0zM398 -131
q11 -32 48 -52v0q-13 13 -25 26t-24 25l1 1v0zM332 -59q1 0 1.5 -0.5t0.5 -1v0t-1 0.5h1.5t0 0t-1 0.5t-1.5 0.5v0v0v0v0zM268 46l4 -8q2 -5 5 -11v0q-5 9 -10 19h1v0zM332 -59q-2 4 -3 8l-4 8v0.5t0.5 0.5h0.5q3 -8 6 -17v0v0v0v0v0zM267 46h1h-0.5h-0.5v0v0v0zM277 27v-1
v0v0v0.5v0.5v0v0v0v0v0zM373 -105l-1 1l1 -1v0v0zM685 -334l1 -1h-0.5t-0.5 0.5v0.5v0v0v0v0v0v0zM309 -26l-1 1h0.5h0.5v0v0v0v-0.5v-0.5v0v0zM316 -37v1q-4 5 -7 10v0v0v1v0q3 -5 6 -9l2 -2l-0.5 -0.5l-0.5 -0.5v0v0zM446 -183v0q4 -6 7 -12v0v0v0v0q-4 6 -7 12v0v0v0v0z
M397 -132v0.5t0.5 0.5h0.5h-0.5t-0.5 -0.5v-0.5v0zM373 -105v0v0v0v0v0v0v0zM325 -43q-4 3 -9 6v0v0q0 1 0.5 1h0.5l8 -6h1h-0.5t-0.5 -0.5v-0.5v0zM345 170v0h0.5h0.5v0v0h-0.5h-0.5v0v0z" />
    <glyph glyph-name="egrave" unicode="&#xe8;" horiz-adv-x="910" 
d="M848 270v0q-4 18 -11 43q-12 -9 -23 -18q-22 -18 -43 -33q-19 -14 -37 -28q-46 -37 -97 -63q-147 -69 -285 23q-53 37 -87.5 87.5t-58.5 108.5q-32 72 6 152h17h38q19 0 37 -1q37 -3 74 -1q157 15 309 59q94 20 170 88q11 28 22 58q8 22 16 43q-11 77 -29.5 117.5
t-65.5 90.5q-131 52 -257 4q-215 -74 -377 -235q-99 -107 -125 -262t51 -289q57 -99 159 -157q138 -70 291 -50q216 18 291 221q4 11 9 25q3 7 6 17zM240 601v0q39 78 89 121q3 4 7 7q110 109 257 158q61 27 120 1q48 -97 -43 -135q-61 -31 -125 -54q-111 -41 -223 -79
q-22 -7 -49 -12q-15 -3 -33 -7zM433 1228q-3 6 -6 11v0.5t0.5 0.5t0.5 0.5v0.5q-4 0 -7 -1h-1h-1v0v0v0v0v7v-1q-20 22 -39 42h-38q-7 -9 -14 -19q-2 -2 -4 -5q6 -7 11 -16l24 -36q7 -10 13 -20q23 -33 45 -65q46 -70 117 -104l-18 48v0v-1l8 -4q6 -4 15 -8v2q-7 37 -26 64
q-19 26 -39 52q-8 12 -17 23v0.5t-0.5 0.5t-0.5 0.5v0.5l0.5 -0.5l0.5 -0.5h0.5h0.5q-5 5 -12 11l0.5 0.5l0.5 0.5v0v0v-1q-8 8 -14 17q0 1 0 0.5v-0.5v0v0zM427 1239q-4 4 -8 7v0v0v0.5v0.5v-6v-1v0v0v0v0q5 1 9 1v-0.5v-0.5h-0.5t-0.5 -0.5v-0.5v0z" />
    <glyph glyph-name="eacute" unicode="&#xe9;" horiz-adv-x="910" 
d="M848 270v0q-4 18 -11 43q-12 -9 -23 -18q-22 -18 -43 -33q-19 -14 -37 -28q-46 -37 -97 -63q-147 -69 -285 23q-53 37 -87.5 87.5t-58.5 108.5q-32 72 6 152h17h38q19 0 37 -1q37 -3 74 -1q157 15 309 59q94 20 170 88q11 28 22 58q8 22 16 43q-11 77 -29.5 117.5
t-65.5 90.5q-131 52 -257 4q-215 -74 -377 -235q-99 -107 -125 -262t51 -289q57 -99 159 -157q138 -70 291 -50q216 18 291 221q4 11 9 25q3 7 6 17zM240 601v0q39 78 89 121q3 4 7 7q110 109 257 158q61 27 120 1q48 -97 -43 -135q-61 -31 -125 -54q-111 -41 -223 -79
q-22 -7 -49 -12q-15 -3 -33 -7zM428 1077v0v1v0v0v-0.5v-0.5q-5 -15 -9 -31q-1 0 -1 -1q4 0 7 -2q8 6 18 13q3 -15 -2 -30q-8 -18 1 -39q6 7 11 13q10 11 20 20q13 12 27 23q18 15 35 31q52 49 101 100l12 10q25 22 34 48q-7 9 -13 17q-4 5 -7 9q-19 1 -28 0.5t-16 -2.5
t-19 -8q-1 -1 -3 -1q-48 -19 -79 -49l-5 -5q-39 -39 -75 -79q-8 -8 -12 -17.5t3 -19.5zM471 1133v0v0v0v0.5t0.5 0.5h0.5v0zM442 1096v0v0v0l0.5 0.5l0.5 0.5v0v0z" />
    <glyph glyph-name="ecircumflex" unicode="&#xea;" horiz-adv-x="910" 
d="M848 270v0q-4 18 -11 43q-12 -9 -23 -18q-22 -18 -43 -33q-19 -14 -37 -28q-46 -37 -97 -63q-147 -69 -285 23q-53 37 -87.5 87.5t-58.5 108.5q-32 72 6 152h17h38q19 0 37 -1q37 -3 74 -1q157 15 309 59q94 20 170 88q11 28 22 58q8 22 16 43q-11 77 -29.5 117.5
t-65.5 90.5q-131 52 -257 4q-215 -74 -377 -235q-99 -107 -125 -262t51 -289q57 -99 159 -157q138 -70 291 -50q216 18 291 221q4 11 9 25q3 7 6 17zM240 601v0q39 78 89 121q3 4 7 7q110 109 257 158q61 27 120 1q48 -97 -43 -135q-61 -31 -125 -54q-111 -41 -223 -79
q-22 -7 -49 -12q-15 -3 -33 -7zM560 1260v0l-2 -6t-2 -5v0h0.5h1h0.5h-0.5h-0.5h-0.5h-0.5l4 8q0 1 1 1q-19 12 -35.5 4t-31.5 -24q-43 -45 -85 -94q-11 -14 -23 -27q-6 -7 -11 -16l-6 -10q-1 -14 -2 -34q0 -6 -1 -12q51 35 95 82q30 31 62 58l10 -10q10 -8 20 -19
q18 -20 36 -39q23 -27 46 -53q12 -12 27 -24q7 -6 14 -13q-3 16 -5 25q-2 6 -3 12l-1 -3v0.5v0.5v0.5v0.5q15 -12 31 -24q10 -8 21 -17q4 -4 9 -7q1 3 3 7q1 3 3 6q-4 5 -9 10q-10 11 -18 23q-24 34 -47 67q-32 46 -65 92q-11 15 -24 27q-6 7 -11 13z" />
    <glyph glyph-name="edieresis" unicode="&#xeb;" horiz-adv-x="910" 
d="M848 270v0q-4 18 -11 43q-12 -9 -23 -18q-22 -18 -43 -33q-19 -14 -37 -28q-46 -37 -97 -63q-147 -69 -285 23q-53 37 -87.5 87.5t-58.5 108.5q-32 72 6 152h17h38q19 0 37 -1q37 -3 74 -1q157 15 309 59q94 20 170 88q11 28 22 58q8 22 16 43q-11 77 -29.5 117.5
t-65.5 90.5q-131 52 -257 4q-215 -74 -377 -235q-99 -107 -125 -262t51 -289q57 -99 159 -157q138 -70 291 -50q216 18 291 221q4 11 9 25q3 7 6 17zM240 601v0q39 78 89 121q3 4 7 7q110 109 257 158q61 27 120 1q48 -97 -43 -135q-61 -31 -125 -54q-111 -41 -223 -79
q-22 -7 -49 -12q-15 -3 -33 -7zM305 1151q1 -8 3 -16q3 -17 9 -33q17 -42 88 -27q8 8 18 16q12 11 24 21q-17 22 -31 40q-2 4 -4 7v1v0v0l-0.5 -0.5l-0.5 -0.5v0q2 -4 4 -7q4 -4 9 -7q11 -8 23 -15q11 -7 22.5 -5.5t34.5 12.5q1 3 3 5l10 18h-3q-5 0 -9 -1q27 51 39.5 75
t14.5 35t0 21q-3 -2 -5 -5q-4 -4 -7 -9q-1 -1 -2 -3q-2 -2 -4 -5t-6 -7q2 13 6 31q-52 -50 -82 -105q-9 -15 -20 -32q-39 37 -69 76q-9 12 -19 23l1 1q-7 -5 -9 -4.5t-2 3t1 5.5q0 1 1 2v1l-20 5q-2 -4 -5 -7q-6 -8 -7 -14q-3 -38 -5 -75q0 -10 -1 -20l8 2h5h-0.5t-1 -0.5
l-0.5 -0.5v0l2 2q-4 -1 -7 -2q-3 0 -6 -1v0zM517 1218q-1 0 -2 -1q1 3 3 6h2q-2 -3 -3 -5v0zM687 1136q4 -2 8 -5q1 -1 3 -2q83 71 106 152q-15 4 -32 8q-21 -27 -40 -52q-20 -28 -42 -56q-13 3 -18 11.5t-5 19.5q-3 35 -36 56q-3 -5 -6 -9q-8 -10 -13 -19q-8 -20 -11 -40
q-8 -37 -11 -72q1 -16 5 -30q2 -6 3 -12q2 0 2 -1q1 0 1 -1q-1 2 -3 2q7 -6 15 -11q26 10 43 26.5t32 35.5q-2 4 -5 7v0v0v0v0v0l4 -8v0zM741 1200v-2q-1 0 -1 1l1 1h2h-0.5h-0.5h-0.5h-0.5v0v0zM764 1235v0h1q-2 -4 -4 -7l-1 -1v0l4 8v0zM530 1193q-2 -5 -3 -9q2 0 4 1
q2 4 3 9q0 -1 -2 -1h-2v0zM351 1254l-8 8v0v-0.5v-0.5v0v0l4 -4q3 -1 5 -2v-0.5v-0.5h-0.5h-0.5v0v0z" />
    <glyph glyph-name="igrave" unicode="&#xec;" horiz-adv-x="274" 
d="M152 1193v0v0v-0.5v-0.5q-1 -8 -3 -17q-4 -18 -5 -37l-8 -122q-6 -104 -14 -208q-8 -100 -19 -199q-12 -122 -22 -245q-15 -206 -21 -412q0 -56 12 -111q0 -4 1 -8q8 -54 74 -78l-1 -1q-1 7 -2 15q-3 15 -3 31q1 32 1 64q-3 80 10 159q4 17 8 35q20 86 30 173q3 37 6 75
l16 180q0 10 1 20q9 100 12 200q3 117 5 235q1 80 2 161q1 14 6 27q2 7 4 13q1 5 2 9v5q-5 9 -10 19l-8 14q-4 2 -8 3q-17 6 -33 8.5t-33 -7.5zM124 1173v0v0v0v0q-16 -11 -20.5 -25t-4.5 -29l-2 -24q-11 -176 -27 -352q-11 -119 -23 -238q-17 -167 -32 -334
q-15 -119 13 -250q2 7 2 11q1 3 1.5 5t0.5 4q5 82 9 163q9 178 22 355q19 250 42 500q10 107 19 214zM126 1192v0v0v0v0q-1 -9 -2 -19v0v0v0v0q1 10 2 19zM152 1192v0v0.5v0.5v0h-14q-6 -1 -12 -1v0v0v0v0h26zM146 -246v0v0v0.5t0.5 0.5h0.5h-0.5t-0.5 -0.5v-0.5v0z
M169 1615l-8 16v0.5v0.5v0.5v0.5q-5 0 -10 -1h-1h-1v0h0.5h0.5v0v10l-2 -1q-29 32 -55 61h-56q-10 -13 -21 -28q-2 -3 -4 -7q7 -11 15 -23q17 -26 35 -53q10 -14 19 -28q32 -48 66 -95q65 -101 169 -150q-13 35 -27 70v-1v-1l12 -6q9 -5 22 -12q-1 2 -1 4q-10 53 -36 92
q-29 38 -57 76q-12 17 -25 33v0.5t-0.5 0.5t-1 0.5l-0.5 0.5l0.5 -0.5t1 -0.5h1h0.5l-16 16v0.5t0.5 0.5h0.5v0l-1 -1q-10 12 -21 25q0 1 0 0.5t0.5 -0.5h0.5v0zM161 1631q-6 5 -13 10h0.5h0.5l0.5 0.5l0.5 0.5v-8v-2v0h-0.5h-0.5v0q6 1 12 1v-0.5v-0.5v0v-0.5v-0.5v0z" />
    <glyph glyph-name="iacute" unicode="&#xed;" horiz-adv-x="274" 
d="M153 1274v0v0v-0.5v-0.5q-1 -8 -3 -17q-4 -18 -5 -37l-8 -122q-6 -104 -14 -208q-8 -100 -19 -199q-12 -122 -22 -245q-15 -206 -21 -412q0 -56 12 -111q0 -4 1 -8q8 -54 74 -78l-1 -1q-1 7 -2 15q-3 15 -3 31q1 32 1 64q-3 80 10 159q4 17 8 35q20 86 30 173q3 37 6 75
l16 180q0 10 1 20q9 100 12 200q3 117 5 235q1 80 2 161q1 14 6 27q2 7 4 13q1 5 2 9v5q-5 9 -10 19l-8 14q-4 2 -8 3q-17 6 -33 8.5t-33 -7.5zM125 1254v0v0v0v0q-16 -11 -20.5 -25t-4.5 -29l-2 -24q-11 -176 -27 -352q-11 -119 -23 -238q-17 -167 -32 -334
q-15 -119 13 -250q2 7 2 11q1 3 1.5 5t0.5 4q5 82 9 163q9 178 22 355q19 250 42 500q10 107 19 214zM127 1273v0v0v0v0q-1 -9 -2 -19v0v0v0v0q1 10 2 19zM153 1273v0v0.5v0.5v0h-14q-6 -1 -12 -1v0v0v0v0h26zM147 -165v0v0v0.5t0.5 0.5h0.5h-0.5t-0.5 -0.5v-0.5v0zM50 1449
v0v1v0v0v-0.5v-0.5q-5 -15 -9 -31q-1 0 -1 -1q4 0 7 -2q8 6 18 13q3 -15 -2 -30q-8 -18 1 -39q6 7 11 13q10 11 20 20q13 12 27 23q18 15 35 31q52 49 101 100l12 10q25 22 34 48q-7 9 -13 17q-4 5 -7 9q-19 1 -28 0.5t-16 -2.5t-19 -8q-1 -1 -3 -1q-48 -19 -79 -49l-5 -5
q-39 -39 -75 -79q-8 -8 -12 -17.5t3 -19.5zM93 1505v0v0v0v0.5t0.5 0.5h0.5v0zM64 1468v0v0v0l0.5 0.5l0.5 0.5v0v0z" />
    <glyph glyph-name="icircumflex" unicode="&#xee;" horiz-adv-x="274" 
d="M144 1269v0v0v-0.5v-0.5q-1 -8 -3 -17q-4 -18 -5 -37l-8 -122q-6 -104 -14 -208q-8 -100 -19 -199q-12 -122 -22 -245q-15 -206 -21 -412q0 -56 12 -111q0 -4 1 -8q8 -54 74 -78l-1 -1q-1 7 -2 15q-3 15 -3 31q1 32 1 64q-3 80 10 159q4 17 8 35q20 86 30 173q3 37 6 75
l16 180q0 10 1 20q9 100 12 200q3 117 5 235q1 80 2 161q1 14 6 27q2 7 4 13q1 5 2 9v5q-5 9 -10 19l-8 14q-4 2 -8 3q-17 6 -33 8.5t-33 -7.5zM116 1249v0v0v0v0q-16 -11 -20.5 -25t-4.5 -29l-2 -24q-11 -176 -27 -352q-11 -119 -23 -238q-17 -167 -32 -334
q-15 -119 13 -250q2 7 2 11q1 3 1.5 5t0.5 4q5 82 9 163q9 178 22 355q19 250 42 500q10 107 19 214zM118 1268v0v0v0v0q-1 -9 -2 -19v0v0v0v0q1 10 2 19zM144 1268v0v0.5v0.5v0h-14q-6 -1 -12 -1v0v0v0v0h26zM138 -170v0v0v0.5t0.5 0.5h0.5h-0.5t-0.5 -0.5v-0.5v0z
M203 1583v0l-2 -6t-2 -5v0h0.5h1h0.5h-0.5h-0.5h-0.5h-0.5l4 8q0 1 1 1q-19 12 -35.5 4t-31.5 -24q-43 -45 -85 -94q-11 -14 -23 -27q-6 -7 -11 -16l-6 -10q-1 -14 -2 -34q0 -6 -1 -12q51 35 95 82q30 31 62 58l10 -10q10 -8 20 -19q18 -20 36 -39q23 -27 46 -53
q12 -12 27 -24q7 -6 14 -13q-3 16 -5 25q-2 6 -3 12l-1 -3v0.5v0.5v0.5v0.5q15 -12 31 -24q10 -8 21 -17q4 -4 9 -7q1 3 3 7q1 3 3 6q-4 5 -9 10q-10 11 -18 23q-24 34 -47 67q-32 46 -65 92q-11 15 -24 27q-6 7 -11 13z" />
    </font>
</defs>
</svg>
